<svg width="86" height="17" fill="none" xmlns="http://www.w3.org/2000/svg"><path d="M4.888 16.182c-.85 0-1.586-.13-2.21-.39-.624-.26-1.1-.72-1.43-1.378-.312-.659-.468-1.586-.468-2.782v-.884h2.548v1.092c0 .728.07 1.291.208 1.69.139.399.33.676.572.832.243.139.52.208.832.208.503 0 .901-.165 1.196-.494.312-.347.468-.988.468-1.924 0-.693-.104-1.213-.312-1.56-.208-.347-.537-.624-.988-.832a19.328 19.328 0 0 0-1.69-.754 6.504 6.504 0 0 1-1.482-.91 3.19 3.19 0 0 1-.936-1.326C.988 6.233.884 5.565.884 4.768c0-.97.121-1.76.364-2.366a2.484 2.484 0 0 1 1.3-1.352C3.155.755 3.969.608 4.992.608c1.317 0 2.323.303 3.016.91.693.59 1.04 1.456 1.04 2.6v1.794H6.604V4.846c0-.797-.13-1.37-.39-1.716-.243-.364-.641-.546-1.196-.546-.572 0-.988.173-1.248.52-.243.33-.364.858-.364 1.586 0 .624.121 1.11.364 1.456.243.33.555.59.936.78.399.19.806.364 1.222.52.78.295 1.413.598 1.898.91.485.312.84.728 1.066 1.248.225.52.338 1.257.338 2.21 0 1.092-.182 1.959-.546 2.6a3.019 3.019 0 0 1-1.508 1.352c-.641.277-1.404.416-2.288.416Zm10.94.13c-.589 0-1.135-.043-1.637-.13a3.113 3.113 0 0 1-1.3-.52c-.364-.26-.65-.65-.858-1.17-.208-.52-.313-1.222-.313-2.106V.634h2.496v12.402c0 .468.07.832.209 1.092.155.243.355.407.598.494.242.087.51.13.806.13.294 0 .563-.043.805-.13.243-.087.434-.251.572-.494.157-.26.235-.624.235-1.092V.634h2.47V12.36c0 .884-.105 1.595-.313 2.132-.19.52-.467.91-.831 1.17-.364.26-.798.433-1.3.52a9.653 9.653 0 0 1-1.638.13ZM22.983 16V.634h5.2c.97 0 1.716.217 2.236.65.52.433.78 1.075.78 1.924v2.73c0 .659-.087 1.274-.26 1.846a2.474 2.474 0 0 1-.936 1.352c-.451.347-1.11.52-1.976.52h-2.444V16h-2.6Zm2.6-7.748h1.586c.52 0 .91-.2 1.17-.598.26-.416.39-1.083.39-2.002V4.274c0-.815-.113-1.395-.338-1.742-.226-.347-.538-.52-.936-.52h-1.872v6.24ZM33.659 16V.634h6.916v1.768h-4.316v4.654h3.562v1.95h-3.562v5.278h4.316V16h-6.916Zm9.28 0V.634h5.304c.97 0 1.716.217 2.236.65.537.433.806 1.075.806 1.924v2.444c0 .85-.234 1.543-.702 2.08-.468.52-1.162.806-2.08.858.589.052 1.005.243 1.248.572.26.33.494.84.702 1.534L51.935 16h-2.756l-1.222-5.122a7.24 7.24 0 0 0-.416-1.144c-.156-.33-.408-.494-.754-.494h-1.274V16h-2.574Zm2.574-8.502h1.664c.606 0 1.03-.156 1.274-.468.26-.312.39-.789.39-1.43V3.65c0-.572-.122-.988-.364-1.248-.226-.26-.581-.39-1.066-.39h-1.898v5.486Zm11.985 8.788c-.589 0-1.144-.095-1.664-.286-.52-.173-.944-.529-1.274-1.066-.312-.555-.468-1.378-.468-2.47v-8.58c0-.936.174-1.647.52-2.132.347-.503.832-.84 1.456-1.014.624-.19 1.344-.286 2.158-.286.815 0 1.534.095 2.158.286.624.19 1.11.537 1.456 1.04.364.485.546 1.187.546 2.106v2.08h-2.418V3.78c0-.52-.078-.91-.234-1.17a1.034 1.034 0 0 0-.598-.52 2.642 2.642 0 0 0-.884-.13 2.7 2.7 0 0 0-.858.13c-.26.087-.468.26-.624.52-.138.26-.208.65-.208 1.17v9.23c0 .52.07.91.208 1.17.156.26.364.433.624.52.26.087.546.13.858.13.503 0 .91-.147 1.222-.442.33-.312.494-.771.494-1.378V9.89h-1.534V8.46h3.952V16h-1.872l-.13-1.3c-.034.07-.078.147-.13.234a4.12 4.12 0 0 0-.13.182c-.208.312-.52.59-.936.832-.398.225-.962.338-1.69.338ZM67.103 16V9.396L64.243.634h2.47l1.612 5.252.13.806.156-.806L70.3.634h2.314l-3.016 8.892V16h-2.496Zm7.61 0V.634h3.068l2.574 10.92 2.6-10.92h3.042V16h-2.21V4.144L81.213 16h-1.716L76.923 4.144V16h-2.21Z" fill="#fff"/></svg>