<svg width="118" height="34" fill="none" xmlns="http://www.w3.org/2000/svg"><g clip-path="url(#a)" fill="#2D383F"><path d="m13.073 22.055 3.13-3.145 3.563 3.145h6.105l-9.706-9.1-9.629 9.1h6.537Z"/><path d="m22.036 7.452-4.619 4.493 3.053 2.995 1.566-1.497 8.572 8.163c-1.957 4.98-6.967 8.537-12.878 8.537-7.593 0-13.738-5.879-13.738-13.143.04-7.264 6.184-13.143 13.778-13.143 6.732 0 12.368 4.68 13.503 10.784l4.149 4.194c.078-.6.117-1.236.117-1.835 0-4.53-1.84-8.8-5.205-12.02C26.968 1.76 22.506 0 17.77 0 12.995 0 8.572 1.76 5.206 4.98 1.84 8.2 0 12.432 0 17s1.84 8.8 5.206 12.02C8.572 32.24 13.034 34 17.77 34s9.198-1.76 12.564-4.98c2.074-1.985 3.561-4.344 4.383-6.927.157-.45.274-.937.392-1.386l-3.601-3.632-9.472-9.623ZM50.201 10.924h2.613L51.39 17.78h4.408l-.422 1.982h-7.022l1.848-8.838ZM58.256 10.924h2.613l-1.847 8.838h-2.614l1.848-8.838ZM64.932 12.856l-.409 1.944h4.078l-.409 1.932h-4.065l-.633 3.03H60.88l1.847-8.838h7.232l-.409 1.932h-4.619ZM73.36 12.856l-.303 1.49h4.104l-.383 1.868h-4.117l-.33 1.616h4.843l-.422 1.932h-7.404l1.848-8.838h7.232l-.41 1.932H73.36ZM81.607 12.906h-2.838l.423-1.982h8.275l-.423 1.982H84.22l-1.439 6.856h-2.613l1.439-6.856ZM91.452 19.939c-.932 0-1.746-.164-2.441-.492-.686-.329-1.219-.787-1.597-1.377-.37-.589-.555-1.262-.555-2.02 0-1.01.243-1.919.726-2.727a5.113 5.113 0 0 1 2.046-1.894c.88-.454 1.878-.682 2.996-.682.932 0 1.742.165 2.428.493.695.328 1.227.787 1.597 1.376.378.59.567 1.263.567 2.02 0 1.01-.246 1.92-.738 2.727-.484.808-1.166 1.44-2.046 1.894-.871.455-1.865.682-2.983.682Zm.225-2.07c.58 0 1.09-.14 1.53-.417.44-.278.78-.649 1.017-1.111a3.4 3.4 0 0 0 .356-1.553c0-.598-.194-1.074-.58-1.427-.379-.362-.911-.543-1.597-.543-.581 0-1.092.139-1.531.417-.44.277-.78.652-1.017 1.123a3.324 3.324 0 0 0-.356 1.54c0 .598.19 1.078.568 1.44.387.354.923.53 1.61.53ZM102.125 19.939c-.801 0-1.491-.126-2.072-.379-.58-.26-1.025-.631-1.333-1.11-.308-.48-.462-1.045-.462-1.693 0-.27.035-.58.106-.934l1.03-4.899h2.612l-1.016 4.861a3.4 3.4 0 0 0-.079.695c0 .925.51 1.388 1.531 1.388.554 0 .99-.16 1.306-.48.326-.328.568-.862.726-1.603l1.016-4.86h2.574l-1.043 5.012c-.563 2.668-2.195 4.002-4.896 4.002ZM117.515 13.74c0 .808-.224 1.506-.673 2.095-.449.581-1.078 1.006-1.887 1.276l1.57 2.651h-2.732l-1.372-2.348h-1.32l-.488 2.348H108l1.847-8.838h3.946c1.179 0 2.094.248 2.745.745.651.497.977 1.187.977 2.07Zm-2.639.24c0-.362-.128-.632-.383-.809-.255-.185-.612-.277-1.069-.277h-1.373l-.554 2.588h1.557c.581 0 1.03-.13 1.346-.391.317-.261.476-.632.476-1.111ZM50.093 28.096c-.318 0-.607-.068-.867-.203a1.567 1.567 0 0 1-.606-.562 1.511 1.511 0 0 1-.216-.799c0-.296.072-.562.216-.8.147-.236.349-.422.606-.557.26-.137.549-.206.867-.206.318 0 .605.067.859.202.257.134.459.322.606.562.147.237.22.503.22.8 0 .295-.073.563-.22.803a1.534 1.534 0 0 1-.606.558c-.254.134-.54.202-.859.202Zm0-.29c.254 0 .484-.055.689-.163.205-.111.366-.263.482-.457a1.26 1.26 0 0 0 .174-.654 1.236 1.236 0 0 0-.656-1.107 1.42 1.42 0 0 0-.689-.166c-.254 0-.485.055-.693.166-.205.109-.367.261-.486.457-.117.193-.175.41-.175.65 0 .24.058.458.175.654.119.194.281.346.486.457.208.108.44.163.693.163ZM53.755 25.742c.226 0 .431.05.615.149.183.097.327.234.431.413.104.178.156.382.156.61a1.2 1.2 0 0 1-.156.615 1.092 1.092 0 0 1-.431.417c-.181.097-.386.145-.615.145-.196 0-.374-.038-.533-.114a1.012 1.012 0 0 1-.386-.343v1.287h-.325V25.76h.312v.457a.991.991 0 0 1 .385-.351c.162-.082.345-.123.547-.123Zm-.024 2.072a.963.963 0 0 0 .46-.11.808.808 0 0 0 .32-.32.921.921 0 0 0 .12-.47c0-.176-.04-.33-.12-.465a.808.808 0 0 0-.32-.32.934.934 0 0 0-.46-.115.942.942 0 0 0-.463.114.848.848 0 0 0-.321.32.926.926 0 0 0-.115.466.95.95 0 0 0 .115.47c.08.138.186.245.32.32.139.074.293.11.464.11ZM57.365 26.036h-1.382v2.033h-.326v-2.31h1.708v.277ZM58.667 25.742c.315 0 .557.076.725.228.168.15.253.372.253.668v1.431h-.313v-.36a.734.734 0 0 1-.325.281c-.141.068-.31.101-.505.101-.27 0-.484-.061-.643-.184a.586.586 0 0 1-.239-.488c0-.196.074-.354.22-.474.15-.12.388-.18.712-.18h.767v-.14c0-.2-.058-.35-.175-.453-.116-.105-.286-.158-.51-.158-.152 0-.3.025-.44.075-.14.046-.262.112-.363.197l-.146-.233c.122-.1.269-.175.44-.228.172-.055.352-.083.542-.083Zm-.115 2.103c.184 0 .341-.04.473-.118a.74.74 0 0 0 .294-.352v-.377h-.758c-.413 0-.62.137-.62.412 0 .135.054.242.161.321.107.076.257.114.45.114ZM60.512 25.76h.326v1.022h1.52V25.76h.326v2.31h-.326V27.05h-1.52v1.02h-.326v-2.31ZM63.61 25.76h.326v1.835l1.611-1.836h.29v2.31h-.327v-1.835l-1.606 1.835h-.294v-2.31ZM67.896 26.866a.773.773 0 0 1 .395.198.463.463 0 0 1 .142.342.515.515 0 0 1-.147.36.93.93 0 0 1-.39.246 1.705 1.705 0 0 1-.546.084 1.91 1.91 0 0 1-.514-.07 1.387 1.387 0 0 1-.44-.216l.11-.233c.11.08.238.14.385.185.147.044.295.066.445.066.224 0 .406-.04.546-.119.144-.082.216-.192.216-.33 0-.122-.058-.217-.174-.285-.117-.07-.276-.105-.478-.105h-.413v-.229h.395c.18 0 .326-.032.436-.096.11-.067.165-.157.165-.268 0-.123-.062-.22-.188-.29a.963.963 0 0 0-.482-.105c-.26 0-.517.063-.771.189l-.092-.242c.288-.143.586-.215.895-.215.184 0 .35.026.496.079.15.05.266.121.349.215a.467.467 0 0 1 .128.325.442.442 0 0 1-.128.312.74.74 0 0 1-.34.202ZM70.004 25.742c.315 0 .557.076.725.228.169.15.253.372.253.668v1.431h-.312v-.36a.735.735 0 0 1-.326.281c-.141.068-.31.101-.505.101-.27 0-.484-.061-.643-.184a.586.586 0 0 1-.239-.488c0-.196.074-.354.22-.474.15-.12.388-.18.712-.18h.767v-.14c0-.2-.058-.35-.175-.453-.116-.105-.286-.158-.51-.158-.152 0-.299.025-.44.075-.14.046-.262.112-.363.197l-.146-.233c.122-.1.269-.175.44-.228.172-.055.352-.083.542-.083Zm-.115 2.103c.184 0 .342-.04.473-.118a.74.74 0 0 0 .294-.352v-.377h-.758c-.413 0-.62.137-.62.412 0 .135.054.242.161.321.108.076.257.114.45.114ZM74.365 27.797v.852h-.308v-.58H71.85v-2.31h.326v2.038h1.474v-2.038h.326v2.038h.39ZM74.987 25.76h.326v1.835l1.611-1.836h.29v2.31h-.326v-1.835l-1.607 1.835h-.294v-2.31ZM80.002 25.76v2.31h-.298v-.765h-.85l-.56.764h-.353l.602-.808a.82.82 0 0 1-.432-.255.685.685 0 0 1-.151-.456c0-.258.091-.454.275-.589.184-.134.434-.202.753-.202h1.014Zm-1.712.798c0 .343.228.514.684.514h.73v-1.036h-.707c-.471 0-.707.174-.707.522ZM84.3 25.76v2.31h-.326v-2.034h-1.515v2.033h-.326v-2.31H84.3ZM86.222 28.091c-.232 0-.442-.05-.629-.15a1.148 1.148 0 0 1-.601-1.027c0-.225.054-.427.16-.606.108-.178.255-.317.441-.417.187-.1.397-.15.63-.15.232 0 .441.05.628.15.187.1.332.239.436.417.107.179.16.38.16.606a1.156 1.156 0 0 1-.596 1.028c-.187.1-.396.15-.629.15Zm0-.277a.946.946 0 0 0 .46-.11.808.808 0 0 0 .32-.32.95.95 0 0 0 .115-.47.95.95 0 0 0-.114-.47.78.78 0 0 0-.322-.316.917.917 0 0 0-.459-.114.942.942 0 0 0-.463.114.816.816 0 0 0-.322.316.95.95 0 0 0-.114.47.95.95 0 0 0 .114.47c.08.138.187.245.322.32.137.074.292.11.463.11ZM89.57 28.07l-.767-.967-.771.966h-.367l.954-1.185-.909-1.125h.368l.725.905.725-.905h.358l-.909 1.125.964 1.185h-.371ZM91.386 28.091c-.232 0-.442-.05-.628-.15a1.147 1.147 0 0 1-.602-1.027c0-.225.054-.427.16-.606.108-.178.255-.317.442-.417.186-.1.396-.15.629-.15.232 0 .442.05.628.15.187.1.332.239.436.417.108.179.161.38.161.606a1.156 1.156 0 0 1-.597 1.028c-.186.1-.396.15-.629.15Zm0-.277a.946.946 0 0 0 .46-.11.808.808 0 0 0 .32-.32.95.95 0 0 0 .116-.47.95.95 0 0 0-.115-.47.78.78 0 0 0-.322-.316.917.917 0 0 0-.459-.114.943.943 0 0 0-.463.114.818.818 0 0 0-.322.316.95.95 0 0 0-.114.47.95.95 0 0 0 .115.47c.08.138.186.245.32.32.139.074.293.11.465.11ZM95.65 27.797v.83h-.308v-.558H93.18v.558h-.307v-.83h.138c.162-.009.272-.123.33-.343.058-.22.098-.527.12-.922l.032-.773h1.78v2.038h.377ZM93.76 26.55a5.568 5.568 0 0 1-.087.812c-.043.211-.12.356-.23.435h1.506v-1.761h-1.162l-.027.514ZM97.281 28.091c-.232 0-.442-.05-.629-.15a1.147 1.147 0 0 1-.6-1.027c0-.225.053-.427.16-.606.107-.178.254-.317.44-.417.187-.1.397-.15.63-.15.232 0 .442.05.628.15.187.1.332.239.436.417.107.179.161.38.161.606a1.156 1.156 0 0 1-.597 1.028c-.186.1-.396.15-.629.15Zm0-.277a.945.945 0 0 0 .46-.11.808.808 0 0 0 .32-.32.95.95 0 0 0 .115-.47.95.95 0 0 0-.114-.47.78.78 0 0 0-.322-.316.916.916 0 0 0-.459-.114.943.943 0 0 0-.463.114.818.818 0 0 0-.322.316.95.95 0 0 0-.114.47.95.95 0 0 0 .114.47c.08.138.187.245.322.32.137.074.292.11.463.11ZM100.741 26.875c.328.073.492.262.492.566a.533.533 0 0 1-.235.466c-.156.108-.388.162-.697.162h-1.097v-2.31h1.065c.275 0 .491.052.647.154a.495.495 0 0 1 .234.44.503.503 0 0 1-.11.324.635.635 0 0 1-.299.198Zm-1.22-.088h.725c.186 0 .329-.034.426-.101a.332.332 0 0 0 .152-.294.321.321 0 0 0-.152-.29c-.097-.065-.24-.097-.426-.097h-.726v.782Zm.766 1.036c.208 0 .364-.032.468-.096.104-.065.156-.166.156-.303 0-.138-.047-.239-.142-.303-.095-.068-.245-.101-.45-.101h-.799v.803h.767ZM104.736 26.875c.327.073.491.262.491.566a.532.532 0 0 1-.234.466c-.156.108-.389.162-.698.162h-1.097v-2.31h1.065c.275 0 .491.052.647.154a.495.495 0 0 1 .234.44.503.503 0 0 1-.11.324.632.632 0 0 1-.298.198Zm-1.222-.088h.726c.186 0 .329-.034.427-.101a.331.331 0 0 0 .151-.294.32.32 0 0 0-.151-.29c-.098-.065-.241-.097-.427-.097h-.726v.782Zm.767 1.036c.208 0 .364-.032.468-.096.104-.065.156-.166.156-.303 0-.138-.047-.239-.142-.303-.095-.068-.245-.101-.45-.101h-.799v.803h.767ZM108.9 26.036h-1.382v2.033h-.326v-2.31h1.708v.277ZM110.255 28.091c-.233 0-.443-.05-.629-.15a1.145 1.145 0 0 1-.602-1.027c0-.225.054-.427.161-.606.107-.178.254-.317.441-.417.186-.1.396-.15.629-.15.232 0 .442.05.629.15.186.1.332.239.436.417.107.179.16.38.16.606 0 .226-.053.428-.16.606-.104.179-.25.32-.436.422-.187.1-.397.15-.629.15Zm0-.277a.947.947 0 0 0 .459-.11.808.808 0 0 0 .321-.32.945.945 0 0 0 .115-.47.945.945 0 0 0-.115-.47.78.78 0 0 0-.321-.316.918.918 0 0 0-.459-.114.943.943 0 0 0-.464.114.81.81 0 0 0-.321.316.945.945 0 0 0-.115.47c0 .176.038.332.115.47a.841.841 0 0 0 .321.32c.138.074.292.11.464.11ZM113.421 25.742c.226 0 .431.05.615.149.184.097.327.234.431.413.105.178.157.382.157.61 0 .231-.052.436-.157.615a1.087 1.087 0 0 1-.431.417 1.285 1.285 0 0 1-.615.145c-.196 0-.373-.038-.533-.114a1.011 1.011 0 0 1-.385-.343v1.287h-.326V25.76h.312v.457a.987.987 0 0 1 .386-.351c.162-.082.344-.123.546-.123Zm-.023 2.072a.964.964 0 0 0 .459-.11.802.802 0 0 0 .321-.32.917.917 0 0 0 .12-.47.894.894 0 0 0-.441-.786.935.935 0 0 0-.459-.114.946.946 0 0 0-.464.114.855.855 0 0 0-.321.32.92.92 0 0 0-.115.466c0 .176.038.332.115.47.08.138.187.245.321.32.138.074.293.11.464.11ZM116.338 26.576c.303.003.534.067.693.193.16.126.239.308.239.545 0 .246-.086.435-.257.566-.171.132-.416.197-.734.194l-.955-.005v-2.31h.326v.808l.688.01Zm1.336-.817H118v2.31h-.326v-2.31Zm-1.414 2.077c.224.003.392-.04.505-.127a.472.472 0 0 0 .175-.395c0-.17-.057-.296-.17-.378-.113-.082-.283-.124-.51-.127l-.61-.009v1.028l.61.008Z"/></g><defs><clipPath id="a"><path fill="#fff" d="M0 0h118v34H0z"/></clipPath></defs></svg>