<svg width="67" height="13" fill="none" xmlns="http://www.w3.org/2000/svg"><path d="M3.76 12.14c-.653 0-1.22-.1-1.7-.3-.48-.2-.847-.553-1.1-1.06C.72 10.273.6 9.56.6 8.64v-.68h1.96v.84c0 .56.053.993.16 1.3.107.307.253.52.44.64.187.107.4.16.64.16.387 0 .693-.127.92-.38.24-.267.36-.76.36-1.48 0-.533-.08-.933-.24-1.2-.16-.267-.413-.48-.76-.64a14.868 14.868 0 0 0-1.3-.58c-.44-.2-.82-.433-1.14-.7A2.453 2.453 0 0 1 .92 4.9C.76 4.487.68 3.973.68 3.36c0-.747.093-1.353.28-1.82.2-.48.533-.827 1-1.04C2.427.273 3.053.16 3.84.16c1.013 0 1.787.233 2.32.7.533.453.8 1.12.8 2v1.38H5.08v-.82c0-.613-.1-1.053-.3-1.32-.187-.28-.493-.42-.92-.42-.44 0-.76.133-.96.4-.187.253-.28.66-.28 1.22 0 .48.093.853.28 1.12.187.253.427.453.72.6.307.147.62.28.94.4.6.227 1.087.46 1.46.7.373.24.647.56.82.96.173.4.26.967.26 1.7 0 .84-.14 1.507-.42 2-.267.48-.653.827-1.16 1.04-.493.213-1.08.32-1.76.32Zm8.416.1c-.454 0-.874-.033-1.26-.1-.387-.067-.72-.2-1-.4s-.5-.5-.66-.9c-.16-.4-.24-.94-.24-1.62V.18h1.92v9.54c0 .36.053.64.16.84.12.187.273.313.46.38.186.067.393.1.62.1.226 0 .433-.033.62-.1a.814.814 0 0 0 .44-.38c.12-.2.18-.48.18-.84V.18h1.9V9.2c0 .68-.08 1.227-.24 1.64-.147.4-.36.7-.64.9-.28.2-.614.333-1 .4-.387.067-.807.1-1.26.1Zm5.503-.24V.18h4c.747 0 1.32.167 1.72.5.4.333.6.827.6 1.48v2.1c0 .507-.067.98-.2 1.42-.12.427-.36.773-.72 1.04-.347.267-.853.4-1.52.4h-1.88V12h-2Zm2-5.96h1.22c.4 0 .7-.153.9-.46.2-.32.3-.833.3-1.54V2.98c0-.627-.087-1.073-.26-1.34a.815.815 0 0 0-.72-.4h-1.44v4.8ZM25.89 12V.18h5.32v1.36h-3.32v3.58h2.74v1.5h-2.74v4.06h3.32V12h-5.32Zm7.139 0V.18h4.08c.746 0 1.32.167 1.72.5.413.333.62.827.62 1.48v1.88c0 .653-.18 1.187-.54 1.6-.36.4-.894.62-1.6.66.453.04.773.187.96.44.2.253.38.647.54 1.18L39.95 12h-2.12l-.94-3.94a5.568 5.568 0 0 0-.32-.88c-.12-.253-.314-.38-.58-.38h-.98V12h-1.98Zm1.98-6.54h1.28c.466 0 .793-.12.98-.36.2-.24.3-.607.3-1.1V2.5c0-.44-.094-.76-.28-.96-.174-.2-.447-.3-.82-.3h-1.46v4.22Zm9.22 6.76c-.454 0-.88-.073-1.28-.22-.4-.133-.727-.407-.98-.82-.24-.427-.36-1.06-.36-1.9v-6.6c0-.72.133-1.267.4-1.64.266-.387.64-.647 1.12-.78.48-.147 1.033-.22 1.66-.22.626 0 1.18.073 1.66.22.48.147.853.413 1.12.8.28.373.42.913.42 1.62v1.6h-1.86V2.6c0-.4-.06-.7-.18-.9a.795.795 0 0 0-.46-.4 2.032 2.032 0 0 0-.68-.1c-.24 0-.46.033-.66.1s-.36.2-.48.4c-.107.2-.16.5-.16.9v7.1c0 .4.053.7.16.9.12.2.28.333.48.4.2.067.42.1.66.1.386 0 .7-.113.94-.34.253-.24.38-.593.38-1.06V7.3h-1.18V6.2h3.04V12h-1.44l-.1-1c-.027.053-.06.113-.1.18-.04.053-.074.1-.1.14-.16.24-.4.453-.72.64-.307.173-.74.26-1.3.26Zm7.387-.22V6.92l-2.2-6.74h1.9l1.24 4.04.1.62.12-.62 1.3-4.04h1.78l-2.32 6.84V12h-1.92Zm5.855 0V.18h2.36l1.98 8.4 2-8.4h2.34V12h-1.7V2.88L62.472 12h-1.32l-1.98-9.12V12h-1.7Z" fill="#fff"/></svg>