<svg width="81" height="16" fill="none" xmlns="http://www.w3.org/2000/svg"><path d="M4.608 15.168c-.848 0-1.576-.12-2.184-.36-.592-.24-1.048-.664-1.368-1.272-.32-.608-.48-1.464-.48-2.568v-.84H3.48v1.08c0 .592.048 1.048.144 1.368.096.304.232.52.408.648.176.112.384.168.624.168.368 0 .656-.128.864-.384.224-.272.336-.792.336-1.56 0-.592-.096-1.032-.288-1.32-.176-.304-.464-.544-.864-.72a47.87 47.87 0 0 0-1.536-.696c-.56-.24-1.024-.528-1.392-.864A3.013 3.013 0 0 1 .96 6.576C.784 6.064.696 5.44.696 4.704c0-.928.12-1.68.36-2.256A2.38 2.38 0 0 1 2.304 1.2C2.896.928 3.688.792 4.68.792c1.28 0 2.256.28 2.928.84C8.296 2.176 8.64 3 8.64 4.104v1.704H5.856v-.864c0-.72-.088-1.224-.264-1.512C5.432 3.144 5.136 3 4.704 3c-.416 0-.712.128-.888.384-.176.256-.264.672-.264 1.248 0 .528.104.944.312 1.248.224.288.504.512.84.672.336.144.696.288 1.08.432.704.272 1.28.552 1.728.84.448.272.776.656.984 1.152.208.48.312 1.176.312 2.088 0 1.024-.176 1.84-.528 2.448a2.852 2.852 0 0 1-1.464 1.272c-.624.256-1.36.384-2.208.384Zm10.143.12c-.576 0-1.104-.04-1.584-.12a2.897 2.897 0 0 1-1.248-.504c-.352-.256-.624-.632-.816-1.128-.192-.512-.288-1.2-.288-2.064V.816h2.784v11.448c0 .336.048.608.144.816a.83.83 0 0 0 .432.384c.176.064.368.096.576.096.192 0 .376-.032.552-.096a.734.734 0 0 0 .408-.384c.112-.208.168-.48.168-.816V.816h2.784v10.656c0 .848-.096 1.528-.288 2.04-.192.512-.464.896-.816 1.152-.336.256-.752.424-1.248.504-.48.08-1 .12-1.56.12ZM21.116 15V.816h5.04c.944 0 1.656.216 2.136.648.496.416.744 1 .744 1.752v2.448c0 .64-.08 1.24-.24 1.8a2.59 2.59 0 0 1-.864 1.32c-.416.336-1.016.504-1.8.504H24.02V15h-2.904Zm2.904-7.248h1.08c.384 0 .672-.184.864-.552.192-.368.288-.976.288-1.824v-.96c0-.752-.08-1.288-.24-1.608-.16-.32-.392-.48-.696-.48H24.02v5.424ZM31.018 15V.816h6.528v1.968h-3.624v3.792h3.072V8.76h-3.072v4.32h3.624V15h-6.528Zm8.496 0V.816h5.184c.944 0 1.656.216 2.136.648.48.416.72 1 .72 1.752v2.208c0 .752-.2 1.384-.6 1.896-.4.512-1.024.808-1.872.888.544.08.928.264 1.152.552.24.272.448.72.624 1.344L48.202 15h-3.096l-1.032-4.704a4.74 4.74 0 0 0-.336-.96c-.112-.272-.28-.408-.504-.408h-.816V15h-2.904Zm2.904-8.016h1.152c.448 0 .768-.12.96-.36.192-.256.288-.656.288-1.2V3.72c0-.512-.088-.872-.264-1.08-.176-.208-.448-.312-.816-.312h-1.32v4.656Zm10.63 8.28A4.427 4.427 0 0 1 51.512 15c-.464-.176-.848-.52-1.152-1.032-.304-.528-.456-1.312-.456-2.352V3.84c0-.832.16-1.48.48-1.944.336-.464.8-.784 1.392-.96.592-.192 1.28-.288 2.064-.288s1.472.096 2.064.288c.608.176 1.08.496 1.416.96.352.464.528 1.112.528 1.944v1.992h-2.712V3.696c0-.384-.056-.672-.168-.864-.096-.208-.232-.344-.408-.408a1.908 1.908 0 0 0-.648-.096c-.24 0-.456.032-.648.096-.176.064-.32.2-.432.408-.096.192-.144.48-.144.864v8.592c0 .368.048.656.144.864a.961.961 0 0 0 .432.408c.192.064.408.096.648.096.368 0 .664-.112.888-.336.224-.224.336-.568.336-1.032V9.456h-1.152V7.872h3.864V15H55.76l-.144-1.104-.096.144a1.174 1.174 0 0 0-.072.12c-.16.272-.432.528-.816.768-.368.224-.896.336-1.584.336ZM61.987 15V8.976L59.323.816h2.784l1.224 4.248.168.912.168-.912 1.32-4.248h2.544L64.77 9.12V15h-2.784Zm7.28 0V.816h3.48l1.943 9.168L76.658.816h3.456V15h-2.448V4.392L75.626 15H73.73L71.714 4.392V15h-2.448Z" fill="#fff"/></svg>