<svg width="205" height="60" fill="none" xmlns="http://www.w3.org/2000/svg"><g clip-path="url(#a)" fill="#2D383F"><path d="m22.71 38.92 5.44-5.55 6.189 5.55h10.607L28.083 22.864 11.355 38.921h11.356Z"/><path d="m38.283 13.15-8.024 7.93 5.304 5.286 2.72-2.643 14.891 14.405c-3.4 8.788-12.103 15.066-22.371 15.066C17.61 53.194 6.936 42.819 6.936 30 7.004 17.18 17.679 6.806 30.87 6.806c11.695 0 21.487 8.26 23.46 19.031l7.207 7.4c.136-1.056.204-2.18.204-3.237 0-7.996-3.196-15.529-9.044-21.211C46.85 3.106 39.098 0 30.871 0 22.575 0 14.89 3.106 9.044 8.789 3.196 14.47 0 21.939 0 30c0 8.062 3.196 15.529 9.044 21.212C14.892 56.894 22.644 60 30.87 60c8.228 0 15.98-3.106 21.827-8.788 3.604-3.503 6.188-7.666 7.616-12.225.272-.793.476-1.652.68-2.445l-6.256-6.41L38.283 13.15ZM87.214 19.278h4.54l-2.477 12.098h7.658l-.734 3.498H84.004l3.21-15.596ZM101.208 19.278h4.539l-3.209 15.596h-4.54l3.21-15.596ZM112.806 22.687l-.711 3.431h7.085l-.711 3.409h-7.061l-1.101 5.347h-4.54l3.21-15.596h12.565l-.711 3.409h-8.025ZM127.448 22.687l-.527 2.629h7.13l-.665 3.297h-7.153l-.574 2.852h8.415l-.734 3.41h-12.862l3.21-15.597h12.564l-.711 3.409h-8.093ZM141.775 22.776h-4.93l.734-3.498h14.376l-.734 3.498h-4.906l-2.5 12.098h-4.539l2.499-12.098ZM158.879 35.186c-1.62 0-3.034-.29-4.242-.869-1.192-.579-2.117-1.388-2.774-2.428-.642-1.04-.963-2.228-.963-3.565 0-1.783.42-3.387 1.261-4.813.856-1.426 2.041-2.54 3.554-3.342 1.528-.802 3.263-1.203 5.204-1.203 1.621 0 3.027.29 4.219.869 1.208.58 2.132 1.389 2.774 2.428.658 1.04.986 2.228.986 3.565 0 1.783-.428 3.387-1.284 4.813-.84 1.426-2.025 2.54-3.553 3.342-1.514.802-3.241 1.203-5.182 1.203Zm.39-3.654c1.009 0 1.895-.245 2.659-.735a4.922 4.922 0 0 0 1.766-1.96c.412-.832.619-1.746.619-2.741 0-1.055-.336-1.894-1.009-2.518-.657-.639-1.582-.958-2.774-.958-1.009 0-1.896.245-2.66.735a4.885 4.885 0 0 0-1.765 1.983c-.413.817-.619 1.723-.619 2.718 0 1.055.328 1.902.985 2.54.673.624 1.605.936 2.798.936ZM177.421 35.186c-1.391 0-2.591-.222-3.6-.668-1.009-.46-1.781-1.114-2.316-1.96-.535-.847-.802-1.843-.802-2.986 0-.476.061-1.025.183-1.65l1.789-8.644h4.539l-1.765 8.578a6.099 6.099 0 0 0-.138 1.225c0 1.634.887 2.451 2.66 2.451.963 0 1.719-.282 2.27-.846.565-.58.986-1.523 1.261-2.83l1.765-8.578h4.471l-1.811 8.845c-.978 4.709-3.814 7.063-8.506 7.063ZM204.157 24.247c0 1.425-.389 2.658-1.169 3.698-.779 1.025-1.872 1.775-3.279 2.25l2.729 4.68h-4.746l-2.385-4.145h-2.292l-.849 4.144h-4.539l3.209-15.596h6.856c2.048 0 3.638.438 4.769 1.314 1.131.877 1.696 2.095 1.696 3.655Zm-4.585.423c0-.639-.222-1.114-.665-1.426-.443-.327-1.062-.49-1.857-.49h-2.385l-.963 4.567h2.706c1.009 0 1.788-.23 2.338-.69.551-.461.826-1.114.826-1.961ZM87.026 49.58a3.187 3.187 0 0 1-1.507-.356 2.74 2.74 0 0 1-1.053-.992 2.699 2.699 0 0 1-.374-1.41c0-.522.125-.993.374-1.411a2.684 2.684 0 0 1 1.053-.984 3.133 3.133 0 0 1 1.507-.364c.553 0 1.05.118 1.492.356.446.238.797.568 1.052.992.256.418.383.889.383 1.41 0 .522-.127.995-.383 1.419a2.683 2.683 0 0 1-1.052.984 3.094 3.094 0 0 1-1.492.356Zm0-.511c.442 0 .84-.096 1.197-.287a2.173 2.173 0 0 0 1.14-1.96c0-.424-.101-.807-.303-1.148a2.101 2.101 0 0 0-.837-.806 2.436 2.436 0 0 0-1.197-.294c-.44 0-.842.098-1.204.294a2.157 2.157 0 0 0-1.148 1.953c0 .424.1.809.303 1.155.207.341.489.61.845.806.362.191.763.287 1.204.287ZM93.387 45.426c.393 0 .75.088 1.069.264.319.17.569.413.75.728.18.316.27.675.27 1.078 0 .408-.09.77-.27 1.085-.181.315-.431.56-.75.736a2.2 2.2 0 0 1-1.069.256c-.34 0-.649-.068-.925-.202a1.768 1.768 0 0 1-.67-.604v2.27h-.566v-5.58h.542v.806c.17-.268.394-.475.67-.62.282-.144.598-.217.949-.217Zm-.04 3.658c.293 0 .558-.064.798-.193.239-.135.425-.323.558-.566.138-.243.207-.52.207-.83 0-.31-.069-.583-.207-.82a1.416 1.416 0 0 0-.558-.567 1.6 1.6 0 0 0-.798-.201c-.298 0-.566.067-.805.201-.234.135-.42.323-.559.566-.133.238-.199.512-.199.822 0 .31.066.586.2.829.138.243.324.431.558.566.239.129.507.193.805.193ZM99.66 45.946h-2.4v3.588h-.567v-4.076h2.967v.488ZM101.921 45.426c.548 0 .968.135 1.26.403.293.264.439.657.439 1.178v2.527h-.542v-.636a1.288 1.288 0 0 1-.566.496 1.993 1.993 0 0 1-.878.179c-.468 0-.84-.109-1.116-.326a1.039 1.039 0 0 1-.415-.86c0-.346.128-.625.383-.837.26-.212.672-.318 1.236-.318h1.332v-.248c0-.351-.101-.617-.303-.798-.202-.186-.497-.28-.885-.28-.266 0-.521.045-.766.133a1.882 1.882 0 0 0-.63.348l-.255-.41c.212-.176.468-.31.765-.403.298-.099.612-.148.941-.148Zm-.199 3.713c.319 0 .593-.07.821-.21.229-.144.399-.35.511-.62v-.666h-1.316c-.718 0-1.077.243-1.077.728a.67.67 0 0 0 .279.566c.187.135.447.202.782.202ZM105.127 45.458h.567v1.805h2.639v-1.805h.566v4.076h-.566v-1.798h-2.639v1.798h-.567v-4.076ZM110.509 45.458h.566v3.239l2.799-3.24h.503v4.077h-.567v-3.24l-2.791 3.24h-.51v-4.076ZM117.955 47.41c.298.068.527.184.686.35a.823.823 0 0 1 .247.604c0 .237-.085.45-.255.635-.165.186-.391.33-.678.434a2.915 2.915 0 0 1-.949.147c-.303 0-.601-.04-.893-.124a2.397 2.397 0 0 1-.766-.38l.192-.41c.191.14.415.248.67.325.255.078.513.117.773.117.388 0 .705-.07.949-.21.25-.144.375-.338.375-.58 0-.218-.101-.386-.303-.505-.202-.124-.478-.186-.829-.186h-.718v-.403h.686c.313 0 .566-.056.757-.17.192-.119.287-.276.287-.473 0-.217-.109-.387-.326-.511-.213-.124-.492-.186-.838-.186-.452 0-.898.11-1.34.333l-.159-.426a3.4 3.4 0 0 1 1.555-.38 2.5 2.5 0 0 1 .861.14c.261.087.463.214.606.38a.831.831 0 0 1 .224.573c0 .206-.075.39-.224.55-.143.16-.34.279-.59.356ZM121.617 45.426c.548 0 .968.135 1.26.403.293.264.439.657.439 1.178v2.527h-.543v-.636a1.277 1.277 0 0 1-.566.496 1.988 1.988 0 0 1-.877.179c-.468 0-.84-.109-1.116-.326a1.039 1.039 0 0 1-.415-.86c0-.346.127-.625.383-.837.26-.212.672-.318 1.236-.318h1.332v-.248c0-.351-.101-.617-.304-.798-.202-.186-.497-.28-.885-.28-.266 0-.521.045-.765.133a1.882 1.882 0 0 0-.63.348l-.256-.41c.213-.176.468-.31.766-.403.298-.099.611-.148.941-.148Zm-.199 3.713c.319 0 .593-.07.821-.21.229-.144.399-.35.511-.62v-.666h-1.316c-.718 0-1.077.243-1.077.728a.67.67 0 0 0 .279.566c.186.135.447.202.782.202ZM129.193 49.053v1.504h-.534v-1.023h-3.836v-4.076h.566v3.595h2.56v-3.595h.566v3.595h.678ZM130.275 45.458h.566v3.239l2.799-3.24h.502v4.077h-.566v-3.24l-2.791 3.24h-.51v-4.076ZM138.987 45.458v4.076h-.518v-1.349h-1.476l-.973 1.349h-.614l1.045-1.426c-.324-.088-.574-.238-.75-.45-.175-.211-.263-.48-.263-.806 0-.454.16-.8.479-1.038.319-.238.755-.356 1.308-.356h1.762Zm-2.975 1.41c0 .604.396.907 1.189.907h1.268v-1.83h-1.229c-.818 0-1.228.308-1.228.923ZM146.453 45.458v4.076h-.566v-3.588h-2.632v3.588h-.566v-4.076h3.764ZM149.793 49.573a2.26 2.26 0 0 1-1.093-.264 2.008 2.008 0 0 1-.765-.744 2.064 2.064 0 0 1-.279-1.07c0-.397.093-.754.279-1.069.186-.315.441-.56.765-.736a2.26 2.26 0 0 1 1.093-.264c.404 0 .768.088 1.092.264.325.176.577.421.758.736.186.315.279.672.279 1.07s-.093.754-.279 1.07a1.948 1.948 0 0 1-.758.743 2.253 2.253 0 0 1-1.092.264Zm0-.489c.298 0 .563-.064.797-.193.24-.135.426-.323.559-.566.133-.243.199-.52.199-.83 0-.31-.066-.586-.199-.829a1.362 1.362 0 0 0-.559-.558 1.57 1.57 0 0 0-.797-.201 1.62 1.62 0 0 0-.806.201c-.234.13-.42.316-.558.558-.133.243-.199.52-.199.83 0 .31.066.586.199.829.138.243.324.431.558.566.24.129.508.193.806.193ZM155.608 49.534l-1.332-1.705-1.34 1.705h-.638l1.659-2.093-1.579-1.983h.638l1.26 1.596 1.26-1.596h.622l-1.579 1.983 1.675 2.093h-.646ZM158.765 49.573c-.404 0-.769-.088-1.093-.264a2.018 2.018 0 0 1-.766-.744 2.064 2.064 0 0 1-.279-1.07c0-.397.093-.754.279-1.069a1.96 1.96 0 0 1 .766-.736 2.257 2.257 0 0 1 1.093-.264c.404 0 .768.088 1.092.264a1.9 1.9 0 0 1 .758.736c.186.315.279.672.279 1.07s-.093.754-.279 1.07a1.955 1.955 0 0 1-.758.743 2.253 2.253 0 0 1-1.092.264Zm0-.489c.297 0 .563-.064.797-.193.239-.135.425-.323.558-.566.133-.243.2-.52.2-.83 0-.31-.067-.586-.2-.829a1.366 1.366 0 0 0-.558-.558 1.573 1.573 0 0 0-.797-.201c-.298 0-.567.067-.806.201-.234.13-.42.316-.558.558-.133.243-.199.52-.199.83 0 .31.066.586.199.829.138.243.324.431.558.566.239.129.508.193.806.193ZM166.172 49.053v1.465h-.535v-.984h-3.756v.984h-.534v-1.465h.239c.282-.015.473-.217.574-.604.101-.388.171-.93.208-1.628l.056-1.363h3.094v3.595h.654Zm-3.286-2.2a9.974 9.974 0 0 1-.151 1.433c-.075.372-.208.628-.399.767h2.616v-3.107h-2.018l-.048.906ZM169.006 49.573a2.26 2.26 0 0 1-1.093-.264 2.008 2.008 0 0 1-.765-.744 2.065 2.065 0 0 1-.28-1.07c0-.397.094-.754.28-1.069.186-.315.441-.56.765-.736a2.26 2.26 0 0 1 1.093-.264c.404 0 .768.088 1.092.264.325.176.577.421.758.736.186.315.279.672.279 1.07s-.093.754-.279 1.07a1.948 1.948 0 0 1-.758.743 2.253 2.253 0 0 1-1.092.264Zm0-.489c.297 0 .563-.064.797-.193a1.41 1.41 0 0 0 .558-.566c.133-.243.2-.52.2-.83 0-.31-.067-.586-.2-.829a1.36 1.36 0 0 0-.558-.558 1.573 1.573 0 0 0-.797-.201 1.62 1.62 0 0 0-.806.201c-.234.13-.42.316-.558.558-.133.243-.199.52-.199.83 0 .31.066.586.199.829.138.243.324.431.558.566.24.129.508.193.806.193ZM175.017 47.426c.569.13.853.462.853 1 0 .356-.136.63-.407.821-.271.191-.675.287-1.212.287h-1.906v-4.076h1.85c.479 0 .854.09 1.125.27.271.181.407.44.407.776a.89.89 0 0 1-.192.573 1.097 1.097 0 0 1-.518.349Zm-2.122-.155h1.26c.325 0 .572-.06.742-.178a.587.587 0 0 0 .263-.52c0-.227-.087-.397-.263-.511-.17-.114-.417-.17-.742-.17h-1.26v1.379Zm1.332 1.829c.362 0 .633-.057.814-.17.18-.114.271-.292.271-.535 0-.243-.083-.421-.247-.535-.165-.119-.426-.178-.782-.178h-1.388V49.1h1.332ZM181.956 47.426c.569.13.853.462.853 1 0 .356-.135.63-.407.821-.271.191-.675.287-1.212.287h-1.906v-4.076h1.85c.479 0 .854.09 1.125.27.271.181.407.44.407.776a.89.89 0 0 1-.192.573 1.097 1.097 0 0 1-.518.349Zm-2.121-.155h1.26c.324 0 .571-.06.741-.178a.587.587 0 0 0 .263-.52c0-.227-.087-.397-.263-.511-.17-.114-.417-.17-.741-.17h-1.26v1.379Zm1.331 1.829c.362 0 .633-.057.814-.17.181-.114.271-.292.271-.535 0-.243-.083-.421-.247-.535-.165-.119-.426-.178-.782-.178h-1.387V49.1h1.331ZM189.19 45.946h-2.4v3.588h-.567v-4.076h2.967v.488ZM191.544 49.573c-.404 0-.768-.088-1.092-.264a2.003 2.003 0 0 1-.766-.744 2.064 2.064 0 0 1-.279-1.07c0-.397.093-.754.279-1.069.186-.315.441-.56.766-.736a2.253 2.253 0 0 1 1.092-.264c.404 0 .768.088 1.093.264.324.176.577.421.757.736.186.315.279.672.279 1.07s-.093.754-.279 1.07c-.18.314-.433.562-.757.743a2.26 2.26 0 0 1-1.093.264Zm0-.489c.298 0 .564-.064.798-.193.239-.135.425-.323.558-.566.133-.243.199-.52.199-.83 0-.31-.066-.586-.199-.829a1.366 1.366 0 0 0-.558-.558 1.574 1.574 0 0 0-.798-.201c-.298 0-.566.067-.805.201-.234.13-.42.316-.559.558-.133.243-.199.52-.199.83 0 .31.066.586.199.829.139.243.325.431.559.566.239.129.507.193.805.193ZM197.045 45.426c.393 0 .749.088 1.068.264.319.17.569.413.75.728.181.316.271.675.271 1.078 0 .408-.09.77-.271 1.085-.181.315-.431.56-.75.736-.313.17-.67.256-1.068.256-.341 0-.649-.068-.925-.202a1.758 1.758 0 0 1-.67-.604v2.27h-.566v-5.58h.542v.806c.17-.268.393-.475.67-.62.281-.144.598-.217.949-.217Zm-.04 3.658c.292 0 .558-.064.797-.193.24-.135.426-.323.559-.566.138-.243.207-.52.207-.83 0-.31-.069-.583-.207-.82a1.413 1.413 0 0 0-.559-.567 1.6 1.6 0 0 0-.797-.201 1.62 1.62 0 0 0-.806.201c-.234.135-.42.323-.558.566a1.653 1.653 0 0 0-.199.822c0 .31.066.586.199.829.138.243.324.431.558.566.24.129.508.193.806.193ZM202.113 46.899c.526.005.928.119 1.204.34.277.223.415.543.415.962 0 .434-.149.767-.447 1-.297.232-.723.346-1.276.34l-1.658-.007v-4.076h.566v1.425l1.196.016Zm2.321-1.441H205v4.076h-.566v-4.076Zm-2.456 3.665c.388.005.68-.07.877-.225.202-.16.303-.392.303-.697 0-.3-.099-.522-.295-.667-.197-.144-.492-.22-.885-.224l-1.061-.016v1.814l1.061.015Z"/></g><defs><clipPath id="a"><path fill="#fff" d="M0 0h205v60H0z"/></clipPath></defs></svg>