<svg width="144" height="44" fill="none" xmlns="http://www.w3.org/2000/svg"><g clip-path="url(#a)" fill="#fff"><path d="m15.953 28.542 3.821-4.07 4.347 4.07h7.45L19.727 16.766 7.976 28.543h7.977Z"/><path d="m26.891 9.643-5.636 5.815 3.726 3.877 1.91-1.939 10.46 10.564C34.964 34.405 28.85 39.01 21.638 39.01 12.371 39.009 4.872 31.4 4.872 22c.048-9.4 7.547-17.009 16.813-17.009 8.215 0 15.093 6.058 16.479 13.956l5.063 5.427c.095-.775.143-1.599.143-2.374 0-5.863-2.245-11.388-6.353-15.555S27.464 0 21.685 0C15.858 0 10.46 2.278 6.353 6.445 2.245 10.612 0 16.088 0 22c0 5.912 2.245 11.388 6.353 15.555C10.46 41.722 15.905 44 21.685 44c5.78 0 11.225-2.278 15.332-6.445 2.532-2.568 4.347-5.621 5.35-8.965.19-.581.334-1.211.477-1.793l-4.394-4.7L26.891 9.643ZM61.262 14.137h3.19l-1.74 8.872h5.379l-.515 2.566h-8.568l2.254-11.438ZM71.092 14.137h3.19l-2.256 11.438h-3.188l2.254-11.438ZM79.24 16.637l-.5 2.516h4.977l-.5 2.5h-4.96l-.773 3.922h-3.189l2.255-11.438h8.826l-.5 2.5H79.24ZM89.524 16.637l-.37 1.928h5.009l-.467 2.418H88.67l-.403 2.092h5.91l-.515 2.5h-9.035l2.255-11.438h8.826l-.5 2.5h-5.685ZM99.588 16.702h-3.462l.515-2.565h10.098l-.515 2.565h-3.447l-1.755 8.873h-3.19l1.756-8.873ZM111.603 25.803c-1.138 0-2.132-.212-2.98-.637-.837-.425-1.487-1.018-1.948-1.78-.451-.763-.677-1.635-.677-2.615 0-1.307.295-2.484.886-3.53a6.397 6.397 0 0 1 2.496-2.45c1.074-.589 2.293-.883 3.656-.883 1.138 0 2.126.213 2.964.638.848.424 1.497 1.018 1.948 1.78.462.763.693 1.634.693 2.615 0 1.307-.301 2.483-.902 3.53a6.266 6.266 0 0 1-2.496 2.45c-1.063.588-2.277.882-3.64.882Zm.274-2.68c.708 0 1.331-.179 1.868-.539.537-.359.95-.838 1.24-1.437.29-.61.435-1.28.435-2.01 0-.774-.236-1.389-.709-1.846-.462-.469-1.111-.703-1.949-.703-.708 0-1.331.18-1.868.54-.537.359-.95.843-1.24 1.453-.29.6-.435 1.264-.435 1.994 0 .773.231 1.394.693 1.862.472.458 1.127.687 1.965.687ZM124.627 25.803c-.977 0-1.82-.163-2.528-.49-.709-.337-1.251-.817-1.627-1.438-.376-.62-.564-1.35-.564-2.19 0-.348.043-.75.129-1.208l1.256-6.34h3.189l-1.24 6.29a4.705 4.705 0 0 0-.096.9c0 1.198.622 1.797 1.868 1.797.676 0 1.208-.207 1.594-.621.397-.425.693-1.117.886-2.075l1.24-6.29h3.141l-1.273 6.486c-.687 3.453-2.679 5.18-5.975 5.18ZM143.408 17.78c0 1.046-.274 1.95-.821 2.713-.548.752-1.315 1.302-2.303 1.65l1.916 3.432h-3.334l-1.675-3.04h-1.61l-.596 3.04h-3.189l2.255-11.438h4.815c1.439 0 2.556.321 3.35.964.795.643 1.192 1.536 1.192 2.68Zm-3.221.311c0-.468-.156-.817-.467-1.046-.311-.24-.746-.359-1.305-.359h-1.674l-.677 3.35h1.901c.708 0 1.256-.17 1.642-.507.387-.338.58-.817.58-1.438ZM61.13 36.359c-.388 0-.74-.087-1.058-.262a1.962 1.962 0 0 1-.74-.727 2.046 2.046 0 0 1-.263-1.034c0-.383.088-.728.264-1.035.179-.306.425-.547.739-.721.317-.178.67-.267 1.059-.267a2.1 2.1 0 0 1 1.047.26c.314.175.56.418.74.728.179.307.269.652.269 1.035 0 .382-.09.73-.27 1.04a1.92 1.92 0 0 1-.739.721 2.1 2.1 0 0 1-1.047.262Zm0-.375c.31 0 .59-.07.841-.21.25-.144.446-.341.588-.592.142-.253.213-.536.213-.846 0-.311-.07-.591-.213-.841a1.506 1.506 0 0 0-.588-.591 1.655 1.655 0 0 0-.84-.216c-.31 0-.592.072-.846.215-.25.14-.448.338-.594.592-.142.25-.213.53-.213.84 0 .311.071.594.213.847a1.6 1.6 0 0 0 .594.592c.254.14.536.21.846.21ZM65.599 33.313c.276 0 .526.064.75.193.224.125.4.303.527.534.127.231.19.495.19.79 0 .3-.063.565-.19.796a1.372 1.372 0 0 1-.527.54c-.22.125-.47.187-.75.187-.24 0-.456-.049-.65-.148a1.261 1.261 0 0 1-.47-.443v1.665h-.398v-4.091h.38v.59c.12-.197.277-.348.471-.454.198-.106.42-.16.667-.16Zm-.028 2.682c.205 0 .392-.047.56-.142.168-.098.299-.237.392-.415a1.25 1.25 0 0 0 .146-.608c0-.227-.049-.428-.146-.602a1.018 1.018 0 0 0-.392-.415 1.088 1.088 0 0 0-.56-.148c-.21 0-.398.05-.566.148a1.069 1.069 0 0 0-.392.415c-.094.174-.14.375-.14.602 0 .227.046.43.14.608.097.178.228.317.392.415.168.095.357.142.566.142ZM70.005 33.694h-1.686v2.63h-.398v-2.988h2.084v.358ZM71.594 33.313c.384 0 .68.098.885.295.205.194.308.481.308.864v1.853h-.381v-.466a.914.914 0 0 1-.398.364c-.172.087-.377.13-.616.13-.329 0-.59-.08-.784-.238a.775.775 0 0 1-.292-.631c0-.254.09-.459.27-.614.182-.155.472-.233.868-.233h.935v-.182c0-.258-.071-.453-.213-.585-.142-.137-.349-.205-.622-.205a1.52 1.52 0 0 0-.538.097c-.171.06-.319.146-.442.255l-.18-.3c.15-.13.33-.228.538-.296.21-.072.43-.108.662-.108Zm-.14 2.722c.224 0 .416-.051.577-.153a.947.947 0 0 0 .358-.455v-.489h-.924c-.505 0-.757.178-.757.534 0 .175.066.313.197.415.13.099.313.148.549.148ZM73.846 33.336h.397v1.324h1.855v-1.324h.397v2.989h-.398v-1.319h-1.854v1.319h-.397v-2.99ZM77.626 33.336h.397v2.375l1.967-2.375h.353v2.989h-.398v-2.376l-1.96 2.376h-.36v-2.99ZM82.856 34.768c.21.049.37.134.482.255a.618.618 0 0 1 .174.444c0 .174-.06.33-.18.466a1.13 1.13 0 0 1-.476.318 1.97 1.97 0 0 1-.666.108c-.213 0-.422-.03-.628-.091a1.653 1.653 0 0 1-.537-.279l.134-.3c.134.102.291.181.47.238.18.057.36.085.544.085.272 0 .495-.05.666-.153.176-.106.264-.248.264-.426 0-.16-.071-.283-.213-.37-.142-.09-.336-.136-.583-.136h-.504v-.296h.482c.22 0 .398-.041.532-.125.135-.087.202-.203.202-.346 0-.16-.077-.285-.23-.376-.15-.09-.345-.136-.588-.136-.317 0-.631.081-.941.244l-.112-.312a2.308 2.308 0 0 1 1.092-.279c.224 0 .426.035.605.103a.948.948 0 0 1 .426.278.625.625 0 0 1 .157.42.59.59 0 0 1-.157.404.893.893 0 0 1-.415.262ZM85.429 33.313c.384 0 .68.098.885.295.205.194.308.481.308.864v1.853h-.381v-.466a.914.914 0 0 1-.398.364c-.172.087-.377.13-.616.13-.329 0-.59-.08-.784-.238a.775.775 0 0 1-.292-.631c0-.254.09-.459.27-.614.182-.155.472-.233.868-.233h.935v-.182c0-.258-.07-.453-.213-.585-.142-.137-.349-.205-.622-.205a1.52 1.52 0 0 0-.537.097c-.172.06-.32.146-.443.255l-.18-.3c.15-.13.33-.228.539-.296.209-.072.43-.108.66-.108Zm-.14 2.722c.224 0 .416-.051.576-.153a.948.948 0 0 0 .36-.455v-.489H85.3c-.504 0-.757.178-.757.534 0 .175.066.313.197.415.13.099.313.148.549.148ZM90.75 35.972v1.103h-.375v-.75h-2.694v-2.99h.397v2.637h1.798v-2.636h.398v2.636h.476ZM91.51 33.336h.398v2.375l1.966-2.375h.353v2.989h-.398v-2.376l-1.96 2.376h-.359v-2.99ZM97.63 33.336v2.989h-.364v-.989h-1.037l-.683.989h-.431l.734-1.046a.993.993 0 0 1-.527-.33.922.922 0 0 1-.185-.59c0-.334.112-.588.336-.762.224-.174.53-.261.919-.261h1.238Zm-2.09 1.034c0 .443.279.665.835.665h.89v-1.341h-.862c-.575 0-.863.225-.863.676ZM102.874 33.336v2.989h-.398v-2.632h-1.848v2.632h-.398v-2.99h2.644ZM105.22 36.353c-.283 0-.539-.064-.767-.193a1.441 1.441 0 0 1-.538-.546 1.562 1.562 0 0 1-.196-.784c0-.292.065-.553.196-.784a1.4 1.4 0 0 1 .538-.54c.228-.129.484-.193.767-.193.284 0 .54.064.768.193.228.129.405.309.532.54.131.231.196.492.196.784 0 .292-.065.553-.196.784a1.398 1.398 0 0 1-.532.546 1.533 1.533 0 0 1-.768.193Zm0-.358a1.022 1.022 0 0 0 .953-.557c.093-.178.14-.38.14-.608 0-.227-.047-.43-.14-.608a.984.984 0 0 0-.392-.41 1.073 1.073 0 0 0-.561-.147c-.209 0-.397.05-.565.148a1.03 1.03 0 0 0-.393.41c-.093.177-.14.38-.14.607 0 .227.047.43.14.608.098.178.228.317.393.415.168.095.356.142.565.142ZM109.305 36.325l-.935-1.25-.941 1.25h-.449l1.166-1.535-1.11-1.454h.449l.885 1.17.885-1.17h.437l-1.109 1.454 1.176 1.535h-.454ZM111.522 36.353c-.283 0-.539-.064-.767-.193a1.441 1.441 0 0 1-.538-.546 1.562 1.562 0 0 1-.196-.784c0-.292.065-.553.196-.784a1.4 1.4 0 0 1 .538-.54c.228-.129.484-.193.767-.193.284 0 .54.064.768.193.228.129.405.309.532.54.131.231.196.492.196.784 0 .292-.065.553-.196.784a1.398 1.398 0 0 1-.532.546 1.533 1.533 0 0 1-.768.193Zm0-.358a1.022 1.022 0 0 0 .953-.557c.093-.178.14-.38.14-.608 0-.227-.047-.43-.14-.608a.984.984 0 0 0-.392-.41 1.07 1.07 0 0 0-.561-.147c-.209 0-.397.05-.565.148a1.022 1.022 0 0 0-.392.41c-.094.177-.141.38-.141.607 0 .227.047.43.141.608.097.178.227.317.392.415.168.095.356.142.565.142ZM116.726 35.972v1.075h-.376v-.722h-2.638v.722h-.376v-1.075h.168c.198-.01.333-.159.404-.443.071-.284.119-.682.145-1.193l.04-1h2.173v2.636h.46Zm-2.308-1.614a7.72 7.72 0 0 1-.107 1.052c-.052.273-.146.46-.28.563h1.837v-2.28h-1.417l-.033.665ZM118.716 36.353a1.53 1.53 0 0 1-.767-.193 1.441 1.441 0 0 1-.538-.546 1.562 1.562 0 0 1-.196-.784c0-.292.065-.553.196-.784a1.4 1.4 0 0 1 .538-.54 1.53 1.53 0 0 1 .767-.193c.284 0 .54.064.768.193.228.129.405.309.532.54.131.231.196.492.196.784 0 .292-.065.553-.196.784a1.398 1.398 0 0 1-.532.546 1.533 1.533 0 0 1-.768.193Zm0-.358a1.1 1.1 0 0 0 .56-.142c.168-.098.299-.237.393-.415.093-.178.14-.38.14-.608 0-.227-.047-.43-.14-.608a1.067 1.067 0 0 0-.953-.557c-.209 0-.398.05-.566.148a1.029 1.029 0 0 0-.392.41c-.093.177-.14.38-.14.607 0 .227.047.43.14.608.097.178.228.317.392.415.168.095.357.142.566.142ZM122.939 34.779c.399.095.599.34.599.733 0 .262-.095.462-.286.603-.19.14-.474.21-.851.21h-1.339v-2.99h1.3c.336 0 .599.067.789.2a.65.65 0 0 1 .286.568.677.677 0 0 1-.134.42.776.776 0 0 1-.364.256Zm-1.49-.114h.885c.227 0 .401-.043.521-.13a.437.437 0 0 0 .184-.381c0-.167-.061-.292-.184-.375-.12-.084-.294-.125-.521-.125h-.885v1.011Zm.935 1.342c.254 0 .444-.042.571-.125.127-.084.191-.215.191-.393 0-.178-.058-.308-.174-.392-.116-.087-.299-.13-.549-.13h-.974v1.04h.935ZM127.813 34.779c.399.095.599.34.599.733 0 .262-.095.462-.285.603-.191.14-.475.21-.852.21h-1.339v-2.99h1.3c.336 0 .599.067.79.2.19.132.285.321.285.568a.67.67 0 0 1-.134.42.77.77 0 0 1-.364.256Zm-1.49-.114h.885c.228 0 .401-.043.521-.13a.438.438 0 0 0 .185-.381.423.423 0 0 0-.185-.375c-.12-.084-.293-.125-.521-.125h-.885v1.011Zm.935 1.342c.254 0 .445-.042.572-.125.127-.084.19-.215.19-.393 0-.178-.058-.308-.174-.392-.115-.087-.298-.13-.549-.13h-.974v1.04h.935ZM132.894 33.694h-1.686v2.63h-.397v-2.988h2.083v.358ZM134.548 36.353c-.284 0-.54-.064-.767-.193a1.441 1.441 0 0 1-.538-.546 1.562 1.562 0 0 1-.196-.784c0-.292.065-.553.196-.784a1.4 1.4 0 0 1 .538-.54c.227-.129.483-.193.767-.193.284 0 .54.064.768.193.227.129.405.309.532.54.13.231.196.492.196.784 0 .292-.066.553-.196.784a1.405 1.405 0 0 1-.532.546 1.533 1.533 0 0 1-.768.193Zm0-.358a1.1 1.1 0 0 0 .56-.142c.168-.098.299-.237.392-.415.094-.178.14-.38.14-.608 0-.227-.046-.43-.14-.608a.978.978 0 0 0-.392-.41 1.067 1.067 0 0 0-.56-.147c-.209 0-.398.05-.566.148a1.029 1.029 0 0 0-.392.41c-.093.177-.14.38-.14.607 0 .227.047.43.14.608.097.178.228.317.392.415.168.095.357.142.566.142ZM138.412 33.313c.276 0 .526.064.751.193.224.125.399.303.526.534.127.231.191.495.191.79 0 .3-.064.565-.191.796a1.37 1.37 0 0 1-.526.54 1.497 1.497 0 0 1-.751.187c-.239 0-.456-.049-.65-.148a1.262 1.262 0 0 1-.47-.443v1.665h-.398v-4.091h.381v.59c.119-.197.276-.348.47-.454.198-.106.42-.16.667-.16Zm-.028 2.682c.205 0 .392-.047.56-.142.168-.098.299-.237.392-.415a1.25 1.25 0 0 0 .146-.608c0-.227-.049-.428-.146-.602a1.015 1.015 0 0 0-.392-.415 1.088 1.088 0 0 0-.56-.148c-.209 0-.398.05-.566.148a1.07 1.07 0 0 0-.392.415 1.26 1.26 0 0 0-.14.602c0 .227.047.43.14.608.097.178.228.317.392.415.168.095.357.142.566.142ZM141.972 34.393c.37.003.652.087.846.25.194.163.291.397.291.704 0 .319-.104.563-.313.733-.21.171-.508.254-.897.25l-1.165-.005v-2.99h.398v1.046l.84.012Zm1.63-1.057H144v2.989h-.398v-2.99Zm-1.725 2.688c.273.003.478-.052.616-.165.142-.118.213-.288.213-.512 0-.22-.069-.382-.207-.488-.138-.107-.346-.161-.622-.165l-.745-.012v1.33l.745.012Z"/></g><defs><clipPath id="a"><path fill="#fff" d="M0 0h144v44H0z"/></clipPath></defs></svg>