<svg width="205" height="62" fill="none" xmlns="http://www.w3.org/2000/svg"><g clip-path="url(#a)" fill="#fff"><path d="m22.71 40.218 5.44-5.736 6.189 5.736h10.607L28.083 23.625 11.355 40.218h11.356Z"/><path d="m38.283 13.588-8.024 8.194 5.304 5.462 2.72-2.73 14.891 14.885c-3.4 9.081-12.103 15.568-22.371 15.568C17.61 54.967 6.936 44.247 6.936 31 7.004 17.753 17.679 7.033 30.87 7.033c11.695 0 21.487 8.535 23.46 19.665l7.207 7.648c.136-1.093.204-2.253.204-3.346 0-8.262-3.196-16.046-9.044-21.919C46.85 3.21 39.098 0 30.871 0 22.575 0 14.89 3.21 9.044 9.082 3.196 14.954 0 22.67 0 31s3.196 16.046 9.044 21.919C14.892 58.79 22.644 62 30.87 62c8.228 0 15.98-3.21 21.827-9.081 3.604-3.62 6.188-7.921 7.616-12.633.272-.819.476-1.707.68-2.526l-6.256-6.623-16.455-17.549ZM87.214 19.92h4.54l-2.477 12.502h7.658l-.734 3.615H84.004l3.21-16.117ZM101.208 19.92h4.539l-3.209 16.117h-4.54l3.21-16.117ZM112.806 23.443l-.711 3.546h7.085l-.711 3.522h-7.061l-1.101 5.526h-4.54l3.21-16.117h12.565l-.711 3.523h-8.025ZM127.448 23.443l-.527 2.717h7.13l-.665 3.407h-7.153l-.574 2.947h8.415l-.734 3.523h-12.862l3.21-16.117h12.564l-.711 3.523h-8.093ZM141.775 23.535h-4.93l.734-3.615h14.376l-.734 3.615h-4.906l-2.5 12.502h-4.539l2.499-12.502ZM158.879 36.36c-1.62 0-3.034-.3-4.242-.899-1.192-.598-2.117-1.435-2.774-2.51-.642-1.074-.963-2.302-.963-3.683 0-1.842.42-3.5 1.261-4.973a9.068 9.068 0 0 1 3.554-3.454c1.528-.829 3.263-1.243 5.204-1.243 1.621 0 3.027.3 4.219.898 1.208.599 2.132 1.435 2.774 2.51.658 1.074.986 2.302.986 3.683 0 1.842-.428 3.5-1.284 4.973-.84 1.474-2.025 2.625-3.553 3.454-1.514.829-3.241 1.243-5.182 1.243Zm.39-3.777c1.009 0 1.895-.253 2.659-.76a5.033 5.033 0 0 0 1.766-2.026c.412-.859.619-1.803.619-2.831 0-1.09-.336-1.957-1.009-2.602-.657-.66-1.582-.99-2.774-.99-1.009 0-1.896.253-2.66.76a4.997 4.997 0 0 0-1.765 2.049c-.413.844-.619 1.78-.619 2.809 0 1.09.328 1.964.985 2.624.673.645 1.605.967 2.798.967ZM177.421 36.36c-1.391 0-2.591-.231-3.6-.691-1.009-.476-1.781-1.152-2.316-2.026-.535-.875-.802-1.904-.802-3.086 0-.49.061-1.059.183-1.703l1.789-8.934h4.539l-1.765 8.864c-.092.461-.138.883-.138 1.267 0 1.688.887 2.532 2.66 2.532.963 0 1.719-.291 2.27-.874.565-.6.986-1.574 1.261-2.924l1.765-8.865h4.471l-1.811 9.14c-.978 4.866-3.814 7.3-8.506 7.3ZM204.157 25.055c0 1.473-.389 2.747-1.169 3.822-.779 1.059-1.872 1.834-3.279 2.325l2.729 4.835h-4.746l-2.385-4.282h-2.292l-.849 4.282h-4.539l3.209-16.117h6.856c2.048 0 3.638.453 4.769 1.359 1.131.905 1.696 2.164 1.696 3.776Zm-4.585.437c0-.66-.222-1.151-.665-1.473-.443-.338-1.062-.507-1.857-.507h-2.385l-.963 4.72h2.706c1.009 0 1.788-.238 2.338-.714.551-.476.826-1.151.826-2.026ZM87.026 51.233a3.105 3.105 0 0 1-1.507-.368 2.78 2.78 0 0 1-1.053-1.025 2.86 2.86 0 0 1-.374-1.458c0-.54.125-1.025.374-1.457a2.721 2.721 0 0 1 1.053-1.017c.452-.251.954-.377 1.507-.377.553 0 1.05.123 1.492.369.446.245.797.587 1.052 1.025.256.432.383.918.383 1.457 0 .54-.127 1.028-.383 1.466a2.722 2.722 0 0 1-1.052 1.017 3.014 3.014 0 0 1-1.492.368Zm0-.528c.442 0 .84-.1 1.197-.297.356-.203.635-.48.837-.833.202-.357.303-.755.303-1.193a2.34 2.34 0 0 0-.303-1.185 2.134 2.134 0 0 0-.837-.833 2.374 2.374 0 0 0-1.197-.304c-.44 0-.842.101-1.204.304a2.189 2.189 0 0 0-.845.833 2.34 2.34 0 0 0-.303 1.185c0 .438.1.836.303 1.193.207.353.489.63.845.833.362.198.763.297 1.204.297ZM93.387 46.94c.393 0 .75.091 1.069.273.319.176.569.427.75.753.18.325.27.696.27 1.113 0 .422-.09.795-.27 1.121-.181.326-.431.58-.75.76-.314.177-.67.265-1.069.265-.34 0-.649-.07-.925-.208a1.789 1.789 0 0 1-.67-.625v2.347h-.566v-5.766h.542v.833c.17-.278.394-.492.67-.641.282-.15.598-.224.949-.224Zm-.04 3.78c.293 0 .558-.066.798-.2a1.44 1.44 0 0 0 .558-.584c.138-.251.207-.537.207-.857 0-.32-.069-.603-.207-.849a1.44 1.44 0 0 0-.558-.585 1.56 1.56 0 0 0-.798-.208c-.298 0-.566.07-.805.208-.234.14-.42.334-.559.585-.133.246-.199.529-.199.849 0 .32.066.606.2.857.138.25.324.446.558.584.239.134.507.2.805.2ZM99.66 47.477h-2.4v3.708h-.567v-4.212h2.967v.504ZM101.921 46.94c.548 0 .968.14 1.26.417.293.272.439.678.439 1.217v2.611h-.542v-.657c-.128.22-.317.39-.566.513a1.938 1.938 0 0 1-.878.184c-.468 0-.84-.112-1.116-.336a1.087 1.087 0 0 1-.415-.89c0-.357.128-.645.383-.864.26-.219.672-.328 1.236-.328h1.332v-.257c0-.363-.101-.638-.303-.825-.202-.192-.497-.288-.885-.288-.266 0-.521.046-.766.136a1.865 1.865 0 0 0-.63.36l-.255-.424c.212-.181.468-.32.765-.416.298-.102.612-.152.941-.152Zm-.199 3.837c.319 0 .593-.072.821-.217.229-.15.399-.363.511-.64v-.689h-1.316c-.718 0-1.077.25-1.077.753a.7.7 0 0 0 .279.584c.187.14.447.209.782.209ZM105.127 46.973h.567v1.866h2.639v-1.866h.566v4.212h-.566v-1.858h-2.639v1.858h-.567v-4.212ZM110.509 46.973h.566v3.347l2.799-3.347h.503v4.212h-.567v-3.347l-2.791 3.347h-.51v-4.212ZM117.955 48.99c.298.07.527.19.686.361.165.171.247.38.247.625a.964.964 0 0 1-.255.657 1.613 1.613 0 0 1-.678.448 2.828 2.828 0 0 1-.949.152c-.303 0-.601-.043-.893-.128a2.367 2.367 0 0 1-.766-.392l.192-.425c.191.144.415.256.67.336.255.08.513.12.773.12.388 0 .705-.072.949-.216.25-.15.375-.35.375-.6a.578.578 0 0 0-.303-.52c-.202-.129-.478-.193-.829-.193h-.718v-.416h.686c.313 0 .566-.06.757-.177.192-.122.287-.285.287-.488 0-.224-.109-.4-.326-.529-.213-.128-.492-.192-.838-.192-.452 0-.898.115-1.34.345l-.159-.44a3.312 3.312 0 0 1 1.555-.393c.319 0 .606.048.861.144.261.09.463.221.606.392.149.171.224.369.224.593a.826.826 0 0 1-.224.568 1.27 1.27 0 0 1-.59.369ZM121.617 46.94c.548 0 .968.14 1.26.417.293.272.439.678.439 1.217v2.611h-.543v-.657c-.127.22-.316.39-.566.513a1.933 1.933 0 0 1-.877.184c-.468 0-.84-.112-1.116-.336a1.087 1.087 0 0 1-.415-.89c0-.357.127-.645.383-.864.26-.219.672-.328 1.236-.328h1.332v-.257c0-.363-.101-.638-.304-.825-.202-.192-.497-.288-.885-.288-.266 0-.521.046-.765.136a1.865 1.865 0 0 0-.63.36l-.256-.424a2.21 2.21 0 0 1 .766-.416c.298-.102.611-.152.941-.152Zm-.199 3.837c.319 0 .593-.072.821-.217.229-.15.399-.363.511-.64v-.689h-1.316c-.718 0-1.077.25-1.077.753a.7.7 0 0 0 .279.584c.186.14.447.209.782.209ZM129.193 50.688v1.554h-.534v-1.057h-3.836v-4.212h.566v3.715h2.56v-3.715h.566v3.715h.678ZM130.275 46.973h.566v3.347l2.799-3.347h.502v4.212h-.566v-3.347l-2.791 3.347h-.51v-4.212ZM138.987 46.973v4.212h-.518v-1.393h-1.476l-.973 1.393h-.614l1.045-1.474c-.324-.09-.574-.245-.75-.464-.175-.219-.263-.496-.263-.833 0-.47.16-.827.479-1.073.319-.245.755-.368 1.308-.368h1.762Zm-2.975 1.457c0 .625.396.937 1.189.937h1.268v-1.89h-1.229c-.818 0-1.228.318-1.228.953ZM146.453 46.973v4.212h-.566v-3.708h-2.632v3.708h-.566v-4.212h3.764ZM149.793 51.225c-.404 0-.768-.09-1.093-.272a2.04 2.04 0 0 1-.765-.769 2.188 2.188 0 0 1-.279-1.105c0-.411.093-.78.279-1.105.186-.326.441-.58.765-.761a2.201 2.201 0 0 1 1.093-.272c.404 0 .768.09 1.092.272.325.181.577.435.758.76.186.326.279.695.279 1.106 0 .41-.093.78-.279 1.105a1.98 1.98 0 0 1-.758.769 2.196 2.196 0 0 1-1.092.272Zm0-.505c.298 0 .563-.066.797-.2.24-.139.426-.333.559-.584.133-.251.199-.537.199-.857 0-.32-.066-.606-.199-.857a1.386 1.386 0 0 0-.559-.577 1.53 1.53 0 0 0-.797-.208c-.298 0-.566.07-.806.208-.234.134-.42.326-.558.577-.133.25-.199.536-.199.857 0 .32.066.606.199.857.138.25.324.446.558.584.24.134.508.2.806.2ZM155.608 51.185l-1.332-1.762-1.34 1.762h-.638l1.659-2.162-1.579-2.05h.638l1.26 1.65 1.26-1.65h.622l-1.579 2.05 1.675 2.162h-.646ZM158.765 51.225a2.2 2.2 0 0 1-1.093-.272 2.05 2.05 0 0 1-.766-.769 2.188 2.188 0 0 1-.279-1.105c0-.411.093-.78.279-1.105.187-.326.442-.58.766-.761a2.198 2.198 0 0 1 1.093-.272c.404 0 .768.09 1.092.272.324.181.577.435.758.76.186.326.279.695.279 1.106 0 .41-.093.78-.279 1.105a1.987 1.987 0 0 1-.758.769 2.196 2.196 0 0 1-1.092.272Zm0-.505c.297 0 .563-.066.797-.2.239-.139.425-.333.558-.584.133-.251.2-.537.2-.857 0-.32-.067-.606-.2-.857a1.39 1.39 0 0 0-.558-.577 1.533 1.533 0 0 0-.797-.208c-.298 0-.567.07-.806.208-.234.134-.42.326-.558.577-.133.25-.199.536-.199.857 0 .32.066.606.199.857.138.25.324.446.558.584.239.134.508.2.806.2ZM166.172 50.688v1.514h-.535v-1.017h-3.756v1.017h-.534v-1.514h.239c.282-.016.473-.224.574-.624.101-.4.171-.961.208-1.682l.056-1.41h3.094v3.716h.654Zm-3.286-2.274a10.636 10.636 0 0 1-.151 1.482c-.075.384-.208.648-.399.792h2.616v-3.21h-2.018l-.048.936ZM169.006 51.225c-.404 0-.768-.09-1.093-.272a2.04 2.04 0 0 1-.765-.769 2.19 2.19 0 0 1-.28-1.105c0-.411.094-.78.28-1.105.186-.326.441-.58.765-.761a2.201 2.201 0 0 1 1.093-.272c.404 0 .768.09 1.092.272.325.181.577.435.758.76.186.326.279.695.279 1.106 0 .41-.093.78-.279 1.105a1.98 1.98 0 0 1-.758.769 2.196 2.196 0 0 1-1.092.272Zm0-.505c.297 0 .563-.066.797-.2.239-.139.426-.333.558-.584.133-.251.2-.537.2-.857 0-.32-.067-.606-.2-.857a1.383 1.383 0 0 0-.558-.577 1.533 1.533 0 0 0-.797-.208c-.298 0-.566.07-.806.208-.234.134-.42.326-.558.577-.133.25-.199.536-.199.857 0 .32.066.606.199.857.138.25.324.446.558.584.24.134.508.2.806.2ZM175.017 49.007c.569.133.853.478.853 1.033 0 .368-.136.651-.407.849-.271.197-.675.296-1.212.296h-1.906v-4.212h1.85c.479 0 .854.093 1.125.28.271.187.407.454.407.8a.94.94 0 0 1-.192.593c-.122.16-.295.28-.518.36Zm-2.122-.16h1.26c.325 0 .572-.062.742-.185.176-.122.263-.301.263-.536 0-.235-.087-.411-.263-.529-.17-.117-.417-.176-.742-.176h-1.26v1.426Zm1.332 1.89c.362 0 .633-.06.814-.177.18-.117.271-.301.271-.552 0-.251-.083-.435-.247-.553-.165-.122-.426-.184-.782-.184h-1.388v1.466h1.332ZM181.956 49.007c.569.133.853.478.853 1.033 0 .368-.135.651-.407.849-.271.197-.675.296-1.212.296h-1.906v-4.212h1.85c.479 0 .854.093 1.125.28.271.187.407.454.407.8a.94.94 0 0 1-.192.593c-.122.16-.295.28-.518.36Zm-2.121-.16h1.26c.324 0 .571-.062.741-.185.176-.122.263-.301.263-.536 0-.235-.087-.411-.263-.529-.17-.117-.417-.176-.741-.176h-1.26v1.426Zm1.331 1.89c.362 0 .633-.06.814-.177.181-.117.271-.301.271-.552 0-.251-.083-.435-.247-.553-.165-.122-.426-.184-.782-.184h-1.387v1.466h1.331ZM189.19 47.477h-2.4v3.708h-.567v-4.212h2.967v.504ZM191.544 51.225c-.404 0-.768-.09-1.092-.272a2.035 2.035 0 0 1-.766-.769 2.188 2.188 0 0 1-.279-1.105c0-.411.093-.78.279-1.105.186-.326.441-.58.766-.761a2.195 2.195 0 0 1 1.092-.272c.404 0 .768.09 1.093.272.324.181.577.435.757.76.186.326.279.695.279 1.106 0 .41-.093.78-.279 1.105-.18.326-.433.582-.757.769a2.202 2.202 0 0 1-1.093.272Zm0-.505c.298 0 .564-.066.798-.2.239-.139.425-.333.558-.584.133-.251.199-.537.199-.857 0-.32-.066-.606-.199-.857a1.39 1.39 0 0 0-.558-.577 1.534 1.534 0 0 0-.798-.208c-.298 0-.566.07-.805.208-.234.134-.42.326-.559.577-.133.25-.199.536-.199.857 0 .32.066.606.199.857.139.25.325.446.559.584.239.134.507.2.805.2ZM197.045 46.94c.393 0 .749.091 1.068.273.319.176.569.427.75.753.181.325.271.696.271 1.113 0 .422-.09.795-.271 1.121-.181.326-.431.58-.75.76-.313.177-.67.265-1.068.265-.341 0-.649-.07-.925-.208a1.779 1.779 0 0 1-.67-.625v2.347h-.566v-5.766h.542v.833a1.75 1.75 0 0 1 .67-.641 1.99 1.99 0 0 1 .949-.224Zm-.04 3.78c.292 0 .558-.066.797-.2.24-.139.426-.333.559-.584.138-.251.207-.537.207-.857 0-.32-.069-.603-.207-.849a1.438 1.438 0 0 0-.559-.585 1.559 1.559 0 0 0-.797-.208c-.298 0-.566.07-.806.208a1.51 1.51 0 0 0-.558.585 1.754 1.754 0 0 0-.199.849c0 .32.066.606.199.857.138.25.324.446.558.584.24.134.508.2.806.2ZM202.113 48.462c.526.006.928.123 1.204.353.277.23.415.56.415.993 0 .448-.149.792-.447 1.033-.297.24-.723.357-1.276.352l-1.658-.008v-4.212h.566v1.473l1.196.016Zm2.321-1.49H205v4.213h-.566v-4.212Zm-2.456 3.789c.388.005.68-.073.877-.233.202-.165.303-.405.303-.72 0-.31-.099-.54-.295-.69-.197-.149-.492-.226-.885-.231l-1.061-.016v1.874l1.061.016Z"/></g><defs><clipPath id="a"><path fill="#fff" d="M0 0h205v62H0z"/></clipPath></defs></svg>
