<svg width="112" height="34" fill="none" xmlns="http://www.w3.org/2000/svg"><g clip-path="url(#a)" fill="#fff"><path d="m12.408 22.055 2.972-3.145 3.38 3.145h5.796l-9.213-9.1-9.14 9.1h6.205Z"/><path d="m20.915 7.452-4.383 4.493 2.897 2.995 1.486-1.497 8.136 8.163c-1.857 4.98-6.612 8.537-12.222 8.537-7.207 0-13.04-5.879-13.04-13.143.037-7.264 5.87-13.143 13.077-13.143 6.39 0 11.74 4.68 12.817 10.784l3.938 4.194A15.2 15.2 0 0 0 33.732 17c0-4.53-1.746-8.8-4.94-12.02C25.595 1.76 21.361 0 16.865 0c-4.532 0-8.73 1.76-11.925 4.98C1.746 8.2 0 12.432 0 17s1.746 8.8 4.94 12.02C8.137 32.24 12.37 34 16.867 34c4.495 0 8.73-1.76 11.925-4.98 1.97-1.985 3.38-4.344 4.161-6.927.149-.45.26-.937.372-1.386l-3.418-3.632-8.99-9.623ZM47.648 10.924h2.48l-1.352 6.856h4.184l-.401 1.982h-6.664l1.753-8.838ZM55.294 10.924h2.48l-1.754 8.838h-2.48l1.754-8.838ZM61.63 12.856l-.388 1.944h3.871l-.388 1.932h-3.858l-.602 3.03h-2.48l1.754-8.838h6.864l-.388 1.932H61.63ZM69.63 12.856l-.288 1.49h3.896l-.364 1.868h-3.908l-.313 1.616h4.597l-.4 1.932h-7.028l1.754-8.838h6.864l-.388 1.932H69.63ZM77.457 12.906h-2.693l.401-1.982h7.854l-.4 1.982h-2.681l-1.366 6.856h-2.48l1.365-6.856ZM86.802 19.939c-.885 0-1.658-.164-2.317-.492a3.657 3.657 0 0 1-1.516-1.377c-.35-.589-.526-1.262-.526-2.02 0-1.01.23-1.919.689-2.727a4.963 4.963 0 0 1 1.941-1.894c.836-.454 1.783-.682 2.844-.682.885 0 1.653.165 2.305.493.66.328 1.165.787 1.516 1.376.359.59.538 1.263.538 2.02 0 1.01-.234 1.92-.701 2.727a4.854 4.854 0 0 1-1.942 1.894c-.827.455-1.77.682-2.83.682Zm.213-2.07c.551 0 1.036-.14 1.453-.417.418-.278.74-.649.965-1.111.225-.472.338-.99.338-1.553 0-.598-.184-1.074-.551-1.427-.36-.362-.865-.543-1.516-.543-.551 0-1.035.139-1.453.417a2.74 2.74 0 0 0-.965 1.123 3.472 3.472 0 0 0-.338 1.54c0 .598.18 1.078.539 1.44.367.354.877.53 1.528.53ZM96.932 19.939c-.76 0-1.415-.126-1.966-.379-.551-.26-.973-.631-1.266-1.11-.292-.48-.438-1.045-.438-1.693 0-.27.033-.58.1-.934l.977-4.899h2.48l-.964 4.861c-.05.253-.075.484-.075.695 0 .925.484 1.388 1.453 1.388.526 0 .94-.16 1.24-.48.309-.328.539-.862.689-1.603l.964-4.86h2.443l-.989 5.012c-.535 2.668-2.084 4.002-4.648 4.002ZM111.54 13.74c0 .808-.213 1.506-.639 2.095-.426.581-1.023 1.006-1.791 1.276l1.49 2.651h-2.593l-1.303-2.348h-1.252l-.464 2.348h-2.48l1.754-8.838h3.745c1.119 0 1.988.248 2.606.745.618.497.927 1.187.927 2.07Zm-2.506.24c0-.362-.121-.632-.363-.809-.242-.185-.58-.277-1.015-.277h-1.302l-.526 2.588h1.478c.551 0 .977-.13 1.277-.391.301-.261.451-.632.451-1.111ZM47.546 28.096c-.302 0-.577-.068-.823-.203a1.52 1.52 0 0 1-.575-.562 1.573 1.573 0 0 1-.205-.799c0-.296.068-.562.205-.8.139-.236.33-.422.575-.557.246-.137.521-.206.823-.206.302 0 .574.067.815.202.244.134.436.322.575.562.14.237.21.503.21.8 0 .295-.07.563-.21.803-.14.237-.331.423-.575.558a1.642 1.642 0 0 1-.815.202Zm0-.29c.241 0 .459-.055.654-.163.194-.111.347-.263.457-.457.11-.196.166-.414.166-.654 0-.24-.056-.457-.166-.65a1.167 1.167 0 0 0-.457-.457 1.293 1.293 0 0 0-.654-.166c-.241 0-.46.055-.658.166-.194.109-.348.261-.462.457-.11.193-.165.41-.165.65 0 .24.055.458.165.654.114.194.268.346.462.457.198.108.417.163.658.163ZM51.021 25.742c.215 0 .41.05.584.149.174.097.31.234.41.413.098.178.148.382.148.61 0 .231-.05.436-.148.615a1.063 1.063 0 0 1-.41.417 1.167 1.167 0 0 1-.584.145c-.186 0-.354-.038-.505-.114a.978.978 0 0 1-.366-.343v1.287h-.31V25.76h.297v.457a.961.961 0 0 1 .366-.351c.154-.082.327-.123.518-.123ZM51 27.814c.16 0 .305-.036.436-.11a.788.788 0 0 0 .305-.32.96.96 0 0 0 .113-.47.936.936 0 0 0-.113-.465.788.788 0 0 0-.305-.32.85.85 0 0 0-.436-.115.858.858 0 0 0-.44.114.827.827 0 0 0-.305.32.965.965 0 0 0-.109.466.99.99 0 0 0 .11.47.827.827 0 0 0 .304.32c.131.074.278.11.44.11ZM54.448 26.036h-1.311v2.033h-.31v-2.31h1.621v.277ZM55.684 25.742c.299 0 .529.076.688.228.16.15.24.372.24.668v1.431h-.296v-.36a.71.71 0 0 1-.31.281 1.055 1.055 0 0 1-.479.101c-.256 0-.459-.061-.61-.184a.598.598 0 0 1-.227-.488c0-.196.07-.354.21-.474.142-.12.367-.18.675-.18h.728v-.14c0-.2-.056-.35-.166-.453-.11-.105-.272-.158-.484-.158-.145 0-.284.025-.418.075a1.021 1.021 0 0 0-.344.197l-.14-.233c.117-.1.256-.175.419-.228a1.58 1.58 0 0 1 .514-.083Zm-.11 2.103c.175 0 .325-.04.45-.118a.733.733 0 0 0 .279-.352v-.377h-.72c-.392 0-.587.137-.587.412 0 .135.05.242.152.321.102.076.244.114.427.114ZM57.435 25.76h.31v1.022h1.442V25.76h.31v2.31h-.31V27.05h-1.442v1.02h-.31v-2.31ZM60.376 25.76h.309v1.835l1.53-1.836h.274v2.31h-.31v-1.835l-1.525 1.835h-.279v-2.31ZM64.444 26.866a.72.72 0 0 1 .374.198c.09.093.136.207.136.342a.53.53 0 0 1-.14.36.879.879 0 0 1-.37.246c-.157.056-.33.084-.519.084-.165 0-.328-.024-.488-.07a1.29 1.29 0 0 1-.418-.216l.105-.233c.104.08.226.14.366.185.14.044.28.066.422.066.212 0 .385-.04.519-.119.136-.082.204-.192.204-.33a.317.317 0 0 0-.165-.285c-.11-.07-.261-.105-.453-.105h-.392v-.229h.374c.172 0 .31-.032.414-.096.105-.067.157-.157.157-.268 0-.123-.06-.22-.178-.29a.876.876 0 0 0-.458-.105c-.247 0-.49.063-.732.189l-.087-.242c.273-.143.556-.215.85-.215.174 0 .33.026.47.079.142.05.253.121.331.215a.48.48 0 0 1 0 .637.695.695 0 0 1-.322.202ZM66.445 25.742c.299 0 .528.076.688.228.16.15.24.372.24.668v1.431h-.297v-.36a.71.71 0 0 1-.31.281 1.055 1.055 0 0 1-.478.101c-.256 0-.46-.061-.61-.184a.598.598 0 0 1-.227-.488c0-.196.07-.354.21-.474.141-.12.367-.18.674-.18h.728v-.14c0-.2-.055-.35-.165-.453-.11-.105-.272-.158-.484-.158-.145 0-.285.025-.418.075a1.021 1.021 0 0 0-.344.197l-.14-.233c.116-.1.256-.175.418-.228a1.58 1.58 0 0 1 .514-.083Zm-.11 2.103c.175 0 .324-.04.45-.118a.733.733 0 0 0 .278-.352v-.377h-.719c-.392 0-.588.137-.588.412 0 .135.05.242.153.321.101.076.243.114.426.114ZM70.584 27.797v.852h-.292v-.58h-2.096v-2.31h.31v2.038h1.398v-2.038h.31v2.038h.37ZM71.174 25.76h.31v1.835l1.53-1.836h.274v2.31h-.31v-1.835l-1.525 1.835h-.279v-2.31ZM75.934 25.76v2.31h-.283v-.765h-.806l-.531.764h-.336l.57-.808a.772.772 0 0 1-.409-.255.708.708 0 0 1-.143-.456c0-.258.087-.454.26-.589.175-.134.413-.202.716-.202h.962Zm-1.625.798c0 .343.217.514.65.514h.692v-1.036h-.67c-.448 0-.672.174-.672.522ZM80.013 25.76v2.31h-.31v-2.034h-1.437v2.033h-.31v-2.31h2.057ZM81.838 28.091c-.22 0-.42-.05-.597-.15a1.116 1.116 0 0 1-.418-.42 1.203 1.203 0 0 1-.153-.607c0-.225.051-.427.153-.606.102-.178.241-.317.418-.417.177-.1.376-.15.597-.15.22 0 .42.05.597.15.177.1.315.239.414.417.102.179.152.38.152.606 0 .226-.05.428-.152.606-.099.179-.237.32-.414.422-.177.1-.376.15-.597.15Zm0-.277a.861.861 0 0 0 .436-.11.789.789 0 0 0 .305-.32.992.992 0 0 0 .109-.47.992.992 0 0 0-.11-.47.76.76 0 0 0-.304-.316.836.836 0 0 0-.436-.114.858.858 0 0 0-.44.114.796.796 0 0 0-.305.316.992.992 0 0 0-.109.47c0 .176.036.332.109.47a.828.828 0 0 0 .305.32c.13.074.277.11.44.11ZM85.015 28.07l-.728-.967-.732.966h-.348l.906-1.185-.862-1.125h.348l.688.905.689-.905h.34l-.863 1.125.915 1.185h-.353ZM86.74 28.091c-.221 0-.42-.05-.597-.15a1.117 1.117 0 0 1-.418-.42 1.203 1.203 0 0 1-.153-.607c0-.225.05-.427.153-.606.101-.178.24-.317.418-.417.177-.1.376-.15.597-.15.22 0 .42.05.597.15.177.1.315.239.413.417.102.179.153.38.153.606 0 .226-.05.428-.153.606-.098.179-.236.32-.413.422-.178.1-.377.15-.597.15Zm0-.277a.861.861 0 0 0 .435-.11.788.788 0 0 0 .305-.32.992.992 0 0 0 .11-.47.992.992 0 0 0-.11-.47.76.76 0 0 0-.305-.316.835.835 0 0 0-.435-.114.858.858 0 0 0-.44.114.797.797 0 0 0-.305.316.992.992 0 0 0-.11.47c0 .176.037.332.11.47a.829.829 0 0 0 .305.32c.13.074.277.11.44.11ZM90.787 27.797v.83h-.292v-.558h-2.053v.558h-.291v-.83h.13c.154-.009.259-.123.314-.343.055-.22.093-.527.113-.922l.03-.773h1.691v2.038h.358ZM88.99 26.55a5.871 5.871 0 0 1-.082.812c-.041.211-.114.356-.218.435h1.429v-1.761h-1.102l-.027.514ZM92.335 28.091c-.22 0-.42-.05-.597-.15a1.116 1.116 0 0 1-.418-.42 1.203 1.203 0 0 1-.153-.607c0-.225.051-.427.153-.606.101-.178.24-.317.418-.417.177-.1.376-.15.597-.15.22 0 .42.05.597.15.177.1.315.239.414.417.101.179.152.38.152.606 0 .226-.05.428-.152.606-.1.179-.237.32-.414.422-.177.1-.376.15-.597.15Zm0-.277a.86.86 0 0 0 .436-.11.788.788 0 0 0 .305-.32.99.99 0 0 0 .109-.47.99.99 0 0 0-.11-.47.76.76 0 0 0-.305-.316.835.835 0 0 0-.435-.114.858.858 0 0 0-.44.114.796.796 0 0 0-.305.316.992.992 0 0 0-.11.47c0 .176.037.332.11.47a.828.828 0 0 0 .305.32c.13.074.277.11.44.11ZM95.619 26.875c.31.073.466.262.466.566a.542.542 0 0 1-.222.466c-.148.108-.369.162-.662.162h-1.042v-2.31h1.011c.262 0 .466.052.614.154a.502.502 0 0 1 .223.44.518.518 0 0 1-.105.324.6.6 0 0 1-.283.198Zm-1.16-.088h.69c.177 0 .312-.034.405-.101a.337.337 0 0 0 .143-.294.326.326 0 0 0-.143-.29c-.093-.065-.228-.097-.406-.097h-.688v.782Zm.729 1.036c.197 0 .345-.032.444-.096.099-.065.148-.166.148-.303 0-.138-.045-.239-.135-.303-.09-.068-.232-.101-.427-.101h-.758v.803h.728ZM99.41 26.875c.31.073.466.262.466.566a.542.542 0 0 1-.222.466c-.148.108-.369.162-.662.162H97.95v-2.31h1.011c.262 0 .466.052.615.154a.502.502 0 0 1 .222.44.518.518 0 0 1-.105.324.6.6 0 0 1-.283.198Zm-1.159-.088h.688c.178 0 .313-.034.406-.101a.337.337 0 0 0 .143-.294.326.326 0 0 0-.143-.29c-.093-.065-.228-.097-.406-.097h-.688v.782Zm.728 1.036c.197 0 .345-.032.444-.096.099-.065.148-.166.148-.303 0-.138-.045-.239-.135-.303-.09-.068-.232-.101-.427-.101h-.758v.803h.728ZM103.362 26.036h-1.311v2.033h-.309v-2.31h1.62v.277ZM104.648 28.091c-.22 0-.419-.05-.596-.15a1.115 1.115 0 0 1-.419-.42 1.21 1.21 0 0 1-.152-.607c0-.225.051-.427.152-.606.102-.178.241-.317.419-.417.177-.1.376-.15.596-.15.221 0 .42.05.597.15.178.1.316.239.414.417a1.2 1.2 0 0 1 .153.606 1.2 1.2 0 0 1-.153.606c-.098.179-.236.32-.414.422-.177.1-.376.15-.597.15Zm0-.277a.862.862 0 0 0 .436-.11.783.783 0 0 0 .305-.32.987.987 0 0 0 .109-.47.987.987 0 0 0-.109-.47.754.754 0 0 0-.305-.316.836.836 0 0 0-.436-.114.86.86 0 0 0-.44.114.805.805 0 0 0-.305.316.998.998 0 0 0-.108.47c0 .176.036.332.108.47a.837.837 0 0 0 .305.32c.131.074.278.11.44.11ZM107.654 25.742c.215 0 .409.05.584.149.174.097.31.234.409.413.099.178.148.382.148.61 0 .231-.049.436-.148.615a1.065 1.065 0 0 1-.409.417 1.17 1.17 0 0 1-.584.145 1.11 1.11 0 0 1-.506-.114.981.981 0 0 1-.366-.343v1.287h-.309V25.76h.296v.457a.961.961 0 0 1 .366-.351c.154-.082.327-.123.519-.123Zm-.022 2.072a.796.796 0 0 0 .741-.43.966.966 0 0 0 .113-.47.94.94 0 0 0-.113-.465.796.796 0 0 0-.305-.32.851.851 0 0 0-.436-.115.858.858 0 0 0-.44.114.823.823 0 0 0-.305.32.961.961 0 0 0-.109.466c0 .176.036.332.109.47a.823.823 0 0 0 .305.32c.131.074.277.11.44.11ZM110.423 26.576c.287.003.507.067.658.193.151.126.226.308.226.545 0 .246-.081.435-.244.566-.162.132-.395.197-.697.194l-.906-.005v-2.31h.309v.808l.654.01Zm1.268-.817H112v2.31h-.309v-2.31Zm-1.342 2.077c.212.003.371-.04.479-.127.11-.09.166-.222.166-.395 0-.17-.054-.296-.162-.378-.107-.082-.268-.124-.483-.127l-.58-.009v1.028l.58.008Z"/></g><defs><clipPath id="a"><path fill="#fff" d="M0 0h112v34H0z"/></clipPath></defs></svg>