<svg width="67" height="13" fill="none" xmlns="http://www.w3.org/2000/svg"><path d="M3.84 12.14c-.707 0-1.313-.1-1.82-.3-.493-.2-.873-.553-1.14-1.06-.267-.507-.4-1.22-.4-2.14v-.7H2.9v.9c0 .493.04.873.12 1.14.08.253.193.433.34.54.147.093.32.14.52.14.307 0 .547-.107.72-.32.187-.227.28-.66.28-1.3 0-.493-.08-.86-.24-1.1-.147-.253-.387-.453-.72-.6-.333-.16-.76-.353-1.28-.58-.467-.2-.853-.44-1.16-.72A2.51 2.51 0 0 1 .8 4.98C.653 4.553.58 4.033.58 3.42c0-.773.1-1.4.3-1.88.213-.48.56-.827 1.04-1.04C2.413.273 3.073.16 3.9.16c1.067 0 1.88.233 2.44.7.573.453.86 1.14.86 2.06v1.42H4.88v-.72c0-.6-.073-1.02-.22-1.26-.133-.24-.38-.36-.74-.36-.347 0-.593.107-.74.32-.147.213-.22.56-.22 1.04 0 .44.087.787.26 1.04.187.24.42.427.7.56.28.12.58.24.9.36.587.227 1.067.46 1.44.7.373.227.647.547.82.96.173.4.26.98.26 1.74 0 .853-.147 1.533-.44 2.04-.28.493-.687.847-1.22 1.06-.52.213-1.133.32-1.84.32Zm8.453.1c-.48 0-.92-.033-1.32-.1a2.415 2.415 0 0 1-1.04-.42c-.294-.213-.52-.527-.68-.94-.16-.427-.24-1-.24-1.72V.18h2.32v9.54c0 .28.04.507.12.68.093.16.213.267.36.32.146.053.306.08.48.08.16 0 .313-.027.46-.08a.611.611 0 0 0 .34-.32c.093-.173.14-.4.14-.68V.18h2.32v8.88c0 .707-.08 1.273-.24 1.7-.16.427-.387.747-.68.96-.28.213-.627.353-1.04.42-.4.067-.834.1-1.3.1Zm5.304-.24V.18h4.2c.787 0 1.38.18 1.78.54.413.347.62.833.62 1.46v2.04c0 .533-.067 1.033-.2 1.5-.133.453-.373.82-.72 1.1-.347.28-.847.42-1.5.42h-1.76V12h-2.42Zm2.42-6.04h.9c.32 0 .56-.153.72-.46.16-.307.24-.813.24-1.52v-.8c0-.627-.067-1.073-.2-1.34-.133-.267-.327-.4-.58-.4h-1.08v4.52ZM25.849 12V.18h5.44v1.64h-3.02v3.16h2.56V6.8h-2.56v3.6h3.02V12h-5.44Zm7.08 0V.18h4.32c.786 0 1.38.18 1.78.54.4.347.6.833.6 1.46v1.84c0 .627-.167 1.153-.5 1.58-.334.427-.854.673-1.56.74.453.067.773.22.96.46.2.227.373.6.52 1.12l1.12 4.08h-2.58l-.86-3.92a3.954 3.954 0 0 0-.28-.8c-.094-.227-.234-.34-.42-.34h-.68V12h-2.42Zm2.42-6.68h.96c.373 0 .64-.1.8-.3.16-.213.24-.547.24-1V2.6c0-.427-.074-.727-.22-.9-.147-.173-.374-.26-.68-.26h-1.1v3.88Zm8.858 6.9c-.454 0-.88-.073-1.28-.22-.387-.147-.707-.433-.96-.86-.254-.44-.38-1.093-.38-1.96V2.7c0-.693.133-1.233.4-1.62.28-.387.666-.653 1.16-.8.493-.16 1.066-.24 1.72-.24.653 0 1.226.08 1.72.24.506.147.9.413 1.18.8.293.387.44.927.44 1.62v1.66h-2.26V2.58c0-.32-.047-.56-.14-.72-.08-.173-.194-.287-.34-.34a1.59 1.59 0 0 0-.54-.08c-.2 0-.38.027-.54.08-.147.053-.267.167-.36.34-.08.16-.12.4-.12.72v7.16c0 .307.04.547.12.72.093.16.213.273.36.34.16.053.34.08.54.08.306 0 .553-.093.74-.28.186-.187.28-.473.28-.86V7.38h-.96V6.06h3.22V12h-1.74l-.12-.92-.08.12a1 1 0 0 0-.06.1c-.134.227-.36.44-.68.64-.307.187-.747.28-1.32.28Zm7.449-.22V6.98l-2.22-6.8h2.32l1.02 3.54.14.76.14-.76 1.1-3.54h2.12l-2.3 6.92V12h-2.32Zm6.066 0V.18h2.9l1.62 7.64 1.64-7.64h2.88V12h-2.04V3.16l-1.7 8.84h-1.58l-1.68-8.84V12h-2.04Z" fill="#fff"/></svg>