<svg viewBox="0 0 20 14" width="20" height="14" fill="none" xmlns="http://www.w3.org/2000/svg"><path d="M9.719 11.768C9.102 9.165 7.29 6.974 4.796 5.816a9.375 9.375 0 0 0-3.887-.868 8.586 8.586 0 0 0 1.978 5.113c1.713 2.072 4.306 3.285 7.052 3.303a8.475 8.475 0 0 0-.22-1.597Zm0 0C9.213 9.63 7.9 7.771 6.067 6.534c.031-.184.069-.369.112-.552C6.7 3.78 8.078 1.872 10 .636c1.923 1.237 3.3 3.144 3.821 5.346.043.183.08.368.112.552-1.834 1.238-3.146 3.097-3.651 5.234m-.563 0c.125.528.198 1.062.22 1.595h.114c.77 0 1.528-.093 2.259-.274l.012-.016a9.404 9.404 0 0 1-2.263.29m.22-1.595c.617-2.603 2.429-4.794 4.923-5.952a9.376 9.376 0 0 1 3.887-.868 8.586 8.586 0 0 1-1.978 5.113c-1.713 2.072-4.306 3.285-7.052 3.303m.22-1.597a8.47 8.47 0 0 0-.22 1.597" stroke="#0266C1" stroke-linecap="round" stroke-linejoin="round"/></svg>
