<svg viewBox="0 0 25 25" fill="none" xmlns="http://www.w3.org/2000/svg"><path d="M23.213 17.412a.791.791 0 0 1 0 1.113l-2.344 2.344a.8.8 0 0 1-1.113 0 .79.79 0 0 1 0-1.113l1.015-1.006H19.62a7.051 7.051 0 0 1-5.723-2.95l-4.072-5.693a5.479 5.479 0 0 0-4.443-2.294H3.125a.781.781 0 0 1 0-1.563h2.256a7.05 7.05 0 0 1 5.723 2.95l4.072 5.693a5.478 5.478 0 0 0 4.443 2.294h1.152l-1.015-1.005a.791.791 0 0 1 1.113-1.114l2.344 2.344Zm-9.248-6.963a.781.781 0 0 0 1.094-.185l.117-.157a5.479 5.479 0 0 1 4.443-2.294h1.152l-1.015 1.005a.791.791 0 0 0 0 1.114.8.8 0 0 0 1.113 0l2.344-2.344a.791.791 0 0 0 0-1.113L20.869 4.13a.791.791 0 0 0-1.113 1.113L20.77 6.25H19.62a7.05 7.05 0 0 0-5.723 2.95l-.107.155a.78.78 0 0 0 .176 1.094Zm-2.93 4.102a.781.781 0 0 0-1.094.185l-.117.157a5.478 5.478 0 0 1-4.443 2.294H3.125a.781.781 0 1 0 0 1.563h2.256a7.052 7.052 0 0 0 5.723-2.95l.107-.155a.779.779 0 0 0-.176-1.094Z" fill="#1C3374"/></svg>
