<svg viewBox="0 0 25 25" fill="none" xmlns="http://www.w3.org/2000/svg"><path d="M20.145 8.185a6.25 6.25 0 0 1-4.21 10.558l-.31.008-5.146-.002 1.794 1.795a.781.781 0 0 1 .09.997l-.09.108a.78.78 0 0 1-.997.09l-.108-.09-3.128-3.128a.781.781 0 0 1-.089-.997l.09-.108 3.127-3.128a.781.781 0 0 1 1.196.997l-.091.11-1.794 1.791h5.146a4.687 4.687 0 0 0 4.68-4.41l.007-.275a4.672 4.672 0 0 0-1.353-3.296.782.782 0 0 1 1.075-1.133l.112.113h-.001Zm-6.42-4.924.109.09 3.127 3.128.09.11a.78.78 0 0 1 0 .887l-.09.109-3.127 3.126-.11.091a.781.781 0 0 1-.887 0l-.11-.09-.088-.11a.781.781 0 0 1 0-.887l.089-.11 1.793-1.792H9.375a4.688 4.688 0 0 0-4.68 4.413l-.008.275c0 1.28.514 2.44 1.345 3.287a.781.781 0 0 1-1.115 1.09 6.25 6.25 0 0 1 4.145-10.62l.313-.007 5.146-.002-1.793-1.792-.09-.11a.781.781 0 0 1 1.087-1.086Z" fill="#1C3374"/></svg>
