<svg viewBox="0 0 17 17" fill="none" xmlns="http://www.w3.org/2000/svg"><path d="M14.323 4.708a4.315 4.315 0 0 0-.944-1.374 4.405 4.405 0 0 0-3.095-1.258 4.434 4.434 0 0 0-2.784.98 4.434 4.434 0 0 0-2.784-.981A4.405 4.405 0 0 0 1.62 3.334 4.29 4.29 0 0 0 .328 6.4c0 .553.113 1.129.337 1.715.188.49.457.998.8 1.51.545.812 1.294 1.66 2.223 2.517a24.85 24.85 0 0 0 3.131 2.446l.394.252a.533.533 0 0 0 .573 0l.393-.252a25.177 25.177 0 0 0 3.131-2.446c.93-.858 1.678-1.705 2.223-2.516a7.589 7.589 0 0 0 .8-1.511A4.804 4.804 0 0 0 14.67 6.4a4.226 4.226 0 0 0-.347-1.692ZM7.5 13.527S1.59 9.74 1.59 6.4c0-1.692 1.4-3.063 3.126-3.063 1.213 0 2.266.677 2.784 1.667a3.135 3.135 0 0 1 2.784-1.667c1.727 0 3.126 1.371 3.126 3.063 0 3.34-5.91 7.127-5.91 7.127Z" fill="#1C3374"/></svg>
