<svg viewBox="0 0 22 22" fill="none" xmlns="http://www.w3.org/2000/svg"><path d="M18.5 8.147C18.5 4.2 15.142 1 11 1 6.858 1 3.5 4.2 3.5 8.147v.43c0 1.58.518 3.12 1.481 4.405l6.004 8.01c.007.01.023.01.03 0l6.004-8.01A7.338 7.338 0 0 0 18.5 8.578v-.43Z" stroke="#2D383F" stroke-linecap="round" stroke-linejoin="round"/><path d="M9.534 5.289a3.53 3.53 0 0 1 2.932 0c.926.425 1.6 1.23 1.828 2.184a3.105 3.105 0 0 1-.652 2.724A3.443 3.443 0 0 1 11 11.41c-1.028 0-2-.447-2.642-1.213a3.105 3.105 0 0 1-.652-2.724c.229-.955.902-1.759 1.828-2.184Z" stroke="#2D383F" stroke-linecap="round" stroke-linejoin="round"/></svg>
