<svg viewBox="0 0 25 25" fill="currentColor" xmlns="http://www.w3.org/2000/svg"><path d="M13.723 15.052c.442-.143 1.01.944 1.612 1.36.453.316.8.248.8.248l1.608-.023s.84-.052.444-.72c-.033-.055-.233-.495-1.198-1.4-1.008-.945-.87-.792.343-2.427.74-.997 1.035-1.606.942-1.866-.088-.25-.632-.184-.632-.184l-1.811.012c-.177 0-.326.055-.394.239-.002.002-.288.771-.67 1.425-.806 1.385-1.128 1.458-1.261 1.372-.306-.201-.229-.805-.229-1.234 0-1.341.2-1.9-.391-2.045-.198-.049-.343-.08-.847-.085-.644-.01-1.192 0-1.502.153-.206.103-.364.33-.268.342.12.017.39.074.535.272.185.255.18.828.18.828s.106 1.58-.25 1.775c-.245.135-.58-.14-1.298-1.396-.367-.643-.645-1.353-.645-1.353s-.053-.132-.15-.204c-.117-.086-.279-.113-.279-.113l-1.72.01s-.258.008-.353.122c-.084.101-.007.31-.007.31s1.347 3.186 2.873 4.79c1.398 1.474 2.987 1.376 2.987 1.376h.72s.217-.025.329-.144c.103-.111.099-.32.099-.32s-.015-.977.433-1.12Z"/></svg>
