<svg viewBox="0 0 25 25" fill="currentColor" xmlns="http://www.w3.org/2000/svg"><path d="M12.68 6.889c.899 0 1.63.754 1.63 1.682 0 .925-.731 1.679-1.63 1.679-.898 0-1.629-.754-1.629-1.68 0-.927.73-1.681 1.63-1.681Zm0 5.741c2.17 0 3.935-1.821 3.935-4.06 0-2.24-1.764-4.061-3.935-4.061-2.17 0-3.932 1.821-3.932 4.062 0 2.238 1.762 4.06 3.932 4.06Zm1.592 3.313a7.295 7.295 0 0 0 2.284-.977c.538-.35.7-1.084.362-1.64a1.13 1.13 0 0 0-1.591-.375 4.866 4.866 0 0 1-5.296 0 1.127 1.127 0 0 0-1.589.375 1.213 1.213 0 0 0 .363 1.64c.712.46 1.483.788 2.284.978l-2.2 2.268a1.218 1.218 0 0 0 0 1.682c.227.232.52.349.814.349.295 0 .59-.117.818-.35l2.16-2.229 2.162 2.23c.449.466 1.177.466 1.629 0 .449-.464.449-1.218 0-1.682l-2.2-2.268Z"/></svg>
