<svg viewBox="0 0 25 25" fill="currentColor" xmlns="http://www.w3.org/2000/svg"><path d="M13.851 5.556c-.445 0-.863.226-1.131.551-.268.326-.416.723-.524 1.142-.17.673-.224 1.42-.236 2.093a7.317 7.317 0 0 0-3.327 1.027c-.382-.32-.842-.5-1.283-.494-.503.004-.98.22-1.334.665-.678.85-.6 2.238.186 3.064a4.173 4.173 0 0 0-.085.78c0 2.796 2.858 5.06 6.383 5.06s6.383-2.266 6.383-5.06c0-.264-.036-.526-.084-.78.785-.826.863-2.214.185-3.064a1.697 1.697 0 0 0-1.334-.665c-.44-.005-.9.173-1.283.494a7.314 7.314 0 0 0-3.31-1.027c.017-.62.062-1.265.186-1.75.078-.305.171-.526.27-.647.1-.122.171-.172.338-.172.361 0 .407.117.625.4.11.143.236.32.439.495.203.173.502.323.827.323V6.773c-.09 0-.107-.002-.169-.057-.06-.054-.145-.18-.27-.342-.249-.326-.732-.818-1.452-.818Zm3.512.114c-.84 0-1.52.766-1.52 1.712 0 .947.68 1.712 1.52 1.712s1.52-.765 1.52-1.712c0-.946-.68-1.712-1.52-1.712Zm0 .609c.54 0 .98.494.98 1.103s-.44 1.104-.98 1.104-.98-.495-.98-1.104c0-.609.44-1.103.98-1.103ZM12.5 10.293c2.991 0 5.522 1.877 5.522 4.09 0 2.217-2.53 4.091-5.522 4.091-2.99 0-5.522-1.874-5.522-4.09 0-2.215 2.531-4.09 5.522-4.09Zm-5.133.552c.15.002.306.04.456.114a4.986 4.986 0 0 0-1.267 1.598c-.202-.47-.148-1.058.101-1.37a.877.877 0 0 1 .71-.342Zm10.267 0a.877.877 0 0 1 .709.342c.249.312.304.9.101 1.37a4.986 4.986 0 0 0-1.266-1.598c.15-.074.306-.112.456-.114Zm-7.295 1.522c-.54 0-.98.495-.98 1.103 0 .61.44 1.104.98 1.104s.98-.495.98-1.104c0-.608-.44-1.103-.98-1.103Zm4.323 0c-.54 0-.98.495-.98 1.103 0 .61.44 1.104.98 1.104s.979-.495.979-1.104c0-.608-.44-1.103-.98-1.103Zm-4.847 3.748c.344.802 1.408 1.58 2.685 1.58 1.277 0 2.358-.779 2.702-1.58-.625.454-1.61.761-2.702.761-1.091 0-2.06-.307-2.685-.761Z"/></svg>
