<svg viewBox="0 0 12 12" fill="currentColor" xmlns="http://www.w3.org/2000/svg"><path d="M7.022.485c-.337 0-.653.18-.855.438-.203.259-.315.574-.396.907-.13.534-.17 1.127-.18 1.662a5.35 5.35 0 0 0-2.515.816c-.29-.255-.637-.397-.97-.393-.38.004-.742.175-1.01.529-.512.674-.453 1.777.14 2.432-.036.202-.063.41-.063.62 0 2.221 2.161 4.02 4.828 4.02 2.666 0 4.827-1.8 4.827-4.02 0-.21-.027-.418-.063-.62.593-.655.653-1.758.14-2.432-.268-.354-.629-.525-1.009-.53-.334-.003-.682.139-.97.394a5.347 5.347 0 0 0-2.504-.816c.013-.493.046-1.005.14-1.39.06-.242.13-.418.205-.514.075-.096.13-.136.255-.136.273 0 .308.092.473.317.083.114.179.255.332.393.153.138.38.257.626.257v-.967c-.069 0-.082-.002-.128-.045-.046-.044-.11-.144-.204-.272-.189-.26-.554-.65-1.099-.65Zm2.657.09c-.635 0-1.15.609-1.15 1.36 0 .752.515 1.36 1.15 1.36.635 0 1.15-.608 1.15-1.36 0-.751-.515-1.36-1.15-1.36Zm0 .484c.409 0 .74.393.74.876 0 .484-.331.877-.74.877s-.74-.393-.74-.877c0-.483.331-.876.74-.876ZM6.001 4.247c2.262 0 4.176 1.49 4.176 3.249 0 1.76-1.914 3.249-4.176 3.249-2.263 0-4.177-1.489-4.177-3.25 0-1.758 1.914-3.248 4.177-3.248Zm-3.883.438a.783.783 0 0 1 .345.091c-.41.368-.736.791-.958 1.27-.153-.375-.112-.841.076-1.089a.652.652 0 0 1 .537-.272Zm7.765 0c.21-.001.4.091.537.272.188.248.23.714.076 1.088a3.936 3.936 0 0 0-.958-1.269.783.783 0 0 1 .345-.09Zm-5.517 1.21c-.409 0-.741.392-.741.876 0 .483.332.876.74.876.41 0 .742-.393.742-.876 0-.484-.333-.877-.741-.877Zm3.27 0c-.41 0-.741.392-.741.876 0 .483.332.876.74.876.41 0 .741-.393.741-.876 0-.484-.332-.877-.74-.877ZM3.97 8.87c.26.636 1.065 1.254 2.03 1.254.966 0 1.784-.618 2.044-1.254-.472.36-1.218.604-2.043.604-.826 0-1.559-.243-2.031-.604Z"/></svg>
