<svg viewBox="0 0 12 12" fill="currentColor" xmlns="http://www.w3.org/2000/svg"><path d="M11.675 8.47c-.03-.05-.223-.449-1.148-1.269-.967-.859-.837-.72.328-2.204.71-.905.994-1.457.905-1.694-.084-.225-.606-.165-.606-.165l-1.737.01s-.128-.017-.224.037c-.093.054-.153.179-.153.179s-.276.7-.642 1.295c-.774 1.256-1.084 1.322-1.21 1.244-.294-.181-.22-.73-.22-1.12 0-1.217.192-1.725-.377-1.856-.19-.043-.328-.072-.811-.077-.62-.006-1.145.002-1.442.14-.198.093-.35.3-.257.311.115.015.375.067.513.247.178.231.172.752.172.752s.102 1.433-.24 1.61c-.234.123-.555-.126-1.245-1.266-.353-.584-.62-1.23-.62-1.23s-.052-.12-.144-.184a.74.74 0 0 0-.267-.103l-1.65.01s-.249.007-.34.11c-.08.092-.006.28-.006.28S1.547 6.42 3.01 7.878c1.343 1.336 2.867 1.248 2.867 1.248h.69s.209-.022.315-.132c.098-.1.095-.29.095-.29s-.014-.886.417-1.016c.424-.129.968.856 1.545 1.235.436.286.768.224.768.224l1.543-.021s.808-.048.425-.655Z"/></svg>
