<svg viewBox="0 0 19 19" fill="none" xmlns="http://www.w3.org/2000/svg"><g clip-path="url(#a)" fill="#2D383F"><path d="M18.369 16.933V5.093a.352.352 0 0 0-.458-.352v.018l-1.584.496c.166-.444.265-.91.293-1.383a3.872 3.872 0 0 0-7.744 0c.025.45.116.895.271 1.32L6.53 4.254a.375.375 0 0 0-.092 0H6.41a.352.352 0 0 0-.123.025L.856 6.392a.352.352 0 0 0-.226.295v11.854a.352.352 0 0 0 .479.328l5.307-2.056 6.054 2.169a.351.351 0 0 0 .225 0l5.427-1.697a.352.352 0 0 0 .247-.352ZM12.748.703a3.168 3.168 0 0 1 3.168 3.169c0 1.376-2.066 5.177-3.168 7.039C11.646 9.035 9.58 5.23 9.58 3.87A3.168 3.168 0 0 1 12.748.705Zm4.928 15.987-4.738 1.482v-2.686a.352.352 0 0 0-.704 0v2.661l-5.47-1.957v-2.252a.352.352 0 0 0-.703 0v2.252l-4.727 1.841V12.59l1.739-.704a.352.352 0 1 0-.261-.651l-1.478.595v-4.9L6.06 5.1v1.056a.352.352 0 0 0 .704 0v-1.07l2.7.968a48.885 48.885 0 0 0 2.98 5.744.352.352 0 0 0 .602 0 49.094 49.094 0 0 0 2.97-5.709l1.648-.517.01 5.768-1.784.433a.355.355 0 0 0 .085.704.351.351 0 0 0 .084 0l1.616-.394v4.607Z"/><path d="M12.734 1.827a2.045 2.045 0 1 0 0 4.09 2.045 2.045 0 0 0 0-4.09Zm0 3.386a1.344 1.344 0 0 1-1.326-1.341h-.015a1.34 1.34 0 1 1 1.341 1.34ZM8.13 10.616v.01L6.427 9.89a.352.352 0 0 0-.271 0l-1.44.581a.353.353 0 0 0 .264.655l1.302-.525 1.567.662a.353.353 0 0 0 .14.028.352.352 0 0 0 .141-.675ZM13.885 12.628a.352.352 0 0 0-.398-.242l.004-.028-.873.21-1.479-.64a.353.353 0 0 0-.281.648l1.584.704a.351.351 0 0 0 .14.028h.085l.986-.24a.352.352 0 0 0 .232-.44Z"/></g><defs><clipPath id="a"><path fill="#fff" d="M0 0h19v19H0z"/></clipPath></defs></svg>
