<svg viewBox="0 0 14 8" fill="currentColor" xmlns="http://www.w3.org/2000/svg"><path d="M13.926 7.225a.967.967 0 0 0-.048-.091c-.243-.439-.707-.976-1.392-1.614l-.014-.015-.008-.007-.007-.007h-.007a8.422 8.422 0 0 1-.59-.599c-.152-.194-.185-.392-.103-.591.058-.151.277-.47.656-.956.2-.258.357-.465.474-.621.84-1.12 1.205-1.835 1.093-2.146l-.043-.073c-.03-.044-.105-.084-.226-.12a1.146 1.146 0 0 0-.467-.019l-2.099.015A.272.272 0 0 0 11 .384l-.095.022-.036.019-.029.022a.325.325 0 0 0-.08.076.499.499 0 0 0-.073.128 11.93 11.93 0 0 1-.78 1.643c-.18.301-.345.563-.496.784-.15.222-.277.385-.379.49a2.645 2.645 0 0 1-.277.251c-.082.064-.145.09-.19.08a5.363 5.363 0 0 1-.123-.029.485.485 0 0 1-.164-.178.802.802 0 0 1-.084-.285 3.144 3.144 0 0 1-.022-.646c.005-.151.008-.253.008-.307 0-.185.003-.386.01-.602l.019-.515c.005-.126.007-.26.007-.401a1.69 1.69 0 0 0-.026-.333A1.138 1.138 0 0 0 8.113.37a.393.393 0 0 0-.15-.175.842.842 0 0 0-.244-.1 4.843 4.843 0 0 0-.984-.094c-.904-.01-1.484.049-1.742.175a.982.982 0 0 0-.277.22c-.087.106-.1.165-.036.174.291.044.498.149.62.314l.043.088c.034.063.068.175.102.336.034.16.056.338.066.533.024.355.024.66 0 .912-.025.253-.048.45-.07.592a1.186 1.186 0 0 1-.186.503.126.126 0 0 1-.036.037.545.545 0 0 1-.197.036c-.068 0-.15-.034-.248-.102a1.75 1.75 0 0 1-.302-.281 3.76 3.76 0 0 1-.354-.5 8.73 8.73 0 0 1-.408-.76l-.116-.211a18.229 18.229 0 0 1-.3-.595c-.126-.26-.237-.512-.335-.756a.481.481 0 0 0-.174-.233L2.748.46a.773.773 0 0 0-.284-.11L.467.366C.263.366.124.412.05.505l-.03.043A.236.236 0 0 0 0 .665c0 .054.015.12.044.197.291.687.608 1.348.951 1.986.343.638.64 1.151.893 1.54.253.39.51.757.772 1.103.263.345.437.567.522.664.085.098.152.17.2.22l.182.174c.117.117.288.257.514.42.226.163.477.324.751.482.275.158.594.287.959.387.364.1.719.14 1.064.12h.838c.17-.014.299-.068.387-.16l.029-.037a.484.484 0 0 0 .054-.135.743.743 0 0 0 .026-.2c-.005-.21.01-.398.047-.566.036-.168.078-.295.124-.38a.933.933 0 0 1 .28-.321.477.477 0 0 1 .059-.026c.117-.039.254 0 .412.114.158.114.306.255.445.423.138.168.304.357.499.566.194.21.364.365.51.467l.146.088c.097.058.223.112.379.16.155.049.291.061.408.037l1.866-.03c.185 0 .328-.03.43-.09.102-.061.163-.128.182-.201a.566.566 0 0 0 .004-.249.923.923 0 0 0-.051-.193Z"/></svg>
