<svg viewBox="0 0 19 19" fill="none" xmlns="http://www.w3.org/2000/svg"><path d="M18.73 12.363c.59-1.85.104-3.947-.412-5.401a.338.338 0 0 0-.05-.159c-.176-.472-.338-.86-.476-1.14a.675.675 0 0 0 .425-.62v-2.81a.675.675 0 0 0-.675-.675H9.254a.337.337 0 0 0-.338.357c.115 2.024-.033 3.397-.462 4.365a.304.304 0 0 0-.023.03.336.336 0 0 0 0 .051 3.491 3.491 0 0 1-.655.955l-.03.02v.024a4.869 4.869 0 0 1-1.35.91c-.867.385-1.757.717-2.664.992l-.172.058C.405 10.365-.006 12.26 0 13.213v2.449c.001.117.062.225.163.286.773.47 1.607.832 2.479 1.073a.337.337 0 0 0 .428-.337v-.078h.496v.337a.337.337 0 0 0 .284.338c.293.047.587.084.873.108a.337.337 0 0 0 .365-.338v-.425h.496v.48c0 .186.15.337.337.337.283 0 .567 0 .87-.04a.337.337 0 0 0 .31-.338v-.439h.496v.297a.337.337 0 0 0 .392.338c.619-.095 1.23-.24 1.825-.436l.054-.023c2.361-1.35 3.859-.24 3.92-.192.058.045.13.07.205.07h.419a.337.337 0 0 0 .337-.337v-.57h.482v.563c0 .187.151.338.338.338h1.086a.337.337 0 0 0 .337-.338v-.563h.5v.563c0 .187.15.338.337.338h.833a.337.337 0 0 0 .337-.338V12.7a.337.337 0 0 0-.27-.337ZM10.725 2.239h6.8v2.793h-6.8V2.24Zm-4.24 6.727.003.02c.276.224.531.474.762.745a.638.638 0 0 0-.091.338.644.644 0 1 0 .702-.638 5.202 5.202 0 0 0-.726-.8 5.23 5.23 0 0 0 .847-.6c.327.307.632.637.91.988a.644.644 0 1 0 .605-.431h-.081a9.866 9.866 0 0 0-.965-1.05c.16-.197.303-.41.425-.634.522.272 1.027.576 1.511.911a.651.651 0 1 0 .361-.577c-.51-.345-1.04-.658-1.589-.937.368-.979.527-2.277.452-4.048h.442v2.793c0 .372.302.674.675.674h6.322c.087.18.236.49.398.894h-.139a3.71 3.71 0 0 0-2.186 6.69c-2.729.718-6.834 1.572-10.288 1.349.637-2.547-.125-4.116-.621-4.804.772-.253 1.53-.548 2.27-.883Zm-2.95 1.076c.365.428 1.317 1.868.618 4.517a8.473 8.473 0 0 1-3.46-1.046 2.143 2.143 0 0 1-.024-.233v-.024c-.027-.718.242-2.273 2.867-3.214Zm14.631 5.957v-.563a.337.337 0 0 0-.337-.338h-1.17a.337.337 0 0 0-.338.338v.563h-.415v-.563a.337.337 0 0 0-.337-.338h-1.164a.337.337 0 0 0-.337.338v.55c-.46-.287-2.136-1.12-4.514.209-.423.14-.855.252-1.292.337v-.233a.337.337 0 0 0-.337-.337H6.76a.337.337 0 0 0-.338.337v.462h-.172v-.472a.337.337 0 0 0-.337-.337h-1.17a.337.337 0 0 0-.338.337v.401l-.172-.023v-.378a.337.337 0 0 0-.337-.337h-1.17a.337.337 0 0 0-.338.297 9.095 9.095 0 0 1-1.72-.773v-1.208c1.47.78 3.373 1.073 5.397 1.073 5.377 0 11.53-2.058 12.255-2.304L18.325 16h-.159Zm-.165-3.559c-.287.095-.992.337-1.967.597a3.036 3.036 0 0 1 1.673-5.748l.004.01c.496 1.43.94 3.471.29 5.141Z" fill="#2D383F"/><path d="M12.024 2.647a.982.982 0 1 0 0 1.963.982.982 0 0 0 0-1.963Zm0 1.289a.307.307 0 1 1 0-.614.307.307 0 0 1 0 .614Z" fill="#2D383F"/></svg>
