<svg viewBox="0 0 19 23" fill="none" xmlns="http://www.w3.org/2000/svg"><g clip-path="url(#a)"><path d="m18.69 16.336-3.73-4.8h1.802c.21 0 .38-.192.38-.43a.464.464 0 0 0-.079-.26L14.07 6.42h1.524c.21 0 .38-.193.38-.43a.46.46 0 0 0-.095-.282L12.215 1.02a.352.352 0 0 0-.571 0L7.974 5.704a.467.467 0 0 0 .028.605c.07.072.163.112.258.11h1.543L8.88 7.775 6.413 4.616a.352.352 0 0 0-.572 0L2.706 8.622a.467.467 0 0 0 .035.605c.07.069.158.107.25.107H4.2l-2.506 3.69a.464.464 0 0 0 .083.598c.063.053.14.081.218.083h1.41L.305 17.712a.467.467 0 0 0 .042.604.357.357 0 0 0 .244.103h4.213v3c0 .459.33.831.739.831h1.162c.408.002.74-.368.743-.827v-3.004h3.161v3c0 .459.331.831.74.831h1.161c.408 0 .74-.372.74-.831v-4.372h5.153c.21 0 .38-.192.38-.429a.46.46 0 0 0-.094-.282ZM6.687 21.393l-1.12.026-.023-3h1.143v2.974Zm3.923-3.831H1.43l3.116-3.999a.467.467 0 0 0-.027-.605.358.358 0 0 0-.266-.11H2.767l2.507-3.69a.465.465 0 0 0-.07-.6.355.355 0 0 0-.231-.09H3.83l2.285-2.927L8.401 8.46l-1.608 2.39a.465.465 0 0 0 .07.602.355.355 0 0 0 .231.089H8.9l-3.73 4.8a.467.467 0 0 0 .035.604c.07.069.159.107.251.107h5.154v.51Zm1.878 3.822-1.116.035-.023-4.372h1.143l-.004 4.337Zm.023-5.194H6.294l3.73-4.8a.467.467 0 0 0-.035-.604.358.358 0 0 0-.251-.107h-1.87l3.009-4.43a.465.465 0 0 0-.076-.6.354.354 0 0 0-.225-.086H9.117l2.827-3.609 2.81 3.609h-1.47c-.21 0-.38.193-.38.43 0 .093.028.185.08.26l2.99 4.426h-1.855c-.21 0-.381.193-.38.43a.46.46 0 0 0 .094.282l3.73 4.8H12.51Z" fill="#2D383F"/></g><defs><clipPath id="a"><path fill="#fff" transform="translate(0 .875)" d="M0 0h19v21.375H0z"/></clipPath></defs></svg>
