<svg viewBox="0 0 19 19" fill="none" xmlns="http://www.w3.org/2000/svg"><g clip-path="url(#a)" fill="#2D383F"><path d="m17.796 18.383-3.071-7.143-2.9-6.75a.363.363 0 0 0-.668 0L8.57 10.497l-1.016 2.36L5.327 7.72a.363.363 0 0 0-.667 0l-2.092 4.833L.03 18.379a.363.363 0 0 0 .334.508h17.098a.363.363 0 0 0 .334-.504ZM11.487 5.545l2.353 5.47h-.826L11.52 9.367a.363.363 0 0 0-.573.047l-.558.863h-.936l2.034-4.731Zm-6.493 3.22 1.86 4.3H5.839a.362.362 0 0 0-.305.166l-.363.576-.935-1.32a.362.362 0 0 0-.297-.155h-.482l1.537-3.568Zm-4.06 9.397 2.207-5.105h.61l1.13 1.613a.362.362 0 0 0 .298.156.363.363 0 0 0 .297-.167l.558-.863h1.131l1.89 4.351-8.122.015Zm8.914 0-1.9-4.387L9.142 11h1.45a.363.363 0 0 0 .305-.167l.403-.62 1.283 1.418c.069.076.166.12.268.12h1.298l2.76 6.42-7.06-.01ZM5.785 1.582a1.711 1.711 0 0 0-3.307.613 1.656 1.656 0 0 0 0 .188 1.711 1.711 0 0 0 .689 3.263l.018.015h2.538a2.04 2.04 0 1 0 .062-4.079Zm-.04 3.365H3.207a.988.988 0 1 1-.203-1.965.363.363 0 0 0 .272-.472.986.986 0 1 1 1.903-.49c.034.191.21.322.403.298a1.24 1.24 0 0 1 .163 0 1.314 1.314 0 0 1 0 2.629ZM18.01 2.006a1.647 1.647 0 0 0 0-.189 1.711 1.711 0 0 0-3.301-.626 2.04 2.04 0 0 0 .073 4.078h2.538a1.711 1.711 0 0 0 .69-3.263Zm.272 1.754a.986.986 0 0 1-.95.78h-2.539a1.314 1.314 0 0 1 0-2.628c.055-.004.109-.004.163 0a.363.363 0 0 0 .392-.283.986.986 0 1 1 1.903.49.363.363 0 0 0 .272.47.986.986 0 0 1 .76 1.17Z"/></g><defs><clipPath id="a"><path fill="#fff" d="M0 0h19v19H0z"/></clipPath></defs></svg>
