<svg xmlns="http://www.w3.org/2000/svg" xmlns:xlink="http://www.w3.org/1999/xlink"><symbol id="button-arrow" viewBox="0 0 10 10"><g fill="none"><path d="m1 9 8-8m0 0H1.053M9 1v7.947" stroke="currentColor"/></g></symbol><symbol id="checkbox-icon" viewBox="0 0 10 8"><g fill="none"><path d="M1 3.5 3.947 7 9 1" stroke="currentColor" stroke-linecap="round" stroke-linejoin="round"/></g></symbol><symbol id="header-slide-angle"><g fill="none"><path d="M10 0C4.477 0 0 4.477 0 10V0h10Z" fill="#fff"/></g></symbol><symbol id="icon-close" viewBox="0 0 20 20"><g fill="none"><path d="M1 19L10 10M10 10L19 1M10 10L19 19M10 10L1 1" stroke="#316DC2" stroke-linecap="round" stroke-linejoin="round"/></g></symbol><symbol id="social-ok" viewBox="0 0 12 12"><g fill="currentColor"><path d="M6 1.97c.695 0 1.26.554 1.26 1.235 0 .68-.565 1.233-1.26 1.233-.695 0-1.26-.554-1.26-1.233 0-.68.565-1.235 1.26-1.235Zm0 4.216c1.679 0 3.043-1.337 3.043-2.98C9.043 1.56 7.68.221 6 .221 4.322.222 2.96 1.56 2.96 3.205 2.959 4.85 4.322 6.186 6 6.186ZM7.23 8.62a5.8 5.8 0 0 0 1.767-.718.864.864 0 0 0 .28-1.205.9.9 0 0 0-1.23-.275 3.932 3.932 0 0 1-4.096 0 .898.898 0 0 0-1.229.275.864.864 0 0 0 .28 1.205 5.8 5.8 0 0 0 1.767.718l-1.701 1.666a.862.862 0 0 0 0 1.235.902.902 0 0 0 1.262 0L6 9.884l1.672 1.637a.9.9 0 0 0 1.26 0 .862.862 0 0 0 0-1.235L7.231 8.62Z"/></g></symbol><symbol id="social-reddit" viewBox="0 0 12 12"><g fill="currentColor"><path d="M7.022.485c-.337 0-.653.18-.855.438-.203.259-.315.574-.396.907-.13.534-.17 1.127-.18 1.662a5.35 5.35 0 0 0-2.515.816c-.29-.255-.637-.397-.97-.393-.38.004-.742.175-1.01.529-.512.674-.453 1.777.14 2.432-.036.202-.063.41-.063.62 0 2.221 2.161 4.02 4.828 4.02 2.666 0 4.827-1.8 4.827-4.02 0-.21-.027-.418-.063-.62.593-.655.653-1.758.14-2.432-.268-.354-.629-.525-1.009-.53-.334-.003-.682.139-.97.394a5.347 5.347 0 0 0-2.504-.816c.013-.493.046-1.005.14-1.39.06-.242.13-.418.205-.514.075-.096.13-.136.255-.136.273 0 .308.092.473.317.083.114.179.255.332.393.153.138.38.257.626.257v-.967c-.069 0-.082-.002-.128-.045-.046-.044-.11-.144-.204-.272-.189-.26-.554-.65-1.099-.65Zm2.657.09c-.635 0-1.15.609-1.15 1.36 0 .752.515 1.36 1.15 1.36.635 0 1.15-.608 1.15-1.36 0-.751-.515-1.36-1.15-1.36Zm0 .484c.409 0 .74.393.74.876 0 .484-.331.877-.74.877s-.74-.393-.74-.877c0-.483.331-.876.74-.876ZM6.001 4.247c2.262 0 4.176 1.49 4.176 3.249 0 1.76-1.914 3.249-4.176 3.249-2.263 0-4.177-1.489-4.177-3.25 0-1.758 1.914-3.248 4.177-3.248Zm-3.883.438a.783.783 0 0 1 .345.091c-.41.368-.736.791-.958 1.27-.153-.375-.112-.841.076-1.089a.652.652 0 0 1 .537-.272Zm7.765 0c.21-.001.4.091.537.272.188.248.23.714.076 1.088a3.936 3.936 0 0 0-.958-1.269.783.783 0 0 1 .345-.09Zm-5.517 1.21c-.409 0-.741.392-.741.876 0 .483.332.876.74.876.41 0 .742-.393.742-.876 0-.484-.333-.877-.741-.877Zm3.27 0c-.41 0-.741.392-.741.876 0 .483.332.876.74.876.41 0 .741-.393.741-.876 0-.484-.332-.877-.74-.877ZM3.97 8.87c.26.636 1.065 1.254 2.03 1.254.966 0 1.784-.618 2.044-1.254-.472.36-1.218.604-2.043.604-.826 0-1.559-.243-2.031-.604Z"/></g></symbol><symbol id="social-vk" viewBox="0 0 12 12"><g fill="currentColor"><path d="M11.675 8.47c-.03-.05-.223-.449-1.148-1.269-.967-.859-.837-.72.328-2.204.71-.905.994-1.457.905-1.694-.084-.225-.606-.165-.606-.165l-1.737.01s-.128-.017-.224.037c-.093.054-.153.179-.153.179s-.276.7-.642 1.295c-.774 1.256-1.084 1.322-1.21 1.244-.294-.181-.22-.73-.22-1.12 0-1.217.192-1.725-.377-1.856-.19-.043-.328-.072-.811-.077-.62-.006-1.145.002-1.442.14-.198.093-.35.3-.257.311.115.015.375.067.513.247.178.231.172.752.172.752s.102 1.433-.24 1.61c-.234.123-.555-.126-1.245-1.266-.353-.584-.62-1.23-.62-1.23s-.052-.12-.144-.184a.74.74 0 0 0-.267-.103l-1.65.01s-.249.007-.34.11c-.08.092-.006.28-.006.28S1.547 6.42 3.01 7.878c1.343 1.336 2.867 1.248 2.867 1.248h.69s.209-.022.315-.132c.098-.1.095-.29.095-.29s-.014-.886.417-1.016c.424-.129.968.856 1.545 1.235.436.286.768.224.768.224l1.543-.021s.808-.048.425-.655Z"/></g></symbol><symbol id="star-icon" viewBox="0 0 18 22"><g fill="none"><path d="m9 0 3.014 5.475L18 5.5 15.027 11 18 16.5l-5.986.025L9 22l-3.014-5.475L0 16.5 2.972 11 0 5.5l5.986-.025L9 0Z" fill="#fff"/></g></symbol><symbol id="swiper-button" viewBox="0 0 11 12"><g fill="none"><path d="M0 5.6875H10M10 5.6875L5.03311 11M10 5.6875L5.03311 1" stroke="currentColor"/></g></symbol><symbol id="swiper-pag-next" viewBox="0 0 11 12"><g fill="none"><path d="M0 5.688h10m0 0L5.033 11M10 5.687 5.033 1" stroke="#316DC2"/></g></symbol><symbol id="swiper-pag-prev" viewBox="0 0 11 12"><g fill="none"><path d="M11 5.688H1m0 0L5.967 11M1 5.687 5.967 1" stroke="#316DC2"/></g></symbol></svg>