<svg xmlns="http://www.w3.org/2000/svg" xmlns:xlink="http://www.w3.org/1999/xlink"><defs><clipPath id="a"><path fill="#fff" d="M0 0h22v22H0z"/></clipPath><clipPath id="a"><path d="M0 0h205v62H0z"/></clipPath><clipPath id="a"><path fill="#fff" d="M0 0h12v12H0z"/></clipPath><clipPath id="a"><path fill="#fff" d="M0 0h12v12H0z"/></clipPath><clipPath id="a"><path fill="#fff" d="M0 0h15v14H0z"/></clipPath><clipPath id="a"><path fill="#fff" d="M0 0h19v19H0z"/></clipPath><clipPath id="a"><path fill="#fff" transform="translate(0 .875)" d="M0 0h19v21.375H0z"/></clipPath><clipPath id="a"><path fill="#fff" d="M0 0h19v19H0z"/></clipPath></defs><symbol id="advantages-1" viewBox="0 0 20 20"><g fill="none"><path d="M7.955 9.92 10 11.96l3.58-3.57M10 .91a15.077 15.077 0 0 1-7.834 1.62 14.968 14.968 0 0 0-.119 5.812A14.999 14.999 0 0 0 10 19.091a14.999 14.999 0 0 0 7.953-10.749 14.968 14.968 0 0 0-.118-5.811A15.09 15.09 0 0 1 10 .909Z" stroke="#0266C1"/></g></symbol><symbol id="advantages-2" viewBox="0 0 22 21"><g fill="none"><path d="M17.687 20H4.313M21 7.11l-2.925 9.695H3.925L1 7.11l5.772 3.504L11 2l4.228 8.614L21 7.11Z" stroke="#0266C1"/></g></symbol><symbol id="advantages-3" viewBox="0 0 20 18"><g fill="none"><path d="M19.715 12.243c.622-2.094.11-4.472-.433-6.12a.404.404 0 0 0-.053-.18 14.905 14.905 0 0 0-.5-1.291.766.766 0 0 0 .447-.703V.764c0-.422-.318-.764-.71-.764H9.74c-.196 0-.356.17-.356.382v.023C9.507 2.7 9.35 4.255 8.9 5.351a.34.34 0 0 0-.025.035.412.412 0 0 0 0 .057 3.98 3.98 0 0 1-.689 1.082l-.031.023v.027a5.122 5.122 0 0 1-1.42 1.032c-.914.436-1.85.811-2.806 1.124l-.181.065C.427 9.98-.006 12.129 0 13.206v2.776c0 .133.065.256.17.325a9.95 9.95 0 0 0 2.61 1.215c.189.057.385-.061.438-.264a.41.41 0 0 0 .013-.118v-.088h.522v.382a.375.375 0 0 0 .298.383c.31.053.618.095.92.122a.34.34 0 0 0 .27-.1.397.397 0 0 0 .113-.282v-.482h.522v.543c0 .21.16.382.356.382.298 0 .596 0 .916-.046.185-.016.327-.182.326-.382v-.497h.522v.336c-.002.211.155.385.35.387.021 0 .042 0 .062-.004a11.335 11.335 0 0 0 1.921-.494l.057-.026c2.486-1.53 4.062-.272 4.126-.218a.34.34 0 0 0 .217.08h.44c.196 0 .355-.171.355-.382v-.646h.508v.638c0 .211.159.383.355.383h1.143c.197 0 .356-.172.356-.383v-.638h.525v.638c0 .211.16.383.355.383h.877c.196 0 .355-.172.355-.383v-4.12a.377.377 0 0 0-.284-.383ZM11.29.773h7.159v3.164h-7.159V.772ZM6.826 8.393l.003.023c.291.254.56.537.803.845a.765.765 0 0 0-.096.382c-.003.403.299.732.673.735.375.003.68-.322.683-.725.002-.38-.266-.699-.618-.732a5.765 5.765 0 0 0-.763-.906c.317-.195.616-.423.891-.68.344.347.665.721.959 1.12-.124.38.063.796.416.93.354.132.74-.068.864-.45.124-.38-.063-.796-.416-.93a.634.634 0 0 0-.229-.04h-.085c-.311-.422-.65-.82-1.015-1.189.169-.224.319-.465.447-.718.55.308 1.081.652 1.59 1.032-.003.407.301.74.68.744.378.004.688-.323.692-.73.003-.408-.301-.741-.68-.745a.645.645 0 0 0-.311.077A15.484 15.484 0 0 0 9.64 5.374c.387-1.108.554-2.58.476-4.587h.465v3.165c0 .423.318.765.71.765h6.655c.092.203.248.554.419 1.013h-.146c-2.157.017-3.893 1.913-3.877 4.235.008 1.32.592 2.558 1.576 3.345-2.872.814-7.194 1.781-10.83 1.529.671-2.886-.131-4.664-.653-5.443.813-.287 1.61-.622 2.39-1.002Zm-3.104 1.22c.384.485 1.385 2.117.65 5.118a8.465 8.465 0 0 1-3.643-1.185 2.607 2.607 0 0 1-.025-.264v-.027c-.029-.814.255-2.576 3.018-3.642Zm15.4 6.75v-.638c0-.212-.159-.383-.355-.383h-1.232c-.196 0-.355.171-.355.383v.638h-.437v-.638c0-.212-.159-.383-.355-.383h-1.225c-.196 0-.355.171-.355.383v.623c-.483-.325-2.248-1.27-4.751.237-.446.158-.9.286-1.36.382v-.264c0-.21-.16-.382-.355-.382H7.117c-.196 0-.355.171-.355.382v.524H6.58v-.535c0-.211-.159-.383-.355-.383H4.993c-.196 0-.355.172-.355.383v.455l-.181-.027v-.428c0-.211-.159-.383-.355-.383H2.87c-.18 0-.334.144-.355.337a9.241 9.241 0 0 1-1.811-.875v-1.369c1.548.883 3.55 1.216 5.681 1.216 5.66 0 12.137-2.332 12.9-2.611l.004 3.356h-.167Zm-.174-4.033c-.302.107-1.044.383-2.07.677-1.589-.828-2.253-2.885-1.484-4.595.526-1.17 1.62-1.921 2.826-1.942.14-.002.28.006.42.023l.003.012c.522 1.62.99 3.933.305 5.825Z" fill="#0266C1"/><path d="M12.656 1.235c-.57 0-1.033.498-1.033 1.112.002.613.463 1.11 1.033 1.112.571 0 1.034-.498 1.034-1.112 0-.614-.463-1.112-1.034-1.112Zm0 1.46c-.178 0-.323-.156-.323-.348 0-.192.145-.348.323-.348.179 0 .323.156.323.348 0 .192-.144.348-.323.348Z" fill="#0266C1"/></g></symbol><symbol id="advantages-4" viewBox="0 0 22 22"><g fill="none"><path d="M18.143 8.767h-5.357c-1.677 0-3.036 1.37-3.036 3.059 0 1.688 1.36 3.058 3.036 3.058h2.321c1.677 0 3.036 1.369 3.036 3.058 0 1.689-1.36 3.058-3.036 3.058H3.857m2.857-5.07c0-1.59-1.279-2.878-2.857-2.878A2.868 2.868 0 0 0 1 15.93v.108c0 .631.198 1.247.567 1.757l2.284 3.164a.007.007 0 0 0 .012 0l2.284-3.164c.369-.51.567-1.126.567-1.757v-.108ZM4.41 14.745l.018.009c.345.164.598.48.684.855a1.277 1.277 0 0 1-1.239 1.56h-.03a1.275 1.275 0 0 1-1.239-1.56 1.26 1.26 0 0 1 .685-.855l.017-.009c.35-.166.755-.166 1.104 0ZM21 3.898C21 2.308 19.72 1 18.143 1c-1.578 0-2.857 1.309-2.857 2.898 0 .625.2 1.24.57 1.742l2.281 3.088a.007.007 0 0 0 .011 0L20.43 5.64A2.94 2.94 0 0 0 21 3.898Zm-2.313-1.247.04.018a1.225 1.225 0 0 1 .423 1.885l-.013.016a1.245 1.245 0 0 1-.96.454h-.068c-.371 0-.723-.167-.96-.454l-.012-.015a1.225 1.225 0 0 1 .422-1.886l.04-.018a1.29 1.29 0 0 1 1.088 0Z" stroke="#0266C1" stroke-linecap="round"/></g></symbol><symbol id="advantages-5" viewBox="0 0 20 14"><g fill="none"><path d="M9.719 11.768C9.102 9.165 7.29 6.974 4.796 5.816a9.375 9.375 0 0 0-3.887-.868 8.586 8.586 0 0 0 1.978 5.113c1.713 2.072 4.306 3.285 7.052 3.303a8.475 8.475 0 0 0-.22-1.597Zm0 0C9.213 9.63 7.9 7.771 6.067 6.534c.031-.184.069-.369.112-.552C6.7 3.78 8.078 1.872 10 .636c1.923 1.237 3.3 3.144 3.821 5.346.043.183.08.368.112.552-1.834 1.238-3.146 3.097-3.651 5.234m-.563 0c.125.528.198 1.062.22 1.595h.114c.77 0 1.528-.093 2.259-.274l.012-.016a9.404 9.404 0 0 1-2.263.29m.22-1.595c.617-2.603 2.429-4.794 4.923-5.952a9.376 9.376 0 0 1 3.887-.868 8.586 8.586 0 0 1-1.978 5.113c-1.713 2.072-4.306 3.285-7.052 3.303m.22-1.597a8.47 8.47 0 0 0-.22 1.597" stroke="#0266C1" stroke-linecap="round" stroke-linejoin="round"/></g></symbol><symbol id="audio-like" viewBox="0 0 17 17"><g fill="none"><path d="M14.323 4.708a4.315 4.315 0 0 0-.944-1.374 4.405 4.405 0 0 0-3.095-1.258 4.434 4.434 0 0 0-2.784.98 4.434 4.434 0 0 0-2.784-.981A4.405 4.405 0 0 0 1.62 3.334 4.29 4.29 0 0 0 .328 6.4c0 .553.113 1.129.337 1.715.188.49.457.998.8 1.51.545.812 1.294 1.66 2.223 2.517a24.85 24.85 0 0 0 3.131 2.446l.394.252a.533.533 0 0 0 .573 0l.393-.252a25.177 25.177 0 0 0 3.131-2.446c.93-.858 1.678-1.705 2.223-2.516a7.589 7.589 0 0 0 .8-1.511A4.804 4.804 0 0 0 14.67 6.4a4.226 4.226 0 0 0-.347-1.692ZM7.5 13.527S1.59 9.74 1.59 6.4c0-1.692 1.4-3.063 3.126-3.063 1.213 0 2.266.677 2.784 1.667a3.135 3.135 0 0 1 2.784-1.667c1.727 0 3.126 1.371 3.126 3.063 0 3.34-5.91 7.127-5.91 7.127Z" fill="#1C3374"/></g></symbol><symbol id="audio-next"><g fill="currentColor"><path d="M3.438 2.75c.12 0 .24.032.344.093l13.062 7.562a.687.687 0 0 1 0 1.19L3.782 19.157a.687.687 0 0 1-1.032-.595V3.438a.688.688 0 0 1 .688-.687Zm17.187 16.5H19.25V2.75h1.375v16.5Z"/></g></symbol><symbol id="audio-order" viewBox="0 0 25 25"><g fill="none"><path d="M23.213 17.412a.791.791 0 0 1 0 1.113l-2.344 2.344a.8.8 0 0 1-1.113 0 .79.79 0 0 1 0-1.113l1.015-1.006H19.62a7.051 7.051 0 0 1-5.723-2.95l-4.072-5.693a5.479 5.479 0 0 0-4.443-2.294H3.125a.781.781 0 0 1 0-1.563h2.256a7.05 7.05 0 0 1 5.723 2.95l4.072 5.693a5.478 5.478 0 0 0 4.443 2.294h1.152l-1.015-1.005a.791.791 0 0 1 1.113-1.114l2.344 2.344Zm-9.248-6.963a.781.781 0 0 0 1.094-.185l.117-.157a5.479 5.479 0 0 1 4.443-2.294h1.152l-1.015 1.005a.791.791 0 0 0 0 1.114.8.8 0 0 0 1.113 0l2.344-2.344a.791.791 0 0 0 0-1.113L20.869 4.13a.791.791 0 0 0-1.113 1.113L20.77 6.25H19.62a7.05 7.05 0 0 0-5.723 2.95l-.107.155a.78.78 0 0 0 .176 1.094Zm-2.93 4.102a.781.781 0 0 0-1.094.185l-.117.157a5.478 5.478 0 0 1-4.443 2.294H3.125a.781.781 0 1 0 0 1.563h2.256a7.052 7.052 0 0 0 5.723-2.95l.107-.155a.779.779 0 0 0-.176-1.094Z" fill="#1C3374"/></g></symbol><symbol id="audio-play" viewBox="0 0 47 47"><g fill="currentColor"><path d="M47 23.5a23.5 23.5 0 1 1-47 0 23.5 23.5 0 0 1 47 0Zm-27.054-8.54a1.468 1.468 0 0 0-2.321 1.196v14.688a1.468 1.468 0 0 0 2.32 1.195l10.282-7.343a1.469 1.469 0 0 0 0-2.392l-10.281-7.343Z"/></g></symbol><symbol id="audio-prev" viewBox="0 0 22 22"><g fill="currentColor"><path d="M18.563 19.25a.685.685 0 0 1-.345-.093L5.156 11.595a.687.687 0 0 1 0-1.19l13.062-7.562a.687.687 0 0 1 1.032.595v15.124a.687.687 0 0 1-.688.688ZM1.375 2.75H2.75v16.5H1.375V2.75Z"/></g></symbol><symbol id="audio-repeat" viewBox="0 0 25 25"><g fill="none"><path d="M20.145 8.185a6.25 6.25 0 0 1-4.21 10.558l-.31.008-5.146-.002 1.794 1.795a.781.781 0 0 1 .09.997l-.09.108a.78.78 0 0 1-.997.09l-.108-.09-3.128-3.128a.781.781 0 0 1-.089-.997l.09-.108 3.127-3.128a.781.781 0 0 1 1.196.997l-.091.11-1.794 1.791h5.146a4.687 4.687 0 0 0 4.68-4.41l.007-.275a4.672 4.672 0 0 0-1.353-3.296.782.782 0 0 1 1.075-1.133l.112.113h-.001Zm-6.42-4.924.109.09 3.127 3.128.09.11a.78.78 0 0 1 0 .887l-.09.109-3.127 3.126-.11.091a.781.781 0 0 1-.887 0l-.11-.09-.088-.11a.781.781 0 0 1 0-.887l.089-.11 1.793-1.792H9.375a4.688 4.688 0 0 0-4.68 4.413l-.008.275c0 1.28.514 2.44 1.345 3.287a.781.781 0 0 1-1.115 1.09 6.25 6.25 0 0 1 4.145-10.62l.313-.007 5.146-.002-1.793-1.792-.09-.11a.781.781 0 0 1 1.087-1.086Z" fill="#1C3374"/></g></symbol><symbol id="audio-share" viewBox="0 0 17 17"><g fill="none"><path d="M8.5 2.125v8.5m0-8.5L5.667 4.958M8.5 2.125l2.834 2.833m-9.917 7.084.44 1.76a1.417 1.417 0 0 0 1.374 1.073H13.77a1.416 1.416 0 0 0 1.374-1.073l.44-1.76" stroke="#1C3374" stroke-width="1.167" stroke-linecap="round" stroke-linejoin="round"/></g></symbol><symbol id="contacts-mail" viewBox="0 0 22 22"><g fill="none"><path d="M21 5.556v10.888c0 .86-.64 1.556-1.429 1.556H2.43C1.639 18 1 17.304 1 16.444V5.556m20 0C21 4.696 20.36 4 19.571 4H2.43C1.639 4 1 4.696 1 5.556m20 0-8.14 7.597c-1.07.999-2.65.999-3.72 0L1 5.556" stroke="#2D383F" stroke-linecap="round" stroke-linejoin="round"/></g></symbol><symbol id="contacts-phone" viewBox="0 0 22 22"><g fill="none"><g clip-path="url(#a)"><path d="M19.324 20.044c-.32.631-.98 1.023-1.681.946a18.752 18.752 0 0 1-11.244-5.41 18.878 18.878 0 0 1-5.39-11.288c-.076-.704.314-1.366.943-1.687l2.75-1.407c1.065-.545 2.353.09 2.727 1.23a18.671 18.671 0 0 0 1.297 3.018c.41.762.133 1.74-.652 2.098a1.806 1.806 0 0 0-.527 2.915l3.952 3.968c.887.89 2.385.617 2.904-.528.377-.833 1.398-1.134 2.209-.718a18.507 18.507 0 0 0 2.93 1.198c1.154.36 1.81 1.668 1.26 2.75l-1.478 2.915Z" stroke="#2D383F" stroke-linecap="round" stroke-linejoin="round"/></g></g></symbol><symbol id="contacts-pin" viewBox="0 0 22 22"><g fill="none"><path d="M18.5 8.147C18.5 4.2 15.142 1 11 1 6.858 1 3.5 4.2 3.5 8.147v.43c0 1.58.518 3.12 1.481 4.405l6.004 8.01c.007.01.023.01.03 0l6.004-8.01A7.338 7.338 0 0 0 18.5 8.578v-.43Z" stroke="#2D383F" stroke-linecap="round" stroke-linejoin="round"/><path d="M9.534 5.289a3.53 3.53 0 0 1 2.932 0c.926.425 1.6 1.23 1.828 2.184a3.105 3.105 0 0 1-.652 2.724A3.443 3.443 0 0 1 11 11.41c-1.028 0-2-.447-2.642-1.213a3.105 3.105 0 0 1-.652-2.724c.229-.955.902-1.759 1.828-2.184Z" stroke="#2D383F" stroke-linecap="round" stroke-linejoin="round"/></g></symbol><symbol id="header-logo-desktop" viewBox="0 0 205 62"><g fill="currentColor"><title id="title">&#x41b;&#x43e;&#x433;&#x43e;&#x442;&#x438;&#x43f; Lifetour.</title><g clip-path="url(#a)"><path d="m22.71 40.218 5.44-5.736 6.189 5.736h10.607L28.083 23.625 11.355 40.218h11.356Z"/><path d="m38.283 13.588-8.024 8.194 5.304 5.462 2.72-2.73 14.891 14.885c-3.4 9.081-12.103 15.568-22.371 15.568C17.61 54.967 6.936 44.247 6.936 31 7.004 17.753 17.679 7.033 30.87 7.033c11.695 0 21.487 8.535 23.46 19.665l7.207 7.648c.136-1.093.204-2.253.204-3.346 0-8.262-3.196-16.046-9.044-21.919C46.85 3.21 39.098 0 30.871 0 22.575 0 14.89 3.21 9.044 9.082 3.196 14.954 0 22.67 0 31s3.196 16.046 9.044 21.919C14.892 58.79 22.644 62 30.87 62c8.228 0 15.98-3.21 21.827-9.081 3.604-3.62 6.188-7.921 7.616-12.633.272-.819.476-1.707.68-2.526l-6.256-6.623-16.455-17.549ZM87.214 19.92h4.54l-2.477 12.502h7.658l-.734 3.615H84.004l3.21-16.117ZM101.208 19.92h4.539l-3.209 16.117h-4.54l3.21-16.117ZM112.806 23.443l-.711 3.546h7.085l-.711 3.522h-7.061l-1.101 5.526h-4.54l3.21-16.117h12.565l-.711 3.523h-8.025ZM127.448 23.443l-.527 2.717h7.13l-.665 3.407h-7.153l-.574 2.947h8.415l-.734 3.523h-12.862l3.21-16.117h12.564l-.711 3.523h-8.093ZM141.775 23.535h-4.93l.734-3.615h14.376l-.734 3.615h-4.906l-2.5 12.502h-4.539l2.499-12.502ZM158.879 36.36c-1.62 0-3.034-.3-4.242-.899-1.192-.598-2.117-1.435-2.774-2.51-.642-1.074-.963-2.302-.963-3.683 0-1.842.42-3.5 1.261-4.973a9.068 9.068 0 0 1 3.554-3.454c1.528-.829 3.263-1.243 5.204-1.243 1.621 0 3.027.3 4.219.898 1.208.599 2.132 1.435 2.774 2.51.658 1.074.986 2.302.986 3.683 0 1.842-.428 3.5-1.284 4.973-.84 1.474-2.025 2.625-3.553 3.454-1.514.829-3.241 1.243-5.182 1.243Zm.39-3.777c1.009 0 1.895-.253 2.659-.76a5.033 5.033 0 0 0 1.766-2.026c.412-.859.619-1.803.619-2.831 0-1.09-.336-1.957-1.009-2.602-.657-.66-1.582-.99-2.774-.99-1.009 0-1.896.253-2.66.76a4.997 4.997 0 0 0-1.765 2.049c-.413.844-.619 1.78-.619 2.809 0 1.09.328 1.964.985 2.624.673.645 1.605.967 2.798.967ZM177.421 36.36c-1.391 0-2.591-.231-3.6-.691-1.009-.476-1.781-1.152-2.316-2.026-.535-.875-.802-1.904-.802-3.086 0-.49.061-1.059.183-1.703l1.789-8.934h4.539l-1.765 8.864c-.092.461-.138.883-.138 1.267 0 1.688.887 2.532 2.66 2.532.963 0 1.719-.291 2.27-.874.565-.6.986-1.574 1.261-2.924l1.765-8.865h4.471l-1.811 9.14c-.978 4.866-3.814 7.3-8.506 7.3ZM204.157 25.055c0 1.473-.389 2.747-1.169 3.822-.779 1.059-1.872 1.834-3.279 2.325l2.729 4.835h-4.746l-2.385-4.282h-2.292l-.849 4.282h-4.539l3.209-16.117h6.856c2.048 0 3.638.453 4.769 1.359 1.131.905 1.696 2.164 1.696 3.776Zm-4.585.437c0-.66-.222-1.151-.665-1.473-.443-.338-1.062-.507-1.857-.507h-2.385l-.963 4.72h2.706c1.009 0 1.788-.238 2.338-.714.551-.476.826-1.151.826-2.026ZM87.026 51.233a3.105 3.105 0 0 1-1.507-.368 2.78 2.78 0 0 1-1.053-1.025 2.86 2.86 0 0 1-.374-1.458c0-.54.125-1.025.374-1.457a2.721 2.721 0 0 1 1.053-1.017c.452-.251.954-.377 1.507-.377.553 0 1.05.123 1.492.369.446.245.797.587 1.052 1.025.256.432.383.918.383 1.457 0 .54-.127 1.028-.383 1.466a2.722 2.722 0 0 1-1.052 1.017 3.014 3.014 0 0 1-1.492.368Zm0-.528c.442 0 .84-.1 1.197-.297.356-.203.635-.48.837-.833.202-.357.303-.755.303-1.193a2.34 2.34 0 0 0-.303-1.185 2.134 2.134 0 0 0-.837-.833 2.374 2.374 0 0 0-1.197-.304c-.44 0-.842.101-1.204.304a2.189 2.189 0 0 0-.845.833 2.34 2.34 0 0 0-.303 1.185c0 .438.1.836.303 1.193.207.353.489.63.845.833.362.198.763.297 1.204.297ZM93.387 46.94c.393 0 .75.091 1.069.273.319.176.569.427.75.753.18.325.27.696.27 1.113 0 .422-.09.795-.27 1.121-.181.326-.431.58-.75.76-.314.177-.67.265-1.069.265-.34 0-.649-.07-.925-.208a1.789 1.789 0 0 1-.67-.625v2.347h-.566v-5.766h.542v.833c.17-.278.394-.492.67-.641.282-.15.598-.224.949-.224Zm-.04 3.78c.293 0 .558-.066.798-.2a1.44 1.44 0 0 0 .558-.584c.138-.251.207-.537.207-.857 0-.32-.069-.603-.207-.849a1.44 1.44 0 0 0-.558-.585 1.56 1.56 0 0 0-.798-.208c-.298 0-.566.07-.805.208-.234.14-.42.334-.559.585-.133.246-.199.529-.199.849 0 .32.066.606.2.857.138.25.324.446.558.584.239.134.507.2.805.2ZM99.66 47.477h-2.4v3.708h-.567v-4.212h2.967v.504ZM101.921 46.94c.548 0 .968.14 1.26.417.293.272.439.678.439 1.217v2.611h-.542v-.657c-.128.22-.317.39-.566.513a1.938 1.938 0 0 1-.878.184c-.468 0-.84-.112-1.116-.336a1.087 1.087 0 0 1-.415-.89c0-.357.128-.645.383-.864.26-.219.672-.328 1.236-.328h1.332v-.257c0-.363-.101-.638-.303-.825-.202-.192-.497-.288-.885-.288-.266 0-.521.046-.766.136a1.865 1.865 0 0 0-.63.36l-.255-.424c.212-.181.468-.32.765-.416.298-.102.612-.152.941-.152Zm-.199 3.837c.319 0 .593-.072.821-.217.229-.15.399-.363.511-.64v-.689h-1.316c-.718 0-1.077.25-1.077.753a.7.7 0 0 0 .279.584c.187.14.447.209.782.209ZM105.127 46.973h.567v1.866h2.639v-1.866h.566v4.212h-.566v-1.858h-2.639v1.858h-.567v-4.212ZM110.509 46.973h.566v3.347l2.799-3.347h.503v4.212h-.567v-3.347l-2.791 3.347h-.51v-4.212ZM117.955 48.99c.298.07.527.19.686.361.165.171.247.38.247.625a.964.964 0 0 1-.255.657 1.613 1.613 0 0 1-.678.448 2.828 2.828 0 0 1-.949.152c-.303 0-.601-.043-.893-.128a2.367 2.367 0 0 1-.766-.392l.192-.425c.191.144.415.256.67.336.255.08.513.12.773.12.388 0 .705-.072.949-.216.25-.15.375-.35.375-.6a.578.578 0 0 0-.303-.52c-.202-.129-.478-.193-.829-.193h-.718v-.416h.686c.313 0 .566-.06.757-.177.192-.122.287-.285.287-.488 0-.224-.109-.4-.326-.529-.213-.128-.492-.192-.838-.192-.452 0-.898.115-1.34.345l-.159-.44a3.312 3.312 0 0 1 1.555-.393c.319 0 .606.048.861.144.261.09.463.221.606.392.149.171.224.369.224.593a.826.826 0 0 1-.224.568 1.27 1.27 0 0 1-.59.369ZM121.617 46.94c.548 0 .968.14 1.26.417.293.272.439.678.439 1.217v2.611h-.543v-.657c-.127.22-.316.39-.566.513a1.933 1.933 0 0 1-.877.184c-.468 0-.84-.112-1.116-.336a1.087 1.087 0 0 1-.415-.89c0-.357.127-.645.383-.864.26-.219.672-.328 1.236-.328h1.332v-.257c0-.363-.101-.638-.304-.825-.202-.192-.497-.288-.885-.288-.266 0-.521.046-.765.136a1.865 1.865 0 0 0-.63.36l-.256-.424a2.21 2.21 0 0 1 .766-.416c.298-.102.611-.152.941-.152Zm-.199 3.837c.319 0 .593-.072.821-.217.229-.15.399-.363.511-.64v-.689h-1.316c-.718 0-1.077.25-1.077.753a.7.7 0 0 0 .279.584c.186.14.447.209.782.209ZM129.193 50.688v1.554h-.534v-1.057h-3.836v-4.212h.566v3.715h2.56v-3.715h.566v3.715h.678ZM130.275 46.973h.566v3.347l2.799-3.347h.502v4.212h-.566v-3.347l-2.791 3.347h-.51v-4.212ZM138.987 46.973v4.212h-.518v-1.393h-1.476l-.973 1.393h-.614l1.045-1.474c-.324-.09-.574-.245-.75-.464-.175-.219-.263-.496-.263-.833 0-.47.16-.827.479-1.073.319-.245.755-.368 1.308-.368h1.762Zm-2.975 1.457c0 .625.396.937 1.189.937h1.268v-1.89h-1.229c-.818 0-1.228.318-1.228.953ZM146.453 46.973v4.212h-.566v-3.708h-2.632v3.708h-.566v-4.212h3.764ZM149.793 51.225c-.404 0-.768-.09-1.093-.272a2.04 2.04 0 0 1-.765-.769 2.188 2.188 0 0 1-.279-1.105c0-.411.093-.78.279-1.105.186-.326.441-.58.765-.761a2.201 2.201 0 0 1 1.093-.272c.404 0 .768.09 1.092.272.325.181.577.435.758.76.186.326.279.695.279 1.106 0 .41-.093.78-.279 1.105a1.98 1.98 0 0 1-.758.769 2.196 2.196 0 0 1-1.092.272Zm0-.505c.298 0 .563-.066.797-.2.24-.139.426-.333.559-.584.133-.251.199-.537.199-.857 0-.32-.066-.606-.199-.857a1.386 1.386 0 0 0-.559-.577 1.53 1.53 0 0 0-.797-.208c-.298 0-.566.07-.806.208-.234.134-.42.326-.558.577-.133.25-.199.536-.199.857 0 .32.066.606.199.857.138.25.324.446.558.584.24.134.508.2.806.2ZM155.608 51.185l-1.332-1.762-1.34 1.762h-.638l1.659-2.162-1.579-2.05h.638l1.26 1.65 1.26-1.65h.622l-1.579 2.05 1.675 2.162h-.646ZM158.765 51.225a2.2 2.2 0 0 1-1.093-.272 2.05 2.05 0 0 1-.766-.769 2.188 2.188 0 0 1-.279-1.105c0-.411.093-.78.279-1.105.187-.326.442-.58.766-.761a2.198 2.198 0 0 1 1.093-.272c.404 0 .768.09 1.092.272.324.181.577.435.758.76.186.326.279.695.279 1.106 0 .41-.093.78-.279 1.105a1.987 1.987 0 0 1-.758.769 2.196 2.196 0 0 1-1.092.272Zm0-.505c.297 0 .563-.066.797-.2.239-.139.425-.333.558-.584.133-.251.2-.537.2-.857 0-.32-.067-.606-.2-.857a1.39 1.39 0 0 0-.558-.577 1.533 1.533 0 0 0-.797-.208c-.298 0-.567.07-.806.208-.234.134-.42.326-.558.577-.133.25-.199.536-.199.857 0 .32.066.606.199.857.138.25.324.446.558.584.239.134.508.2.806.2ZM166.172 50.688v1.514h-.535v-1.017h-3.756v1.017h-.534v-1.514h.239c.282-.016.473-.224.574-.624.101-.4.171-.961.208-1.682l.056-1.41h3.094v3.716h.654Zm-3.286-2.274a10.636 10.636 0 0 1-.151 1.482c-.075.384-.208.648-.399.792h2.616v-3.21h-2.018l-.048.936ZM169.006 51.225c-.404 0-.768-.09-1.093-.272a2.04 2.04 0 0 1-.765-.769 2.19 2.19 0 0 1-.28-1.105c0-.411.094-.78.28-1.105.186-.326.441-.58.765-.761a2.201 2.201 0 0 1 1.093-.272c.404 0 .768.09 1.092.272.325.181.577.435.758.76.186.326.279.695.279 1.106 0 .41-.093.78-.279 1.105a1.98 1.98 0 0 1-.758.769 2.196 2.196 0 0 1-1.092.272Zm0-.505c.297 0 .563-.066.797-.2.239-.139.426-.333.558-.584.133-.251.2-.537.2-.857 0-.32-.067-.606-.2-.857a1.383 1.383 0 0 0-.558-.577 1.533 1.533 0 0 0-.797-.208c-.298 0-.566.07-.806.208-.234.134-.42.326-.558.577-.133.25-.199.536-.199.857 0 .32.066.606.199.857.138.25.324.446.558.584.24.134.508.2.806.2ZM175.017 49.007c.569.133.853.478.853 1.033 0 .368-.136.651-.407.849-.271.197-.675.296-1.212.296h-1.906v-4.212h1.85c.479 0 .854.093 1.125.28.271.187.407.454.407.8a.94.94 0 0 1-.192.593c-.122.16-.295.28-.518.36Zm-2.122-.16h1.26c.325 0 .572-.062.742-.185.176-.122.263-.301.263-.536 0-.235-.087-.411-.263-.529-.17-.117-.417-.176-.742-.176h-1.26v1.426Zm1.332 1.89c.362 0 .633-.06.814-.177.18-.117.271-.301.271-.552 0-.251-.083-.435-.247-.553-.165-.122-.426-.184-.782-.184h-1.388v1.466h1.332ZM181.956 49.007c.569.133.853.478.853 1.033 0 .368-.135.651-.407.849-.271.197-.675.296-1.212.296h-1.906v-4.212h1.85c.479 0 .854.093 1.125.28.271.187.407.454.407.8a.94.94 0 0 1-.192.593c-.122.16-.295.28-.518.36Zm-2.121-.16h1.26c.324 0 .571-.062.741-.185.176-.122.263-.301.263-.536 0-.235-.087-.411-.263-.529-.17-.117-.417-.176-.741-.176h-1.26v1.426Zm1.331 1.89c.362 0 .633-.06.814-.177.181-.117.271-.301.271-.552 0-.251-.083-.435-.247-.553-.165-.122-.426-.184-.782-.184h-1.387v1.466h1.331ZM189.19 47.477h-2.4v3.708h-.567v-4.212h2.967v.504ZM191.544 51.225c-.404 0-.768-.09-1.092-.272a2.035 2.035 0 0 1-.766-.769 2.188 2.188 0 0 1-.279-1.105c0-.411.093-.78.279-1.105.186-.326.441-.58.766-.761a2.195 2.195 0 0 1 1.092-.272c.404 0 .768.09 1.093.272.324.181.577.435.757.76.186.326.279.695.279 1.106 0 .41-.093.78-.279 1.105-.18.326-.433.582-.757.769a2.202 2.202 0 0 1-1.093.272Zm0-.505c.298 0 .564-.066.798-.2.239-.139.425-.333.558-.584.133-.251.199-.537.199-.857 0-.32-.066-.606-.199-.857a1.39 1.39 0 0 0-.558-.577 1.534 1.534 0 0 0-.798-.208c-.298 0-.566.07-.805.208-.234.134-.42.326-.559.577-.133.25-.199.536-.199.857 0 .32.066.606.199.857.139.25.325.446.559.584.239.134.507.2.805.2ZM197.045 46.94c.393 0 .749.091 1.068.273.319.176.569.427.75.753.181.325.271.696.271 1.113 0 .422-.09.795-.271 1.121-.181.326-.431.58-.75.76-.313.177-.67.265-1.068.265-.341 0-.649-.07-.925-.208a1.779 1.779 0 0 1-.67-.625v2.347h-.566v-5.766h.542v.833a1.75 1.75 0 0 1 .67-.641 1.99 1.99 0 0 1 .949-.224Zm-.04 3.78c.292 0 .558-.066.797-.2.24-.139.426-.333.559-.584.138-.251.207-.537.207-.857 0-.32-.069-.603-.207-.849a1.438 1.438 0 0 0-.559-.585 1.559 1.559 0 0 0-.797-.208c-.298 0-.566.07-.806.208a1.51 1.51 0 0 0-.558.585 1.754 1.754 0 0 0-.199.849c0 .32.066.606.199.857.138.25.324.446.558.584.24.134.508.2.806.2ZM202.113 48.462c.526.006.928.123 1.204.353.277.23.415.56.415.993 0 .448-.149.792-.447 1.033-.297.24-.723.357-1.276.352l-1.658-.008v-4.212h.566v1.473l1.196.016Zm2.321-1.49H205v4.213h-.566v-4.212Zm-2.456 3.789c.388.005.68-.073.877-.233.202-.165.303-.405.303-.72 0-.31-.099-.54-.295-.69-.197-.149-.492-.226-.885-.231l-1.061-.016v1.874l1.061.016Z"/></g></g></symbol><symbol id="hero-feature-grade" viewBox="0 0 12 12"><g fill="none"><g clip-path="url(#a)" stroke="#fff" stroke-miterlimit="16" stroke-linecap="round"><path d="M10.91 11.455H8.944V.545h1.964v10.91ZM6.982 11.455V3.52H5.018v7.934h1.964ZM3.055 11.455v-4.96H1.09v4.96h1.964Z"/></g></g></symbol><symbol id="hero-feature-moon" viewBox="0 0 12 12"><g fill="none"><g clip-path="url(#a)"><path d="M11.197 6.754a.382.382 0 0 0-.321.07c-.362.308-.78.56-1.24.727a3.873 3.873 0 0 1-1.409.252c-1.13 0-2.16-.462-2.9-1.203a4.121 4.121 0 0 1-1.199-2.91c0-.476.084-.937.223-1.357a3.76 3.76 0 0 1 .67-1.203.358.358 0 0 0-.056-.504.382.382 0 0 0-.32-.07 5.625 5.625 0 0 0-2.956 1.987 5.553 5.553 0 0 0 .474 7.289 5.49 5.49 0 0 0 3.903 1.623 5.532 5.532 0 0 0 3.416-1.19 5.518 5.518 0 0 0 1.952-3.063c.07-.21-.042-.406-.237-.448ZM9.064 9.678A4.776 4.776 0 0 1 2.707 9.3a4.81 4.81 0 0 1-1.409-3.4c0-1.105.363-2.112.99-2.924a4.797 4.797 0 0 1 1.603-1.343 4.67 4.67 0 0 0-.46 2.07c0 1.33.544 2.547 1.408 3.415A4.809 4.809 0 0 0 8.241 8.53c.586 0 1.143-.098 1.66-.294.18-.07.362-.14.529-.224a5.087 5.087 0 0 1-1.366 1.665Z" fill="#fff"/></g></g></symbol><symbol id="icon-close" viewBox="0 0 20 20"><g fill="none"><path d="M.293 18.291a1 1 0 101.414 1.414L10 11.413l8.292 8.292a1 1 0 101.414-1.414l-8.292-8.292 8.292-8.292A1 1 0 1018.291.293L9.999 8.585 1.707.293A1 1 0 10.293 1.707L8.585 10 .293 18.291z"/></g></symbol><symbol id="ok" viewBox="0 0 9 16"><g fill="currentColor"><path d="M4.5 2.42c.916 0 1.66.767 1.66 1.71 0 .94-.744 1.708-1.66 1.708-.916 0-1.66-.767-1.66-1.708 0-.943.744-1.71 1.66-1.71Zm0 5.838c2.212 0 4.011-1.852 4.011-4.127C8.511 1.851 6.712 0 4.5 0S.492 1.852.492 4.13c0 2.276 1.796 4.128 4.008 4.128Zm1.622 3.37a7.441 7.441 0 0 0 2.328-.995 1.231 1.231 0 0 0 .37-1.667 1.154 1.154 0 0 0-1.622-.381 4.97 4.97 0 0 1-5.399 0 1.15 1.15 0 0 0-1.619.38 1.231 1.231 0 0 0 .37 1.668 7.441 7.441 0 0 0 2.328.994L.635 13.934a1.236 1.236 0 0 0 0 1.71c.232.236.53.355.83.355.301 0 .602-.119.834-.355L4.5 13.377l2.204 2.267c.458.475 1.2.475 1.66 0a1.236 1.236 0 0 0 0-1.71l-2.242-2.307Z"/></g></symbol><symbol id="reddit" viewBox="0 0 14 15"><g fill="currentColor"><path d="M8.362 0c-.45 0-.87.244-1.14.596-.27.352-.42.78-.528 1.233-.173.727-.226 1.533-.239 2.26a7.031 7.031 0 0 0-3.353 1.11c-.385-.347-.849-.54-1.294-.535-.506.006-.987.24-1.344.72C-.22 6.3-.14 7.8.65 8.692a4.816 4.816 0 0 0-.085.842C.566 12.554 3.446 15 7 15c3.553 0 6.434-2.448 6.434-5.466a4.82 4.82 0 0 0-.085-.842c.791-.891.87-2.391.187-3.308-.357-.48-.838-.714-1.345-.72-.444-.005-.908.188-1.293.535a7.029 7.029 0 0 0-3.336-1.11c.017-.67.061-1.366.187-1.89.079-.33.172-.568.272-.699.1-.131.173-.185.34-.185.365 0 .411.126.63.432.111.154.239.346.443.534.204.187.506.35.834.35V1.314c-.091 0-.108-.002-.17-.062-.062-.059-.147-.195-.272-.37C9.574.533 9.087 0 8.362 0Zm3.54.123c-.847 0-1.532.827-1.532 1.85 0 1.022.685 1.849 1.532 1.849s1.532-.827 1.532-1.85c0-1.022-.685-1.849-1.532-1.849Zm0 .658c.545 0 .987.534.987 1.192 0 .657-.442 1.191-.987 1.191-.544 0-.987-.534-.987-1.191 0-.658.443-1.192.987-1.192ZM7 5.116c3.015 0 5.566 2.027 5.566 4.418 0 2.394-2.551 4.418-5.566 4.418-3.015 0-5.566-2.024-5.566-4.418 0-2.391 2.551-4.418 5.566-4.418Zm-5.174.596c.15.003.308.044.46.124-.548.5-.982 1.076-1.278 1.726-.204-.509-.148-1.143.103-1.48a.863.863 0 0 1 .715-.37Zm10.348 0a.863.863 0 0 1 .715.37c.252.337.307.971.103 1.48a5.343 5.343 0 0 0-1.277-1.726c.151-.08.308-.121.46-.124ZM4.822 7.356c-.544 0-.987.534-.987 1.192 0 .657.443 1.192.987 1.192.545 0 .988-.535.988-1.192 0-.658-.443-1.192-.988-1.192Zm4.358 0c-.545 0-.988.534-.988 1.192 0 .657.443 1.192.988 1.192.544 0 .987-.535.987-1.192 0-.658-.443-1.192-.987-1.192Zm-4.885 4.048C4.64 12.27 5.713 13.11 7 13.11s2.377-.84 2.723-1.706c-.63.49-1.623.822-2.723.822-1.1 0-2.077-.331-2.706-.822Z"/></g></symbol><symbol id="slider-button-next" viewBox="0 0 14 8"><g fill="currentColor"><path d="M13.354 4.354a.5.5 0 0 0 0-.708L10.172.464a.5.5 0 0 0-.708.708L12.293 4 9.464 6.828a.5.5 0 1 0 .708.708l3.182-3.182ZM0 4.5h13v-1H0v1Z"/></g></symbol><symbol id="slider-button-prev" viewBox="0 0 14 8"><g fill="currentColor"><path d="M.646 4.354a.5.5 0 0 1 0-.708L3.828.464a.5.5 0 1 1 .708.708L1.707 4l2.829 2.828a.5.5 0 1 1-.708.708L.646 4.354ZM14 4.5H1v-1h13v1Z"/></g></symbol><symbol id="tours-link-arrow" viewBox="0 0 9 14"><g fill="none" stroke="currentColor" stroke-width="2">
  <path d="M1 13L7 7L0.999999 1"/>
</g></symbol><symbol id="tours-moon" viewBox="0 0 20 20"><g fill="none"><path d="M19.527 11.382a.7.7 0 0 0-.588.128 7.495 7.495 0 0 1-2.274 1.334 7.1 7.1 0 0 1-2.582.462A7.503 7.503 0 0 1 8.767 11.1a7.556 7.556 0 0 1-2.198-5.335c0-.872.153-1.718.409-2.488.28-.82.69-1.565 1.227-2.206a.656.656 0 0 0-.103-.923.701.701 0 0 0-.588-.128C5.342.61 3.45 1.918 2.096 3.662A10.18 10.18 0 0 0 0 9.843c0 2.796 1.125 5.335 2.965 7.182A10.066 10.066 0 0 0 10.12 20c2.352 0 4.524-.82 6.263-2.18a10.118 10.118 0 0 0 3.578-5.617c.128-.385-.077-.744-.435-.821Zm-3.91 5.36a8.715 8.715 0 0 1-5.444 1.899c-2.429 0-4.627-1-6.211-2.59A8.817 8.817 0 0 1 1.38 9.816c0-2.026.665-3.872 1.815-5.36a8.795 8.795 0 0 1 2.94-2.462c-.129.282-.256.564-.359.872-.332.923-.485 1.898-.485 2.924 0 2.436.997 4.668 2.581 6.258a8.816 8.816 0 0 0 6.237 2.59 8.53 8.53 0 0 0 3.041-.538c.333-.128.665-.257.972-.41a9.324 9.324 0 0 1-2.505 3.052Z" fill="#fff"/></g></symbol><symbol id="tours-pin" viewBox="0 0 9 12"><g fill="none">
  <path d="M4.49981 0C2.01874 0 0 1.98191 0 4.41796C0 5.05338 0.132472 5.66006 0.39354 6.2213C1.51862 8.63833 3.67571 11.1902 4.31017 11.9146C4.35771 11.9688 4.42701 12 4.49994 12C4.57287 12 4.64217 11.9688 4.6897 11.9146C5.32392 11.1903 7.48101 8.63857 8.60646 6.2213C8.86765 5.66006 9 5.05338 9 4.41796C8.99975 1.98191 6.98101 0 4.49981 0ZM4.49981 6.71267C3.21099 6.71267 2.16234 5.68315 2.16234 4.41784C2.16234 3.15241 3.21099 2.12289 4.49981 2.12289C5.78864 2.12289 6.83728 3.15241 6.83728 4.41784C6.83741 5.68315 5.78876 6.71267 4.49981 6.71267Z" fill="white"/>
</g></symbol><symbol id="tours-star" viewBox="0 0 15 14"><g clip-path="url(#a)"><path d="m7.745 10.605-.245-.138-.245.138-3.624 2.04.945-3.794.078-.31-.248-.2-3.118-2.522 4.145-.332.294-.023.122-.268L7.5 1.559l1.652 3.637.121.268.294.023 4.145.332-3.118 2.522-.247.2.077.31.945 3.794-3.624-2.04Z" stroke="#fff"/></g></symbol><symbol id="tours-sun" viewBox="0 0 20 20"><g fill="none"><path d="M13.545 6.455c-.9-.9-2.17-1.481-3.545-1.481a4.934 4.934 0 0 0-3.545 1.481c-.9.9-1.481 2.17-1.481 3.545 0 1.376.582 2.646 1.481 3.545.9.9 2.17 1.482 3.545 1.482a4.934 4.934 0 0 0 3.545-1.482c.9-.9 1.482-2.17 1.482-3.545a4.934 4.934 0 0 0-1.482-3.545Zm-.952 6.138A3.66 3.66 0 0 1 10 13.65a3.66 3.66 0 0 1-2.593-1.058A3.66 3.66 0 0 1 6.35 10a3.66 3.66 0 0 1 1.058-2.593A3.66 3.66 0 0 1 10 6.35a3.66 3.66 0 0 1 2.593 1.058A3.66 3.66 0 0 1 13.65 10a3.66 3.66 0 0 1-1.058 2.593ZM19.312 9.312h-2.037a.7.7 0 0 0-.688.688.7.7 0 0 0 .688.688h2.037A.7.7 0 0 0 20 10a.7.7 0 0 0-.688-.688ZM10 16.587a.7.7 0 0 0-.688.688v2.037A.7.7 0 0 0 10 20a.7.7 0 0 0 .688-.688v-2.037a.7.7 0 0 0-.688-.688ZM17.064 16.111l-1.456-1.455c-.238-.264-.687-.264-.952 0a.67.67 0 0 0 0 .952l1.455 1.455a.67.67 0 0 0 .953 0 .67.67 0 0 0 0-.952ZM10 0a.7.7 0 0 0-.688.688v2.037a.7.7 0 0 0 .688.688.7.7 0 0 0 .688-.688V.688A.7.7 0 0 0 10 0ZM17.09 2.937a.67.67 0 0 0-.952 0l-1.456 1.455a.67.67 0 0 0 0 .952c.239.264.688.264.953 0l1.455-1.455a.67.67 0 0 0 0-.952ZM2.725 9.312H.688A.7.7 0 0 0 0 10c0 .37.291.688.688.688h2.037A.7.7 0 0 0 3.413 10a.7.7 0 0 0-.688-.688ZM5.317 14.656c-.238-.264-.687-.264-.952 0L2.91 16.111a.67.67 0 0 0 0 .952.67.67 0 0 0 .952 0l1.455-1.455a.67.67 0 0 0 0-.952ZM5.317 4.392 3.862 2.937a.67.67 0 0 0-.952 0 .67.67 0 0 0 0 .952l1.455 1.455a.67.67 0 0 0 .952 0 .67.67 0 0 0 0-.952Z" fill="#fff"/></g></symbol><symbol id="trainers-vk" viewBox="0 0 14 8"><g fill="currentColor"><path d="M13.926 7.225a.967.967 0 0 0-.048-.091c-.243-.439-.707-.976-1.392-1.614l-.014-.015-.008-.007-.007-.007h-.007a8.422 8.422 0 0 1-.59-.599c-.152-.194-.185-.392-.103-.591.058-.151.277-.47.656-.956.2-.258.357-.465.474-.621.84-1.12 1.205-1.835 1.093-2.146l-.043-.073c-.03-.044-.105-.084-.226-.12a1.146 1.146 0 0 0-.467-.019l-2.099.015A.272.272 0 0 0 11 .384l-.095.022-.036.019-.029.022a.325.325 0 0 0-.08.076.499.499 0 0 0-.073.128 11.93 11.93 0 0 1-.78 1.643c-.18.301-.345.563-.496.784-.15.222-.277.385-.379.49a2.645 2.645 0 0 1-.277.251c-.082.064-.145.09-.19.08a5.363 5.363 0 0 1-.123-.029.485.485 0 0 1-.164-.178.802.802 0 0 1-.084-.285 3.144 3.144 0 0 1-.022-.646c.005-.151.008-.253.008-.307 0-.185.003-.386.01-.602l.019-.515c.005-.126.007-.26.007-.401a1.69 1.69 0 0 0-.026-.333A1.138 1.138 0 0 0 8.113.37a.393.393 0 0 0-.15-.175.842.842 0 0 0-.244-.1 4.843 4.843 0 0 0-.984-.094c-.904-.01-1.484.049-1.742.175a.982.982 0 0 0-.277.22c-.087.106-.1.165-.036.174.291.044.498.149.62.314l.043.088c.034.063.068.175.102.336.034.16.056.338.066.533.024.355.024.66 0 .912-.025.253-.048.45-.07.592a1.186 1.186 0 0 1-.186.503.126.126 0 0 1-.036.037.545.545 0 0 1-.197.036c-.068 0-.15-.034-.248-.102a1.75 1.75 0 0 1-.302-.281 3.76 3.76 0 0 1-.354-.5 8.73 8.73 0 0 1-.408-.76l-.116-.211a18.229 18.229 0 0 1-.3-.595c-.126-.26-.237-.512-.335-.756a.481.481 0 0 0-.174-.233L2.748.46a.773.773 0 0 0-.284-.11L.467.366C.263.366.124.412.05.505l-.03.043A.236.236 0 0 0 0 .665c0 .054.015.12.044.197.291.687.608 1.348.951 1.986.343.638.64 1.151.893 1.54.253.39.51.757.772 1.103.263.345.437.567.522.664.085.098.152.17.2.22l.182.174c.117.117.288.257.514.42.226.163.477.324.751.482.275.158.594.287.959.387.364.1.719.14 1.064.12h.838c.17-.014.299-.068.387-.16l.029-.037a.484.484 0 0 0 .054-.135.743.743 0 0 0 .026-.2c-.005-.21.01-.398.047-.566.036-.168.078-.295.124-.38a.933.933 0 0 1 .28-.321.477.477 0 0 1 .059-.026c.117-.039.254 0 .412.114.158.114.306.255.445.423.138.168.304.357.499.566.194.21.364.365.51.467l.146.088c.097.058.223.112.379.16.155.049.291.061.408.037l1.866-.03c.185 0 .328-.03.43-.09.102-.061.163-.128.182-.201a.566.566 0 0 0 .004-.249.923.923 0 0 0-.051-.193Z"/></g></symbol><symbol id="training-icon-1" viewBox="0 0 19 19"><g fill="none"><g clip-path="url(#a)" fill="#2D383F"><path d="M18.369 16.933V5.093a.352.352 0 0 0-.458-.352v.018l-1.584.496c.166-.444.265-.91.293-1.383a3.872 3.872 0 0 0-7.744 0c.025.45.116.895.271 1.32L6.53 4.254a.375.375 0 0 0-.092 0H6.41a.352.352 0 0 0-.123.025L.856 6.392a.352.352 0 0 0-.226.295v11.854a.352.352 0 0 0 .479.328l5.307-2.056 6.054 2.169a.351.351 0 0 0 .225 0l5.427-1.697a.352.352 0 0 0 .247-.352ZM12.748.703a3.168 3.168 0 0 1 3.168 3.169c0 1.376-2.066 5.177-3.168 7.039C11.646 9.035 9.58 5.23 9.58 3.87A3.168 3.168 0 0 1 12.748.705Zm4.928 15.987-4.738 1.482v-2.686a.352.352 0 0 0-.704 0v2.661l-5.47-1.957v-2.252a.352.352 0 0 0-.703 0v2.252l-4.727 1.841V12.59l1.739-.704a.352.352 0 1 0-.261-.651l-1.478.595v-4.9L6.06 5.1v1.056a.352.352 0 0 0 .704 0v-1.07l2.7.968a48.885 48.885 0 0 0 2.98 5.744.352.352 0 0 0 .602 0 49.094 49.094 0 0 0 2.97-5.709l1.648-.517.01 5.768-1.784.433a.355.355 0 0 0 .085.704.351.351 0 0 0 .084 0l1.616-.394v4.607Z"/><path d="M12.734 1.827a2.045 2.045 0 1 0 0 4.09 2.045 2.045 0 0 0 0-4.09Zm0 3.386a1.344 1.344 0 0 1-1.326-1.341h-.015a1.34 1.34 0 1 1 1.341 1.34ZM8.13 10.616v.01L6.427 9.89a.352.352 0 0 0-.271 0l-1.44.581a.353.353 0 0 0 .264.655l1.302-.525 1.567.662a.353.353 0 0 0 .14.028.352.352 0 0 0 .141-.675ZM13.885 12.628a.352.352 0 0 0-.398-.242l.004-.028-.873.21-1.479-.64a.353.353 0 0 0-.281.648l1.584.704a.351.351 0 0 0 .14.028h.085l.986-.24a.352.352 0 0 0 .232-.44Z"/></g></g></symbol><symbol id="training-icon-2" viewBox="0 0 19 19"><g fill="none"><path d="M18.73 12.363c.59-1.85.104-3.947-.412-5.401a.338.338 0 0 0-.05-.159c-.176-.472-.338-.86-.476-1.14a.675.675 0 0 0 .425-.62v-2.81a.675.675 0 0 0-.675-.675H9.254a.337.337 0 0 0-.338.357c.115 2.024-.033 3.397-.462 4.365a.304.304 0 0 0-.023.03.336.336 0 0 0 0 .051 3.491 3.491 0 0 1-.655.955l-.03.02v.024a4.869 4.869 0 0 1-1.35.91c-.867.385-1.757.717-2.664.992l-.172.058C.405 10.365-.006 12.26 0 13.213v2.449c.001.117.062.225.163.286.773.47 1.607.832 2.479 1.073a.337.337 0 0 0 .428-.337v-.078h.496v.337a.337.337 0 0 0 .284.338c.293.047.587.084.873.108a.337.337 0 0 0 .365-.338v-.425h.496v.48c0 .186.15.337.337.337.283 0 .567 0 .87-.04a.337.337 0 0 0 .31-.338v-.439h.496v.297a.337.337 0 0 0 .392.338c.619-.095 1.23-.24 1.825-.436l.054-.023c2.361-1.35 3.859-.24 3.92-.192.058.045.13.07.205.07h.419a.337.337 0 0 0 .337-.337v-.57h.482v.563c0 .187.151.338.338.338h1.086a.337.337 0 0 0 .337-.338v-.563h.5v.563c0 .187.15.338.337.338h.833a.337.337 0 0 0 .337-.338V12.7a.337.337 0 0 0-.27-.337ZM10.725 2.239h6.8v2.793h-6.8V2.24Zm-4.24 6.727.003.02c.276.224.531.474.762.745a.638.638 0 0 0-.091.338.644.644 0 1 0 .702-.638 5.202 5.202 0 0 0-.726-.8 5.23 5.23 0 0 0 .847-.6c.327.307.632.637.91.988a.644.644 0 1 0 .605-.431h-.081a9.866 9.866 0 0 0-.965-1.05c.16-.197.303-.41.425-.634.522.272 1.027.576 1.511.911a.651.651 0 1 0 .361-.577c-.51-.345-1.04-.658-1.589-.937.368-.979.527-2.277.452-4.048h.442v2.793c0 .372.302.674.675.674h6.322c.087.18.236.49.398.894h-.139a3.71 3.71 0 0 0-2.186 6.69c-2.729.718-6.834 1.572-10.288 1.349.637-2.547-.125-4.116-.621-4.804.772-.253 1.53-.548 2.27-.883Zm-2.95 1.076c.365.428 1.317 1.868.618 4.517a8.473 8.473 0 0 1-3.46-1.046 2.143 2.143 0 0 1-.024-.233v-.024c-.027-.718.242-2.273 2.867-3.214Zm14.631 5.957v-.563a.337.337 0 0 0-.337-.338h-1.17a.337.337 0 0 0-.338.338v.563h-.415v-.563a.337.337 0 0 0-.337-.338h-1.164a.337.337 0 0 0-.337.338v.55c-.46-.287-2.136-1.12-4.514.209-.423.14-.855.252-1.292.337v-.233a.337.337 0 0 0-.337-.337H6.76a.337.337 0 0 0-.338.337v.462h-.172v-.472a.337.337 0 0 0-.337-.337h-1.17a.337.337 0 0 0-.338.337v.401l-.172-.023v-.378a.337.337 0 0 0-.337-.337h-1.17a.337.337 0 0 0-.338.297 9.095 9.095 0 0 1-1.72-.773v-1.208c1.47.78 3.373 1.073 5.397 1.073 5.377 0 11.53-2.058 12.255-2.304L18.325 16h-.159Zm-.165-3.559c-.287.095-.992.337-1.967.597a3.036 3.036 0 0 1 1.673-5.748l.004.01c.496 1.43.94 3.471.29 5.141Z" fill="#2D383F"/><path d="M12.024 2.647a.982.982 0 1 0 0 1.963.982.982 0 0 0 0-1.963Zm0 1.289a.307.307 0 1 1 0-.614.307.307 0 0 1 0 .614Z" fill="#2D383F"/></g></symbol><symbol id="training-icon-3" viewBox="0 0 19 23"><g fill="none"><g clip-path="url(#a)"><path d="m18.69 16.336-3.73-4.8h1.802c.21 0 .38-.192.38-.43a.464.464 0 0 0-.079-.26L14.07 6.42h1.524c.21 0 .38-.193.38-.43a.46.46 0 0 0-.095-.282L12.215 1.02a.352.352 0 0 0-.571 0L7.974 5.704a.467.467 0 0 0 .028.605c.07.072.163.112.258.11h1.543L8.88 7.775 6.413 4.616a.352.352 0 0 0-.572 0L2.706 8.622a.467.467 0 0 0 .035.605c.07.069.158.107.25.107H4.2l-2.506 3.69a.464.464 0 0 0 .083.598c.063.053.14.081.218.083h1.41L.305 17.712a.467.467 0 0 0 .042.604.357.357 0 0 0 .244.103h4.213v3c0 .459.33.831.739.831h1.162c.408.002.74-.368.743-.827v-3.004h3.161v3c0 .459.331.831.74.831h1.161c.408 0 .74-.372.74-.831v-4.372h5.153c.21 0 .38-.192.38-.429a.46.46 0 0 0-.094-.282ZM6.687 21.393l-1.12.026-.023-3h1.143v2.974Zm3.923-3.831H1.43l3.116-3.999a.467.467 0 0 0-.027-.605.358.358 0 0 0-.266-.11H2.767l2.507-3.69a.465.465 0 0 0-.07-.6.355.355 0 0 0-.231-.09H3.83l2.285-2.927L8.401 8.46l-1.608 2.39a.465.465 0 0 0 .07.602.355.355 0 0 0 .231.089H8.9l-3.73 4.8a.467.467 0 0 0 .035.604c.07.069.159.107.251.107h5.154v.51Zm1.878 3.822-1.116.035-.023-4.372h1.143l-.004 4.337Zm.023-5.194H6.294l3.73-4.8a.467.467 0 0 0-.035-.604.358.358 0 0 0-.251-.107h-1.87l3.009-4.43a.465.465 0 0 0-.076-.6.354.354 0 0 0-.225-.086H9.117l2.827-3.609 2.81 3.609h-1.47c-.21 0-.38.193-.38.43 0 .093.028.185.08.26l2.99 4.426h-1.855c-.21 0-.381.193-.38.43a.46.46 0 0 0 .094.282l3.73 4.8H12.51Z" fill="#2D383F"/></g></g></symbol><symbol id="training-icon-4" viewBox="0 0 19 19"><g fill="none"><g clip-path="url(#a)" fill="#2D383F"><path d="m17.796 18.383-3.071-7.143-2.9-6.75a.363.363 0 0 0-.668 0L8.57 10.497l-1.016 2.36L5.327 7.72a.363.363 0 0 0-.667 0l-2.092 4.833L.03 18.379a.363.363 0 0 0 .334.508h17.098a.363.363 0 0 0 .334-.504ZM11.487 5.545l2.353 5.47h-.826L11.52 9.367a.363.363 0 0 0-.573.047l-.558.863h-.936l2.034-4.731Zm-6.493 3.22 1.86 4.3H5.839a.362.362 0 0 0-.305.166l-.363.576-.935-1.32a.362.362 0 0 0-.297-.155h-.482l1.537-3.568Zm-4.06 9.397 2.207-5.105h.61l1.13 1.613a.362.362 0 0 0 .298.156.363.363 0 0 0 .297-.167l.558-.863h1.131l1.89 4.351-8.122.015Zm8.914 0-1.9-4.387L9.142 11h1.45a.363.363 0 0 0 .305-.167l.403-.62 1.283 1.418c.069.076.166.12.268.12h1.298l2.76 6.42-7.06-.01ZM5.785 1.582a1.711 1.711 0 0 0-3.307.613 1.656 1.656 0 0 0 0 .188 1.711 1.711 0 0 0 .689 3.263l.018.015h2.538a2.04 2.04 0 1 0 .062-4.079Zm-.04 3.365H3.207a.988.988 0 1 1-.203-1.965.363.363 0 0 0 .272-.472.986.986 0 1 1 1.903-.49c.034.191.21.322.403.298a1.24 1.24 0 0 1 .163 0 1.314 1.314 0 0 1 0 2.629ZM18.01 2.006a1.647 1.647 0 0 0 0-.189 1.711 1.711 0 0 0-3.301-.626 2.04 2.04 0 0 0 .073 4.078h2.538a1.711 1.711 0 0 0 .69-3.263Zm.272 1.754a.986.986 0 0 1-.95.78h-2.539a1.314 1.314 0 0 1 0-2.628c.055-.004.109-.004.163 0a.363.363 0 0 0 .392-.283.986.986 0 1 1 1.903.49.363.363 0 0 0 .272.47.986.986 0 0 1 .76 1.17Z"/></g></g></symbol><symbol id="video-arrow" viewBox="0 0 14 26"><g fill="none" stroke="currentColor"><path d="M13 13 1 2v22l12-11Z" fill="#fff"/></g></symbol><symbol id="vk" viewBox="0 0 16 9"><g fill="currentColor"><path d="M15.857 8.027c-.043-.07-.309-.64-1.589-1.812-1.34-1.226-1.16-1.027.454-3.148.983-1.291 1.376-2.08 1.253-2.417-.117-.322-.84-.237-.84-.237l-2.404.014s-.178-.024-.31.054c-.13.077-.213.255-.213.255s-.38 1-.889 1.85c-1.071 1.793-1.5 1.887-1.675 1.776-.407-.26-.305-1.043-.305-1.6 0-1.738.267-2.462-.521-2.65C8.556.05 8.364.01 7.695.002 6.837-.007 6.11.005 5.699.203c-.274.132-.485.427-.356.444.159.02.519.095.71.352.247.33.238 1.073.238 1.073s.142 2.046-.331 2.3c-.325.175-.77-.18-1.725-1.809-.49-.833-.86-1.754-.86-1.754s-.07-.172-.198-.264c-.154-.111-.37-.147-.37-.147L.521.412S.178.422.052.57C-.06.7.043.97.043.97s1.79 4.128 3.817 6.21c1.859 1.907 3.969 1.782 3.969 1.782h.956s.289-.031.436-.188c.136-.144.13-.414.13-.414s-.018-1.265.578-1.452c.587-.183 1.341 1.223 2.14 1.764.604.41 1.063.32 1.063.32l2.137-.03s1.118-.068.588-.935Z"/></g></symbol></svg>