<svg xmlns="http://www.w3.org/2000/svg" xmlns:xlink="http://www.w3.org/1999/xlink"><symbol id="icon-arrow" viewBox="0 0 18 34"><g fill="none"><path d="M17 1 1 17l16 16" stroke="#AFAFAF"/></g></symbol><symbol id="icon-close" viewBox="0 0 20 20"><g fill="none"><path d="M.293 18.291a1 1 0 101.414 1.414L10 11.413l8.292 8.292a1 1 0 101.414-1.414l-8.292-8.292 8.292-8.292A1 1 0 1018.291.293L9.999 8.585 1.707.293A1 1 0 10.293 1.707L8.585 10 .293 18.291z"/></g></symbol><symbol id="icon-ok" viewBox="0 0 25 25"><g fill="currentColor"><path d="M12.68 6.889c.899 0 1.63.754 1.63 1.682 0 .925-.731 1.679-1.63 1.679-.898 0-1.629-.754-1.629-1.68 0-.927.73-1.681 1.63-1.681Zm0 5.741c2.17 0 3.935-1.821 3.935-4.06 0-2.24-1.764-4.061-3.935-4.061-2.17 0-3.932 1.821-3.932 4.062 0 2.238 1.762 4.06 3.932 4.06Zm1.592 3.313a7.295 7.295 0 0 0 2.284-.977c.538-.35.7-1.084.362-1.64a1.13 1.13 0 0 0-1.591-.375 4.866 4.866 0 0 1-5.296 0 1.127 1.127 0 0 0-1.589.375 1.213 1.213 0 0 0 .363 1.64c.712.46 1.483.788 2.284.978l-2.2 2.268a1.218 1.218 0 0 0 0 1.682c.227.232.52.349.814.349.295 0 .59-.117.818-.35l2.16-2.229 2.162 2.23c.449.466 1.177.466 1.629 0 .449-.464.449-1.218 0-1.682l-2.2-2.268Z"/></g></symbol><symbol id="icon-play" viewBox="0 0 9 12"><g fill="currentColor"><path d="m9 6-9 5.196V.804L9 6Z"/></g></symbol><symbol id="icon-reddit" viewBox="0 0 25 25"><g fill="currentColor"><path d="M13.851 5.556c-.445 0-.863.226-1.131.551-.268.326-.416.723-.524 1.142-.17.673-.224 1.42-.236 2.093a7.317 7.317 0 0 0-3.327 1.027c-.382-.32-.842-.5-1.283-.494-.503.004-.98.22-1.334.665-.678.85-.6 2.238.186 3.064a4.173 4.173 0 0 0-.085.78c0 2.796 2.858 5.06 6.383 5.06s6.383-2.266 6.383-5.06c0-.264-.036-.526-.084-.78.785-.826.863-2.214.185-3.064a1.697 1.697 0 0 0-1.334-.665c-.44-.005-.9.173-1.283.494a7.314 7.314 0 0 0-3.31-1.027c.017-.62.062-1.265.186-1.75.078-.305.171-.526.27-.647.1-.122.171-.172.338-.172.361 0 .407.117.625.4.11.143.236.32.439.495.203.173.502.323.827.323V6.773c-.09 0-.107-.002-.169-.057-.06-.054-.145-.18-.27-.342-.249-.326-.732-.818-1.452-.818Zm3.512.114c-.84 0-1.52.766-1.52 1.712 0 .947.68 1.712 1.52 1.712s1.52-.765 1.52-1.712c0-.946-.68-1.712-1.52-1.712Zm0 .609c.54 0 .98.494.98 1.103s-.44 1.104-.98 1.104-.98-.495-.98-1.104c0-.609.44-1.103.98-1.103ZM12.5 10.293c2.991 0 5.522 1.877 5.522 4.09 0 2.217-2.53 4.091-5.522 4.091-2.99 0-5.522-1.874-5.522-4.09 0-2.215 2.531-4.09 5.522-4.09Zm-5.133.552c.15.002.306.04.456.114a4.986 4.986 0 0 0-1.267 1.598c-.202-.47-.148-1.058.101-1.37a.877.877 0 0 1 .71-.342Zm10.267 0a.877.877 0 0 1 .709.342c.249.312.304.9.101 1.37a4.986 4.986 0 0 0-1.266-1.598c.15-.074.306-.112.456-.114Zm-7.295 1.522c-.54 0-.98.495-.98 1.103 0 .61.44 1.104.98 1.104s.98-.495.98-1.104c0-.608-.44-1.103-.98-1.103Zm4.323 0c-.54 0-.98.495-.98 1.103 0 .61.44 1.104.98 1.104s.979-.495.979-1.104c0-.608-.44-1.103-.98-1.103Zm-4.847 3.748c.344.802 1.408 1.58 2.685 1.58 1.277 0 2.358-.779 2.702-1.58-.625.454-1.61.761-2.702.761-1.091 0-2.06-.307-2.685-.761Z"/></g></symbol><symbol id="icon-rouble" viewBox="0 0 30 42"><g fill="none"><path fill-rule="evenodd" clip-rule="evenodd" d="M0 17h6v6H0v-6Z" fill="#102654"/><path fill-rule="evenodd" clip-rule="evenodd" d="M3.659 28.321V18h6v10.321H21v6H9.659V42h-6v-7.679H0v-6h3.659Z" fill="#102654"/><path fill-rule="evenodd" clip-rule="evenodd" d="M18.5 6H10v11h8.5a5.5 5.5 0 1 0 0-11ZM4 0v23h14.5C24.851 23 30 17.851 30 11.5S24.851 0 18.5 0H4Z" fill="#102654"/></g></symbol><symbol id="icon-vk" viewBox="0 0 25 25"><g fill="currentColor"><path d="M13.723 15.052c.442-.143 1.01.944 1.612 1.36.453.316.8.248.8.248l1.608-.023s.84-.052.444-.72c-.033-.055-.233-.495-1.198-1.4-1.008-.945-.87-.792.343-2.427.74-.997 1.035-1.606.942-1.866-.088-.25-.632-.184-.632-.184l-1.811.012c-.177 0-.326.055-.394.239-.002.002-.288.771-.67 1.425-.806 1.385-1.128 1.458-1.261 1.372-.306-.201-.229-.805-.229-1.234 0-1.341.2-1.9-.391-2.045-.198-.049-.343-.08-.847-.085-.644-.01-1.192 0-1.502.153-.206.103-.364.33-.268.342.12.017.39.074.535.272.185.255.18.828.18.828s.106 1.58-.25 1.775c-.245.135-.58-.14-1.298-1.396-.367-.643-.645-1.353-.645-1.353s-.053-.132-.15-.204c-.117-.086-.279-.113-.279-.113l-1.72.01s-.258.008-.353.122c-.084.101-.007.31-.007.31s1.347 3.186 2.873 4.79c1.398 1.474 2.987 1.376 2.987 1.376h.72s.217-.025.329-.144c.103-.111.099-.32.099-.32s-.015-.977.433-1.12Z"/></g></symbol></svg>